<svg width="493" height="176" viewBox="0 0 493 176" fill="none" xmlns="http://www.w3.org/2000/svg">
<g clip-path="url(#clip0_2211_1401)" filter="url(#filter0_d_2211_1401)">
<path d="M86.7188 166.5V167H87.2188H120.66H121.16V166.5V138.479H139.5H140V137.979V108.986V108.486H139.5H121.16V1.5V1H120.66H74.7373H74.4604L74.3135 1.23461L5.07625 111.785L5 111.906V112.05V137.979V138.479H5.5H86.7188V166.5ZM86.7188 35.7071V108.486H40.1476V106.066L84.6681 35.7071H86.7188Z" fill="#F7F7F7" stroke="white"/>
<path d="M309.192 149.967C272.318 173.459 222.393 169.017 190.95 139.449C181.086 130.207 173.401 118.822 169.146 106.378C168.838 105.622 168.522 104.486 168.281 103.699C168.048 102.895 167.685 101.797 167.499 100.994C167.36 100.45 166.791 98.0782 166.671 97.5793C166.486 96.59 166.21 95.1239 166.021 94.1318C165.847 93.22 165.585 90.917 165.44 89.9664C165.303 88.3451 165.077 85.9839 165.062 84.3765C165.045 83.5451 164.978 82.395 165.007 81.5747C165.054 75.0564 165.905 68.4772 167.618 62.1612C169.91 53.5589 173.802 45.2947 178.94 37.8425C179.739 36.7727 180.674 35.4203 181.499 34.3783C181.859 33.921 183.445 31.9894 183.767 31.582C184.084 31.2106 184.885 30.3432 185.213 29.9663C188.365 26.3773 192.045 23.0739 195.815 20.0392C197.148 19.0582 199.178 17.4868 200.566 16.5972C209.451 10.5057 219.715 6.09924 230.488 3.85997C262.695 -2.97976 296.445 9.41934 315.001 34.8854C335.849 63.4056 331.185 101.905 304.133 125.443C268.571 156.706 210.128 145.593 191.414 103.316C175.161 66.3793 202.96 22.9519 246.297 20.9981C279.718 19.23 310.252 44.9926 308.963 76.6472C308.216 104.513 283.044 128.114 252.744 126.826C232.93 126.069 214.792 114.593 207.072 97.5239C200.595 83.3206 202.684 66.2435 212.379 53.7363C227.095 34.2536 256.212 29.2707 276.877 43.6319L278.086 44.4882C278.475 44.7792 279.457 45.5635 279.831 45.8517C280.206 46.1566 281.121 46.9797 281.501 47.2956C281.859 47.6254 282.744 48.4956 283.09 48.8171C283.424 49.1552 284.252 50.0615 284.592 50.4106L285.536 51.5192C290.554 57.4444 293.7 64.7442 294.394 72.2684C297.078 100.913 266.349 123.239 237.665 110.815C226.683 106.029 218.251 96.1659 216.366 84.9364C213.151 67.8148 225.629 50.1307 244.101 46.8411C256.032 44.5935 269.03 48.9474 276.59 57.8545C287.543 69.9017 284.168 88.6943 270.589 97.6957C263.932 102.413 255.701 103.665 247.694 101.542C238.039 99.0897 229.654 91.5073 228.42 82.0347C226.038 65.9802 243.314 52.5834 259.593 59.3899C263.241 60.9141 266.401 63.4111 268.635 66.4929C264.168 60.2795 255.832 56.8181 247.894 57.885C239.942 58.8218 233.003 64.2038 230.125 71.11C225.463 82.1317 231.167 93.9045 242.289 99.1452C251.347 103.502 262.111 103.211 270.293 97.3077C283.558 88.4394 286.831 70.0209 276.05 58.2619C264.429 44.7349 242.294 43.2467 228.623 54.9474C212.501 68.3275 213.137 91.7234 229.48 104.702C244.737 117.004 267.589 115.89 281.609 102.446C295.812 89.0906 297.249 67.7206 284.969 52.8051C284.685 52.4642 283.889 51.5469 283.59 51.1949C283.035 50.6046 282.201 49.7067 281.612 49.158L280.581 48.1769C280.218 47.8582 279.308 47.085 278.957 46.7774C278.609 46.5002 277.624 45.7437 277.258 45.4582C244.9 22.381 201.362 47.6282 205.042 84.3904C207.229 105.481 226.053 122.414 248.408 124.988C279.462 128.81 306.535 105.303 307.336 76.6029C308.571 45.8296 278.852 20.8207 246.372 22.5473C213.779 23.7251 187.81 51.2781 188.379 81.2754C188.283 103.529 203.079 124.55 224.13 134.666C248.98 146.982 280.528 143.332 301.443 125.792C320.366 110.533 329.587 86.6407 325.73 63.6328C321.272 36.2462 298.73 13.6817 270.386 6.04104C269.062 5.71956 267.406 5.26506 266.073 5.00178L263.171 4.41425L260.241 3.9542C259.268 3.7796 258.28 3.70478 257.296 3.58838C256.416 3.48307 255.213 3.35835 254.339 3.31678C242.509 2.41886 230.412 4.05397 219.358 8.08354C211.963 10.733 205.016 14.4826 198.783 19.036C194.124 22.4115 189.724 26.333 185.951 30.551C185.623 30.9113 184.833 31.7926 184.516 32.1446C184.226 32.4688 182.605 34.5141 182.268 34.9048C181.452 35.9302 180.523 37.2716 179.73 38.3247C174.63 45.6882 170.755 53.8555 168.466 62.3636C166.756 68.6158 165.893 75.1285 165.832 81.5802C165.771 82.3895 165.884 83.534 165.876 84.3544C165.87 85.9424 166.111 88.2953 166.227 89.8943C166.358 90.8505 166.628 93.1008 166.785 94.0237C166.965 95.0075 167.235 96.4625 167.415 97.4435C167.531 98.02 168.086 100.229 168.22 100.83C168.394 101.628 168.763 102.717 168.983 103.513C169.193 104.303 169.553 105.411 169.831 106.173C174.002 118.534 181.589 129.869 191.345 139.081C222.53 168.654 272.349 173.185 309.184 149.967H309.192Z" stroke="white" stroke-miterlimit="10"/>
<path d="M304.671 147.159C270.458 169.482 224.134 165.261 194.955 137.165C185.802 128.383 178.671 117.564 174.723 105.741C174.437 105.023 174.145 103.941 173.92 103.194C173.705 102.431 173.368 101.388 173.194 100.625C173.064 100.109 172.538 97.855 172.426 97.3789C172.252 96.4406 171.998 95.046 171.824 94.1021C171.661 93.2371 171.419 91.0451 171.286 90.1435C171.159 88.6023 170.95 86.3595 170.935 84.8324C170.917 84.0435 170.855 82.9503 170.885 82.1699C170.929 75.977 171.717 69.7249 173.306 63.7207C175.435 55.5471 179.043 47.6947 183.812 40.6114C184.553 39.5971 185.421 38.3095 186.186 37.3177C186.519 36.8838 187.99 35.0468 188.291 34.6608C188.586 34.3086 189.327 33.4831 189.631 33.1252C192.558 29.716 195.971 26.5745 199.467 23.6922C200.704 22.7596 202.588 21.2663 203.875 20.421C212.119 14.6338 221.644 10.4442 231.636 8.31695C261.52 1.81693 292.837 13.5998 310.054 37.7995C329.4 64.8985 325.071 101.484 299.967 123.849C266.968 153.557 212.742 142.997 195.377 102.825C180.301 67.7272 206.093 26.4618 246.305 24.6051C277.314 22.9258 305.648 47.4045 304.452 77.4843C303.759 103.963 280.403 126.388 252.287 125.162C233.904 124.444 217.071 113.54 209.91 97.3197C203.902 83.8238 205.839 67.5948 214.836 55.7105C228.492 37.1994 255.509 32.4631 274.684 46.1084L275.806 46.9227C276.169 47.1988 277.078 47.9454 277.427 48.2187C277.772 48.5089 278.622 49.2894 278.974 49.5909C279.304 49.9036 280.128 50.7319 280.447 51.0362C280.757 51.3574 281.525 52.2168 281.841 52.5521L282.718 53.6058C287.374 59.2352 290.294 66.172 290.938 73.3228C293.427 100.54 264.916 121.756 238.301 109.951C228.111 105.403 220.286 96.0293 218.538 85.3621C215.553 69.0909 227.133 52.29 244.271 49.1626C255.343 47.0269 267.402 51.163 274.415 59.6297C284.578 71.0773 281.448 88.9347 268.849 97.4887C262.672 101.971 255.036 103.16 247.604 101.143C238.646 98.813 230.866 91.6086 229.72 82.6066C227.511 67.3497 243.539 54.6201 258.645 61.0892C262.028 62.5374 264.96 64.9097 267.033 67.8371C262.888 61.9344 255.154 58.6436 247.788 59.6579C240.409 60.5482 233.972 65.662 231.3 72.224C226.974 82.6967 232.268 93.8851 242.585 98.8637C250.991 103.005 260.977 102.727 268.569 97.1196C280.875 88.6924 283.914 71.1928 273.91 60.0157C263.127 47.1621 242.588 45.7477 229.906 56.8657C214.948 69.5812 215.535 91.8114 230.7 104.144C244.855 115.834 266.062 114.774 279.068 102C292.246 89.3095 293.581 69.0008 282.186 54.8286C281.924 54.5046 281.182 53.6312 280.908 53.2987C280.394 52.738 279.617 51.8843 279.074 51.3631L278.117 50.4305C277.781 50.1262 276.936 49.3936 276.612 49.1006C276.287 48.8386 275.374 48.1201 275.035 47.8468C245.009 25.918 204.613 49.9092 208.03 84.8409C210.058 104.882 227.526 120.97 248.269 123.418C277.084 127.05 302.203 104.713 302.947 77.4421C304.092 48.199 276.517 24.436 246.379 26.0786C216.135 27.1972 192.041 53.3804 192.569 81.8853C192.481 103.031 206.211 123.007 225.74 132.62C248.8 144.324 278.07 140.853 297.478 124.19C315.035 109.691 323.592 86.9878 320.016 65.1239C315.879 39.0984 294.966 17.6599 268.663 10.3991C267.435 10.0948 265.899 9.66091 264.662 9.41015L261.969 8.85228L259.253 8.41557C258.349 8.25215 257.431 8.17889 256.522 8.06619C255.707 7.96476 254.59 7.84643 253.779 7.80698C242.803 6.95327 231.577 8.50855 221.323 12.3376C214.461 14.8564 208.015 18.4206 202.231 22.7455C197.908 25.9518 193.824 29.6794 190.322 33.6859C190.018 34.0297 189.286 34.8665 188.991 35.1989C188.719 35.5061 187.219 37.4501 186.903 37.8221C186.144 38.7969 185.282 40.0733 184.547 41.0735C179.814 48.0694 176.22 55.8317 174.097 63.9151C172.509 69.8545 171.709 76.0446 171.655 82.1755C171.599 82.9447 171.706 84.0323 171.697 84.8127C171.691 86.3201 171.915 88.5572 172.022 90.0758C172.143 90.9831 172.394 93.1216 172.538 94.0006C172.707 94.9361 172.955 96.3166 173.123 97.2492C173.232 97.7958 173.746 99.8949 173.87 100.47C174.032 101.228 174.375 102.262 174.579 103.02C174.773 103.769 175.107 104.823 175.364 105.547C179.232 117.29 186.274 128.065 195.324 136.816C224.261 164.918 270.488 169.223 304.665 147.162L304.671 147.159Z" stroke="#F06C00" stroke-miterlimit="10"/>
<path d="M301.712 143.947C269.239 165.135 225.27 161.129 197.577 134.463C188.89 126.126 182.123 115.859 178.376 104.637C178.104 103.955 177.826 102.93 177.614 102.22C177.41 101.493 177.091 100.507 176.926 99.7826C176.802 99.2923 176.303 97.1538 176.2 96.703C176.034 95.8127 175.792 94.4885 175.627 93.5925C175.473 92.7698 175.243 90.6933 175.116 89.8339C174.995 88.3716 174.797 86.2416 174.782 84.7934C174.768 84.0439 174.708 83.0071 174.732 82.266C174.773 76.3859 175.52 70.455 177.029 64.7551C179.049 56.9985 182.474 49.5433 187 42.8207C187.703 41.8571 188.527 40.6343 189.253 39.6961C189.569 39.2847 190.966 37.5407 191.249 37.1744C191.53 36.8391 192.233 36.0559 192.522 35.7177C195.298 32.4804 198.54 29.4995 201.858 26.7637C203.034 25.879 204.82 24.4617 206.042 23.6587C213.867 18.1646 222.908 14.1891 232.392 12.1689C260.759 6.00132 290.48 17.1813 306.823 40.1525C325.186 65.8737 321.076 100.597 297.251 121.827C265.932 150.025 214.46 140 197.982 101.873C183.67 68.5588 208.154 29.3924 246.32 27.6315C275.752 26.0367 302.645 49.27 301.512 77.82C300.853 102.952 278.684 124.236 252.001 123.075C234.551 122.393 218.577 112.044 211.779 96.6495C206.075 83.8382 207.914 68.4376 216.454 57.1563C229.416 39.5862 255.057 35.0894 273.257 48.0416L274.323 48.8136C274.669 49.0756 275.531 49.7828 275.862 50.042C276.189 50.3182 276.998 51.0592 277.332 51.3465C277.648 51.6424 278.427 52.4285 278.729 52.7187C279.024 53.023 279.753 53.8401 280.051 54.1556L280.884 55.1558C285.304 60.5007 288.074 67.0824 288.685 73.8698C291.05 99.7037 263.986 119.841 238.726 108.635C229.056 104.319 221.63 95.4239 219.967 85.2949C217.136 69.852 228.125 53.9049 244.392 50.9352C254.9 48.9066 266.348 52.8342 273.003 60.8698C282.647 71.7342 279.679 88.6844 267.718 96.8045C261.854 101.059 254.605 102.186 247.554 100.273C239.053 98.0611 231.669 91.223 230.579 82.6802C228.483 68.201 244.698 55.4597 259.037 61.5963C262.249 62.9712 265.031 65.2224 267 68.0005C263.067 62.3964 254.723 59.9344 247.731 60.898C240.728 61.7432 234.618 66.5978 232.082 72.8245C227.978 82.7647 233 93.384 242.794 98.109C250.773 102.039 260.251 101.775 267.458 96.4523C279.139 88.4533 282.024 71.844 272.528 61.2361C262.294 49.0362 242.8 47.6922 230.762 58.2467C216.563 70.3141 217.124 91.4145 231.518 103.119C244.956 114.214 265.081 113.208 277.426 101.084C289.934 89.0394 291.201 69.7647 280.385 56.3138C280.134 56.0067 279.434 55.1784 279.172 54.86C278.684 54.3275 277.949 53.516 277.429 53.023L276.523 52.1383C276.204 51.8509 275.404 51.155 275.094 50.876C274.787 50.6281 273.922 49.9434 273.6 49.687C245.103 28.874 206.76 51.6452 210.002 84.799C211.927 103.82 228.506 119.091 248.195 121.416C275.546 124.861 299.386 103.66 300.094 77.7749C301.181 50.0195 275.008 27.4652 246.403 29.0233C217.697 30.0855 194.828 54.9361 195.327 81.9899C195.241 102.059 208.275 121.021 226.812 130.144C248.697 141.251 276.482 137.96 294.9 122.142C311.565 108.382 319.685 86.8304 316.29 66.0794C312.366 41.3782 292.512 21.03 267.55 14.1383C266.383 13.8481 264.925 13.4396 263.753 13.2001L261.196 12.6704L258.615 12.2562C257.759 12.1013 256.888 12.0308 256.022 11.9266C255.249 11.8308 254.189 11.7181 253.418 11.6815C243.001 10.87 232.345 12.3464 222.613 15.981C216.099 18.3703 209.981 21.7541 204.492 25.8592C200.391 28.905 196.514 32.441 193.189 36.2446C192.9 36.5715 192.203 37.3632 191.926 37.6816C191.669 37.9746 190.243 39.8172 189.944 40.1723C189.224 41.0964 188.406 42.3079 187.709 43.2574C183.215 49.8983 179.805 57.2662 177.791 64.9383C176.285 70.5761 175.523 76.4507 175.473 82.2717C175.42 83.0014 175.52 84.0355 175.512 84.7736C175.506 86.2049 175.718 88.3265 175.822 89.7691C175.937 90.6313 176.173 92.6599 176.312 93.4939C176.471 94.3814 176.707 95.6916 176.867 96.5791C176.97 97.0975 177.457 99.0895 177.576 99.6333C177.729 100.352 178.054 101.335 178.249 102.054C178.435 102.766 178.751 103.767 178.996 104.454C182.669 115.6 189.351 125.825 197.94 134.131C225.406 160.802 269.28 164.89 301.721 143.95L301.712 143.947Z" stroke="#0A4B70" stroke-miterlimit="10"/>
<path d="M434.719 166.5V167H435.219H468.66H469.16V166.5V138.479H487.5H488V137.979V108.986V108.486H487.5H469.16V1.5V1H468.66H422.737H422.46L422.314 1.23461L353.076 111.785L353 111.906V112.05V137.979V138.479H353.5H434.719V166.5ZM434.719 35.7071V108.486H388.148V106.066L432.668 35.7071H434.719Z" fill="#F6F6F6" stroke="white"/>
</g>
<defs>
<filter id="filter0_d_2211_1401" x="0" y="0" width="493" height="176" filterUnits="userSpaceOnUse" color-interpolation-filters="sRGB">
<feFlood flood-opacity="0" result="BackgroundImageFix"/>
<feColorMatrix in="SourceAlpha" type="matrix" values="0 0 0 0 0 0 0 0 0 0 0 0 0 0 0 0 0 0 127 0" result="hardAlpha"/>
<feOffset dy="4"/>
<feGaussianBlur stdDeviation="2"/>
<feComposite in2="hardAlpha" operator="out"/>
<feColorMatrix type="matrix" values="0 0 0 0 0 0 0 0 0 0 0 0 0 0 0 0 0 0 0.25 0"/>
<feBlend mode="normal" in2="BackgroundImageFix" result="effect1_dropShadow_2211_1401"/>
<feBlend mode="normal" in="SourceGraphic" in2="effect1_dropShadow_2211_1401" result="shape"/>
</filter>
<clipPath id="clip0_2211_1401">
<rect width="485" height="168" fill="white" transform="translate(4)"/>
</clipPath>
</defs>
</svg>
