<svg width="176" height="169" viewBox="0 0 176 169" fill="none" xmlns="http://www.w3.org/2000/svg">
<g clip-path="url(#clip0_4982_10256)">
<path d="M47.9878 119.654C48.0078 118.311 47.9938 117.183 48.0445 116.061C48.0879 114.87 47.7003 113.849 46.9512 112.938C45.6658 111.348 43.7367 111.203 42.2361 112.593C40.4309 114.267 40.2843 114.319 38.7854 112.312C38.1397 111.456 37.7222 110.401 37.3905 109.369C36.9291 107.904 36.0057 107.473 34.6958 108.137C33.1853 108.902 31.6307 109.59 30.0796 110.265C29.5824 110.482 29.0073 110.506 28.2458 110.676C28.3159 109.955 28.2888 109.392 28.4332 108.877C29.9638 103.424 31.4944 97.971 33.0373 92.5213C33.7527 89.9724 34.5661 87.451 35.2781 84.9143C35.4604 84.2648 35.7737 84.3263 36.2118 84.5551C38.3727 85.6639 40.4869 86.8919 42.7258 87.864C44.2202 88.5214 45.8622 88.9823 47.4789 89.251C49.5996 89.6083 51.7522 89.7101 53.9034 89.8644C54.526 89.907 55.1615 89.7152 55.7783 89.6371C57.2286 89.4625 58.7533 89.4939 60.1361 89.0888C61.7091 88.6182 63.1667 87.7582 64.6865 87.1008C64.9586 86.9789 65.369 86.8825 65.6004 87.0003C67.4471 87.8624 69.2801 88.7735 71.0974 89.6934C73.1127 90.7085 75.1246 91.7359 77.1261 92.8C77.8412 93.1726 78.4836 93.7098 79.2055 94.0579C79.4859 94.1894 79.9223 94.0475 80.2719 94.0267C80.2265 93.6702 80.2959 93.1874 80.1009 92.9872C79.5301 92.4304 78.8843 91.9054 78.1761 91.5084C75.2523 89.8681 72.3024 88.2734 69.3594 86.6541C69.0158 86.4652 68.6949 86.2429 68.3965 85.9873C67.389 85.1493 67.3995 84.7821 68.4007 83.8997L68.568 83.7748C70.7804 81.6858 70.8799 81.6608 73.5348 82.9877C78.0438 85.2447 82.7355 86.9449 87.6019 88.258C90.4641 89.0349 93.2127 90.2162 96.0733 91.0455C99.7761 92.1245 103.493 93.1544 107.255 93.9726C110.208 94.6162 113.225 94.5112 116.198 93.9046C117.881 93.5576 119.563 93.1704 121.249 92.7709C123.819 92.1837 125.976 90.8589 127.51 88.7381C128.741 87.0347 129.78 85.1714 130.775 83.3223C131.156 82.6229 131.383 82.475 132.12 82.8142C134.011 83.6621 135.332 85.0773 136.417 86.7699C137.345 88.2202 137.657 88.3341 139.136 87.4933C140.391 86.7881 141.567 85.9416 142.823 85.2365C143.463 84.8873 144.18 84.6392 144.898 84.4837C145.983 84.2462 146.253 84.5071 146.01 85.5625C145.491 87.836 145.042 90.1424 144.314 92.3574C143.194 95.7841 141.954 99.1642 140.583 102.494C138.74 106.987 136.787 111.449 134.801 115.889C132.963 119.987 131.092 124.062 129.094 128.075C127.583 131.101 125.813 134.015 124.208 137.002C123.732 137.899 123.425 138.897 122.982 139.817C122.535 140.75 121.985 140.873 121.275 140.105C120.565 139.337 120.002 138.426 119.384 137.565C119.12 137.187 118.934 136.764 118.667 136.398C117.502 134.802 117.019 134.64 115.197 135.292C114.198 135.647 113.205 136.029 112.224 136.415C111.216 136.806 110.841 136.634 110.795 135.524C110.751 134.177 110.238 133.081 109.384 132.074C108.619 131.172 107.381 130.732 106.34 131.286C105.468 131.755 104.674 132.418 103.971 133.133C103.214 133.899 102.729 133.366 102.291 132.899C101.114 131.63 99.8741 130.397 98.9111 128.976C98.2651 128.028 97.6502 128.146 96.87 128.43C94.5869 129.217 92.3091 130.032 90.0294 130.806C89.3434 131.037 88.8478 130.871 88.8106 130.015C88.7947 129.6 88.6494 129.176 88.6491 128.753C88.6562 126.138 86.9317 124.887 84.8743 123.833C81.846 122.283 78.5336 121.697 75.2744 120.875C73.2264 120.353 71.1937 119.729 69.1713 119.069C66.2279 118.111 63.4819 118.239 61.0371 120.355C60.3563 120.944 59.5322 120.819 58.9724 119.987C58.3895 119.097 57.9008 118.153 57.3145 117.275C56.2105 115.603 55.7208 115.558 54.065 116.653C52.5608 117.632 51.009 118.545 49.4396 119.427C49.0316 119.656 48.4982 119.625 47.9951 119.722L47.9878 119.654ZM118.324 128.013C119.561 128.361 120.353 128.319 121.318 127.519C122.387 126.629 123.044 125.372 122.182 124.535C121.235 123.622 120.163 122.779 118.994 122.187C118.127 121.745 117.089 121.863 116.359 122.861C114.99 124.725 115.976 127.381 118.324 128.013ZM138.598 97.4158C138.564 96.8774 138.74 96.1074 138.449 95.8272C137.495 94.9383 136.388 94.1252 134.944 94.5131C133.519 94.8799 132.311 95.6513 131.883 97.1306C131.711 97.7433 131.749 98.7852 132.132 99.1173C133.099 99.9572 134.373 100.315 135.7 99.9206C137.012 99.5351 138.084 98.871 138.594 97.428L138.598 97.4158ZM114.758 105.676C116.947 106.211 117.832 105.838 119.204 103.777C119.985 102.595 119.6 101.139 118.335 100.467C116.263 99.3696 113.865 100.521 113.206 102.914C112.725 104.629 113.077 105.257 114.761 105.664L114.758 105.676ZM65.7678 96.6713C65.8532 97.3562 65.7414 98.1313 66.0465 98.6928C66.928 100.262 69.0828 100.827 70.6767 99.9528C71.6899 99.4043 72.7797 98.7716 72.6997 97.3611C72.6143 95.9226 71.3925 94.4824 70.2468 94.3724C68.8702 94.2372 66.1866 94.991 65.7678 96.6713ZM99.5303 118.905C100.314 119.032 101.632 118.953 102.78 118.112C103.789 117.39 104.175 115.78 103.632 114.887C102.618 113.228 100.277 112.663 98.6442 113.725C98.0969 114.074 97.4833 114.47 97.1746 115.005C96.297 116.53 97.0427 118.207 99.5337 118.892L99.5303 118.905ZM52.1693 107.912C53.9462 108.41 55.769 107.521 56.2039 105.924C56.6992 104.16 56.0699 103.058 54.3018 102.575C51.8353 101.896 50.5277 102.692 49.8702 105.27C49.6333 106.208 50.7723 107.52 52.1693 107.912ZM93.9725 101.309C94.3173 99.5156 93.8071 98.4603 91.4126 97.8543C90.1646 97.5436 88.8037 98.1532 88.5217 99.158C88.0126 100.972 89.0665 102.775 90.9115 103.266C92.4012 103.658 93.543 102.934 93.9848 101.313L93.9725 101.309ZM76.441 114.222C78.3895 114.769 79.4489 114.009 80.1873 111.519C80.4713 110.554 79.2858 109.032 78.0011 108.711C77.0138 108.46 74.6544 109.755 74.4121 110.665C74.0116 112.139 74.9582 113.806 76.441 114.222ZM39.4192 94.5108C38.8168 96.5627 39.4872 97.8481 41.3086 97.7644C41.9798 97.728 42.6567 97.0588 43.2718 96.6101C44.0159 96.0786 44.2874 94.6874 43.8875 93.663C43.4929 92.6666 42.585 92.5572 41.6918 92.5841C40.5014 92.6333 39.7788 93.2766 39.4192 94.5108Z" fill="#090909"/>
<path d="M34.1683 35.8352C34.8378 36.9352 35.271 37.9822 35.9897 38.7656C37.7172 40.665 39.556 42.4502 41.3722 44.2687C43.6838 46.5832 46.4798 48.1612 49.3989 49.5357C50.0507 49.8509 50.1344 50.1652 49.8487 50.7592C49.6027 51.2586 49.4813 51.8327 49.2687 52.3546C48.8695 53.3531 48.5924 54.2932 50.0407 54.8319C51.2395 53.9522 51.1375 52.3372 51.7874 51.1051C53.6847 51.1749 54.0912 51.7517 53.5925 53.5286C53.338 54.4354 53.1903 55.3854 53.0618 56.3144C53.0229 56.5943 53.1624 56.8979 53.225 57.1931L53.5298 57.3315C53.8114 56.9875 54.2156 56.6779 54.3659 56.2839C54.7666 55.233 55.0149 54.1129 55.4033 53.0586C55.5138 52.7591 55.9455 52.3515 56.2009 52.3835C57.1034 52.465 57.9946 52.7283 58.8887 52.8868C59.5921 53.0181 59.7042 53.4197 59.5533 54.0515C59.3217 55.0177 59.078 55.9804 58.9479 56.9618C58.9006 57.3187 59.198 57.7194 59.3414 58.1034C59.7176 57.7992 60.2987 57.5657 60.449 57.1716C60.8222 56.2188 61.0395 55.209 61.2289 54.2046C61.3755 53.3997 61.7977 53.2141 62.5654 53.2577C65.4108 53.435 68.2718 53.6035 71.1271 53.6514C73.8774 53.6963 76.3745 52.6654 78.778 51.4496C79.7024 50.982 80.5774 50.4079 81.4788 49.881C81.5911 49.9521 81.7033 50.0233 81.8155 50.0944C81.6063 51.3577 81.5075 52.6519 81.1635 53.8774C80.0388 57.8845 78.9141 61.8917 77.5933 65.8438C76.9071 67.9118 75.8199 69.854 74.9779 71.865C74.4869 73.0492 73.4465 73.0348 72.4492 73.244C70.9577 73.5657 69.7051 73.4124 68.697 72.0586C66.6563 69.3443 63.6349 68.5227 60.4784 67.9936C58.5485 67.6635 56.7884 68.5179 54.9449 68.7275C54.4958 68.7733 53.9884 68.697 53.5541 68.5487C52.5175 68.1916 51.5274 67.7154 50.477 67.4074C50.0849 67.2973 49.4872 67.3543 49.1718 67.583C48.1962 68.3271 47.5126 67.9369 46.9527 67.1056C45.9844 65.6572 44.5523 64.8719 43.0835 64.0763C41.1222 63.0102 38.9605 63.2231 36.8736 62.9811C34.122 62.6582 31.8773 63.8261 29.7922 65.4617C29.4856 65.7062 28.8903 65.896 28.6012 65.7488C28.2875 65.5946 27.9859 65.0208 28.0121 64.6448C28.1412 61.971 28.2493 59.2781 28.5603 56.6157C28.8916 53.7871 29.3189 50.9458 29.9511 48.1753C30.5096 45.7145 31.4024 43.3344 32.1727 40.9199C32.5656 39.7082 33.0164 38.526 33.4707 37.3315C33.6607 36.8428 33.9208 36.387 34.184 35.8263L34.1683 35.8352ZM41.7686 49.4035C39.4241 48.6661 37.6664 48.8998 36.2881 50.6546C36.0031 51.0108 35.6426 51.3062 35.3364 51.6433C34.1501 52.9496 34.0305 55.4013 35.2088 56.5253C38.3857 59.5718 41.6501 59.2454 44.4496 55.9594C44.8583 55.4925 45.1362 54.7376 45.1263 54.1135C45.1172 51.4142 43.9866 50.026 41.7598 49.3878L41.7686 49.4035ZM62.0318 60.6696C61.7719 61.6895 61.9141 62.8002 62.4582 64.0017C63.8202 67.0147 67.06 68.1885 70.0382 66.8564C72.1842 65.8988 73.4345 62.5746 72.7671 61.1843C71.713 58.9584 69.9651 57.5556 67.4934 57.2717C66.3267 57.1425 65.0692 57.0539 64.3869 58.4488C64.2691 58.6801 63.8802 58.8882 63.5953 58.914C62.4716 59.0084 62.2323 59.8138 62.0283 60.6819L62.0318 60.6696Z" fill="#090909"/>
<path d="M58.7073 81.8402C59.3624 82.4735 60.014 83.1191 60.7005 83.7348C60.8989 83.9227 61.1705 84.0386 61.4194 84.1878C62.1173 84.6216 63.2864 84.8836 63.074 85.8287C62.9472 86.3748 61.8508 86.7016 61.169 87.1051C59.3157 88.1977 57.7707 87.579 56.0786 86.496C53.7165 84.9737 51.7792 83.0683 50.021 80.9488C48.4298 79.0348 48.884 74.8262 50.7045 73.0502C52.1369 71.6675 53.6624 70.3772 55.6007 69.8768C56.8545 69.5545 58.2253 69.5691 59.5367 69.6067C60.5491 69.6265 61.549 69.9732 62.5687 70.0612C64.5678 70.2389 66.1229 71.1513 67.3608 72.6753C67.9815 73.4312 67.871 73.7306 66.8962 73.9065C65.3659 74.1777 63.8411 74.4767 62.3177 74.7234C61.7778 74.8098 61.3253 74.8679 61.4773 75.5979C61.6293 76.328 62.095 76.4587 62.75 76.3386C64.2769 76.0797 65.8091 75.8487 67.3359 75.5899C69.2261 75.2611 69.4714 75.753 69.7393 77.7186C69.8388 78.4472 69.2057 78.7719 68.0846 78.6687C66.3251 78.5318 64.5691 78.3826 62.7993 78.2825C62.0316 78.2388 61.0527 77.9112 60.8167 79.0347C60.7823 79.1573 62.0508 79.7248 62.7346 79.7846C64.4906 79.9337 66.2576 79.8084 68.0136 79.9575C69.3412 80.079 69.4194 80.3653 68.5271 81.3311C67.7686 82.1493 66.9768 82.945 66.1253 83.671C65.8692 83.8768 65.2961 83.9407 64.979 83.7988C63.884 83.3196 62.8583 82.688 61.7634 82.2088C60.8821 81.816 59.9474 81.5669 59.0298 81.2565C58.91 81.4476 58.7903 81.6387 58.6828 81.8333L58.7073 81.8402ZM57.6326 81.9483C57.98 80.7106 57.7775 80.0192 57.0422 79.8129C56.2457 79.5893 54.2925 80.2837 54.1466 80.8509C53.9643 81.5004 54.6458 82.9343 55.185 83.0856C56.1408 83.3539 57.4056 82.7571 57.6204 81.9449L57.6326 81.9483ZM53.5421 76.0808C52.8856 76.2534 51.9175 75.2282 51.3461 76.4162C50.9911 77.1626 51.8681 78.8894 52.5666 79.0854C53.3141 79.2953 54.4937 78.4366 54.7532 77.465C54.9989 76.5425 54.3352 76.3166 53.5456 76.0685L53.5421 76.0808ZM57.9231 72.2472C56.7466 71.917 56.2872 71.9996 56.0942 72.5932C55.851 73.3181 56.4612 74.4412 57.2033 74.6231C57.8597 74.7809 58.9357 74.1971 59.0621 73.5584C59.2637 72.5574 58.4676 72.4265 57.9231 72.2472Z" fill="#090909"/>
<path d="M30.8048 66.7506C32.6666 64.8275 34.7515 64.2758 37.132 64.5077C38.0836 64.6029 39.0396 64.5408 39.9877 64.6482C43.3462 65.0225 46.4765 68.1881 47.1848 70.8457C48.2471 74.8322 46.5653 78.9871 42.9876 81.0895C40.2014 82.7267 37.2565 82.5743 34.4051 81.0998C33.7023 80.7307 33.8723 80.0778 34.3771 79.5981C34.9481 79.071 35.6421 78.6709 36.1675 78.1177C36.5016 77.7752 36.7823 77.2459 36.8326 76.7841C36.8726 76.3591 36.5645 75.9024 36.4103 75.4626C35.8851 75.6853 35.3124 75.8418 34.8313 76.143C34.3972 76.4178 34.1322 76.9383 33.6981 77.2131C32.0212 78.2891 31.1753 77.9591 30.441 76.1006C30.1615 75.4008 30.3417 75.0415 31.0928 74.9087C31.72 74.7939 32.3241 74.6197 32.9404 74.449C33.6284 74.2587 33.867 73.6911 33.6389 73.138C33.4974 72.7942 32.9466 72.4017 32.5725 72.4157C31.7107 72.4249 30.855 72.6474 29.9974 72.8298C29.2674 72.9818 28.9582 72.6703 28.8169 71.9961C28.64 71.1664 28.3355 70.3671 28.239 69.5336C28.1225 68.5359 28.7061 68.1048 29.5962 68.5133C30.9715 69.124 32.302 69.8941 33.7205 70.398C34.2617 70.5895 35.1036 71.1695 35.6204 70.2702C35.9811 69.6444 35.509 68.8773 34.5562 68.5041C33.7347 68.181 32.8823 67.9682 32.0677 67.6206C31.6314 67.4321 31.2488 67.0999 30.7788 66.7961L30.8048 66.7506ZM42.1981 78.2504C42.295 77.6695 42.4401 76.9171 41.6045 76.5503C40.958 76.2631 39.168 77.0827 39.2927 77.5804C39.4938 78.3242 39.9085 79.1545 40.4911 79.6221C41.086 80.0931 41.8296 79.469 42.1858 78.247L42.1981 78.2504ZM45.3882 73.62C45.5892 72.8567 45.0558 72.0725 44.4291 72.28C43.874 72.4679 43.2806 72.6979 42.8436 73.0776C42.5649 73.3167 42.3753 73.898 42.4644 74.2403C42.5656 74.5859 43.0238 74.9789 43.386 75.0542C44.1507 75.2027 45.1749 74.3797 45.3637 73.6131L45.3882 73.62ZM42.6792 68.5764C42.4849 68.1385 42.4098 67.4168 42.0981 67.3028C40.9683 66.8535 40.547 67.9779 39.9642 68.5943C39.7763 68.7928 39.9102 69.3988 40.0448 69.7671C40.105 69.9294 40.5285 70.0218 40.7874 70.0416C41.7703 70.1192 42.2413 69.5243 42.6792 68.5764Z" fill="#090909"/>
<path d="M140.461 75.0951C140.429 74.1739 140.444 73.2263 140.344 72.3124C140.052 69.7716 139.776 67.2221 139.364 64.6872C139.153 63.4119 139.982 62.6266 140.474 61.7204C141.034 60.7142 141.913 59.8902 142.664 59.0037C143.141 58.4368 143.528 58.6116 143.751 59.2295C143.964 59.7914 144.089 60.3818 144.273 60.9491C144.947 62.9758 145.665 64.9883 146.282 67.0257C146.511 67.7642 146.643 68.5678 146.603 69.3233C146.577 69.8846 146.366 70.5919 145.972 70.9574C144.494 72.314 142.893 73.5435 141.343 74.827C141.153 74.9853 140.972 75.1592 140.795 75.3209C140.682 75.2497 140.57 75.1786 140.461 75.0951Z" fill="#090909"/>
<path d="M132.913 62.7571C134.074 63.1888 134.895 63.5119 135.723 63.8105C137.405 64.4146 138.088 65.7961 138.242 67.4125C138.466 69.7228 138.566 72.0511 138.67 74.3671C138.678 74.7133 138.461 75.0622 138.337 75.4107C138 75.1972 137.657 75.0083 137.343 74.7615C135.862 73.6319 134.442 72.427 132.916 71.3641C132.307 70.9421 132.052 70.487 131.865 69.7868C131.52 68.4736 130.991 67.2016 130.518 65.9188C130.166 64.9606 129.754 64.0254 129.433 63.0496C129.24 62.4665 129.502 62.1436 130.136 62.2421C131.171 62.4138 132.213 62.6135 132.916 62.7449L132.913 62.7571Z" fill="#090909"/>
<path d="M137.069 62.4557C136.462 62.4043 136.086 62.4708 135.809 62.3269C133.817 61.2785 131.641 61.0246 129.44 60.8566C129.117 60.8319 128.694 60.5943 128.532 60.3241C127.524 58.5472 126.578 56.7351 125.617 54.9318C124.984 53.7494 125.076 53.6563 126.381 53.388C128.764 52.9066 131.004 53.4958 133.221 54.2635C133.619 54.4015 134.09 54.7455 134.253 55.1084C134.772 56.2721 135.145 57.4872 135.593 58.6704C136.032 59.838 136.499 61.0002 137.072 62.4434L137.069 62.4557Z" fill="#090909"/>
<path d="M44.3715 134.423C44.3465 133.57 44.8851 133.205 45.7377 133.088C47.8063 132.782 49.8437 132.918 51.7189 133.867C52.5741 134.306 53.2978 135.024 54.0038 135.712C54.1812 135.88 54.1823 136.489 54.0208 136.734C53.2553 137.908 52.453 139.07 51.5698 140.145C50.9492 140.896 50.0553 141.16 49.0734 140.938C48.4259 140.796 47.7489 140.711 47.1288 140.471C44.3929 139.386 44.1136 138.356 44.2032 135.446C44.2122 135.131 44.3139 134.816 44.3681 134.435L44.3715 134.423Z" fill="#090909"/>
<path d="M146.721 78.0418C146.639 79.0895 146.54 80.1459 146.482 81.2004C146.425 82.1098 146.188 82.5323 145.086 82.7385C143.716 83.0019 142.474 83.8958 141.165 84.5068C140.618 84.7629 140.047 84.9596 139.481 85.1843C139.498 84.6073 139.49 84.0234 139.543 83.4566C139.68 82.0276 139.768 80.5848 140.018 79.1745C140.154 78.4064 140.426 77.5309 140.924 76.9831C142.342 75.4642 143.877 74.0444 145.436 72.6839C146.294 71.9334 146.783 72.1235 146.905 73.2418C147.079 74.8372 147.063 76.4458 147.128 78.0504C146.983 78.0493 146.85 78.0517 146.705 78.0506L146.721 78.0418Z" fill="#090909"/>
<path d="M108.84 150.971C110.37 151.599 111.828 152.008 113.081 152.77C113.883 153.259 114.382 154.258 114.958 155.081C115.053 155.213 114.885 155.669 114.708 155.83C113.473 156.978 112.343 158.273 110.572 158.649C108.869 159.017 107.368 158.477 106.679 156.882C105.999 155.303 105.531 153.625 105.848 151.837C105.962 151.194 106.233 150.887 106.887 150.912C107.594 150.938 108.291 150.949 108.844 150.959L108.84 150.971Z" fill="#090909"/>
<path d="M132.586 52.0505C132.235 52.1238 131.91 52.2442 131.579 52.244C130.249 52.2275 128.909 52.1026 127.586 52.1542C126.825 52.1788 126.041 52.3817 125.338 52.6735C124.71 52.9334 124.391 52.7513 124.153 52.2349C123.366 50.4675 122.584 48.6879 121.857 46.8975C121.793 46.7474 122.112 46.2687 122.296 46.2276C124.776 45.7737 127.226 46.1836 129.644 46.7038C129.856 46.7501 130.123 46.9306 130.216 47.1155C130.978 48.5456 131.709 49.9933 132.452 51.4445C132.51 51.5666 132.509 51.7117 132.573 52.0471L132.586 52.0505Z" fill="#090909"/>
<path d="M29.1305 132.486C27.5574 132.203 26.5751 131.134 25.9396 129.819C25.4877 128.885 24.6965 127.936 25.2277 126.75C25.3298 126.528 25.5295 126.24 25.7286 126.19C28.706 125.426 31.4599 125.882 33.9444 127.769C34.5638 128.247 34.685 128.757 34.3297 129.411C33.9223 130.156 33.5693 130.942 33.0864 131.626C32.1885 132.895 30.8771 132.857 29.5383 132.587C29.4035 132.549 29.2653 132.524 29.127 132.498L29.1305 132.486Z" fill="#090909"/>
<path d="M138.245 84.8762C138.152 84.9693 137.97 85.2883 137.769 85.298C137.54 85.3131 137.2 85.1118 137.086 84.9078C136.006 82.8201 134.203 81.6134 132.184 80.6105C131.986 80.5153 131.822 80.1122 131.826 79.8622C131.896 77.9649 132.058 76.0672 132.116 74.1665C132.148 73.2503 132.631 73.227 133.214 73.5495C133.802 73.8597 134.365 74.2557 134.846 74.708C135.998 75.7849 137.092 76.9249 138.202 78.0562C138.346 78.2023 138.482 78.4255 138.471 78.6074C138.415 80.6409 138.32 82.6764 138.241 84.8884L138.245 84.8762Z" fill="#090909"/>
<path d="M89.6544 151.641C87.2919 150.78 85.2654 148.862 85.6487 146.696C85.7594 146.066 85.943 145.695 86.618 145.739C89.133 145.916 91.7139 145.622 94.0555 146.888C94.3658 147.054 94.6917 147.212 94.9637 147.42C96.5058 148.567 96.3789 149.113 95.0564 150.434C93.3997 152.097 91.4801 151.73 89.6387 151.65L89.6544 151.641Z" fill="#090909"/>
<path d="M130.752 43.8937C131.247 43.1203 131.786 42.2804 132.326 41.4404L132.482 41.1669C132.669 40.7832 132.847 40.3837 133.035 40C133.44 40.2988 133.896 40.5589 134.259 40.9122C134.53 41.1731 134.797 41.539 134.858 41.8867C135.161 43.5846 136.258 44.7649 137.335 45.9662C138.43 47.1989 138.45 47.7863 137.377 49.0186C136.797 49.6752 136.249 50.3543 135.701 51.0335C134.991 51.918 134.638 51.9511 134.053 51.0202C132.948 49.256 131.856 47.4953 130.862 45.6695C130.636 45.2492 130.802 44.6085 130.783 43.876L130.752 43.8937Z" fill="#090909"/>
<path d="M142.513 56.6208C142.274 57.003 142.093 57.3623 141.853 57.6519C140.986 58.7171 140.094 59.7755 139.218 60.8251C138.757 61.3832 138.236 61.4486 138.07 60.6749C137.565 58.3782 136.74 56.2298 135.688 54.1367C135.484 53.7356 136.037 52.8466 136.405 52.2889C136.841 51.6313 137.485 51.1247 137.967 50.4931C138.509 49.786 139.087 49.6574 139.542 50.3931C140.583 52.0999 141.514 53.8683 142.461 55.628C142.608 55.907 142.51 56.3026 142.529 56.612L142.513 56.6208Z" fill="#090909"/>
<path d="M44.6048 87.2015C43.5922 86.7586 41.5812 85.9166 39.5997 85.0167C39.2948 84.8782 39.1078 84.5085 38.8618 84.2543C39.1806 84.0133 39.4711 83.685 39.8359 83.5627C40.494 83.3376 41.1785 83.1596 41.8722 83.0899C42.3214 83.0441 42.9317 83.0832 43.2144 83.3477C44.9176 84.9097 46.9234 85.3934 49.1571 85.2536C49.2934 85.239 49.4772 85.2906 49.5783 85.2132C50.885 84.2315 51.7718 85.0753 52.716 85.8559C53.3918 86.4157 54.1509 86.8668 54.8457 87.4055C55.0844 87.5915 55.2293 87.923 55.4071 88.1844C55.1123 88.3396 54.8322 88.6311 54.5385 88.6413C51.5249 88.734 48.56 88.4174 44.6205 87.1927L44.6048 87.2015Z" fill="#090909"/>
<path d="M95.5464 137.009C96.2696 137.635 96.8621 137.973 97.2212 138.483C97.9833 139.583 98.6601 140.751 99.2967 141.922C99.4642 142.22 99.4717 142.711 99.3544 143.035C98.9506 144.191 98.4822 145.342 97.9805 146.47C97.7001 147.092 97.2147 147.22 96.5785 146.896C95.739 146.449 94.8474 146.093 94.0148 145.621C93.7291 145.462 93.3283 145.005 93.3868 144.797C94.0238 142.292 94.7499 139.799 95.5341 137.005L95.5464 137.009Z" fill="#090909"/>
<path d="M93.5047 136.937C93.5935 139.117 92.6825 140.95 91.8434 142.856C91.1566 144.408 90.2214 144.82 88.6808 144.374C88.3009 144.267 87.8488 144.418 87.4222 144.431C87.0482 144.445 86.6775 144.446 86.1216 144.449C86.6444 142.586 87.1259 140.871 87.6075 139.155L87.7723 138.897C89.578 138.069 91.1478 136.526 93.4925 136.933L93.5047 136.937Z" fill="#090909"/>
<path d="M24.9117 124.863C25.1792 122.968 25.4057 121.313 25.6637 119.641C25.6942 119.438 25.9081 119.194 26.0895 119.112C27.5117 118.52 28.9514 117.959 30.3912 117.398C30.8379 117.22 31.442 117.045 31.2675 117.856C30.8623 119.818 30.3713 121.755 29.868 123.689C29.7855 123.984 29.4798 124.413 29.2317 124.449C27.8584 124.632 26.4723 124.719 24.9152 124.851L24.9117 124.863Z" fill="#090909"/>
<path d="M96.3216 133.92C96.7277 132.897 97.0478 132.18 97.3032 131.459C97.593 130.615 98.1494 130.705 98.5677 131.193C99.7332 132.551 100.876 133.942 101.906 135.408C102.179 135.802 102.149 136.521 102.016 137.039C101.802 137.851 101.403 138.612 101.054 139.386C100.657 140.279 99.7542 140.436 99.1492 139.671C98.1573 138.401 97.1251 137.133 96.3249 135.745C96.0252 135.212 96.3096 134.34 96.3216 133.92Z" fill="#090909"/>
<path d="M51.671 124.521C51.2583 125.992 50.9647 127.509 50.4117 128.913C49.2681 131.858 49.2102 131.828 46.0794 131.915C44.8925 131.952 44.8626 131.917 45.1334 130.763C45.3905 129.659 45.6687 128.574 45.889 127.459C46.0479 126.658 46.4914 126.161 47.2383 125.855C48.5942 125.31 49.9359 124.721 51.283 124.161C51.4094 124.276 51.5358 124.391 51.6622 124.505L51.671 124.521Z" fill="#090909"/>
<path d="M34.2055 117.465C35.1113 118.618 36.0328 119.762 36.8915 120.942C37.034 121.141 36.9538 121.568 36.8713 121.862C36.4566 123.292 35.9841 124.693 35.5694 126.123C35.3699 126.834 34.9384 126.911 34.3635 126.604C33.524 126.157 32.6688 125.719 31.8778 125.193C31.6446 125.035 31.3889 124.58 31.4509 124.359C32.1553 122.085 32.9333 119.831 33.6902 117.558C33.8579 117.526 34.0379 117.497 34.209 117.453L34.2055 117.465Z" fill="#090909"/>
<path d="M56.806 129.783C56.2397 131.329 55.8031 132.555 55.3297 133.771C55.0862 134.403 54.659 134.653 54.0014 134.217C53.1192 133.639 52.2283 133.046 51.3099 132.55C50.7718 132.253 50.7303 131.977 50.9429 131.455C51.5788 129.849 52.1779 128.233 52.7648 126.613C53.0909 125.686 53.3665 125.552 54.0829 126.203C54.8958 126.933 55.6704 127.706 56.3596 128.547C56.6727 128.939 56.7297 129.537 56.8182 129.786L56.806 129.783Z" fill="#090909"/>
<path d="M128.501 44.8889C128.215 44.9672 128.054 45.0676 127.885 45.0596C125.877 44.9588 123.878 44.8737 121.869 44.7327C121.61 44.713 121.245 44.5049 121.122 44.2852C120.388 42.8497 120.875 40.0781 122.099 38.9674C122.346 38.746 123.078 38.6342 123.256 38.8029C124.986 40.5974 126.647 42.4516 128.308 44.3059C128.406 44.426 128.416 44.627 128.498 44.9012L128.501 44.8889Z" fill="#090909"/>
<path d="M118.724 149.621C117.938 150.868 117.223 152.002 116.508 153.137C116.178 153.652 115.894 153.533 115.513 153.148C114.819 152.465 114.045 151.877 113.352 151.193C113.093 150.936 112.752 150.457 112.828 150.187C113.275 148.594 113.829 147.044 114.362 145.475C114.591 144.799 115.088 144.82 115.495 145.251C116.449 146.233 117.381 147.248 118.261 148.301C118.539 148.631 118.577 149.157 118.715 149.605L118.724 149.621Z" fill="#090909"/>
<path d="M117.931 138.36C118.421 140.242 120.301 140.797 121.081 142.258C121.254 142.584 121.469 143.041 121.362 143.329C120.941 144.453 120.425 145.538 119.888 146.603C119.472 147.425 118.642 147.179 118.261 146.794C117.265 145.774 116.399 144.619 115.581 143.438C115.408 143.204 115.642 142.609 115.813 142.234C116.344 141.048 116.921 139.888 117.501 138.715C117.56 138.6 117.698 138.532 117.923 138.344L117.931 138.36Z" fill="#090909"/>
<path d="M54.6101 121.116C54.7993 120.442 54.9674 119.749 55.1811 119.082C55.4085 118.366 55.9694 118.299 56.4069 118.765C57.4666 119.935 58.4375 121.186 59.4276 122.416C59.5349 122.552 59.5641 122.824 59.5071 122.98C59.0127 124.176 58.4727 125.347 57.9694 126.528C57.5683 127.486 57.1824 127.589 56.4376 126.851C55.909 126.333 55.4151 125.784 54.9022 125.257C54.008 124.345 53.6885 123.317 54.2546 122.101C54.3964 121.784 54.4437 121.427 54.54 121.084L54.6136 121.104L54.6101 121.116Z" fill="#090909"/>
<path d="M33.6818 110.152C34.0091 112.094 32.9252 114.355 31.3642 115.159C30.1136 115.8 28.8454 116.409 27.563 116.974C26.7779 117.322 26.2838 117.105 26.5399 116.145C26.818 115.06 27.1085 113.978 27.5057 112.94C27.6526 112.558 28.0651 112.171 28.4525 112.015C30.1453 111.354 31.8753 110.795 33.6906 110.168L33.6818 110.152Z" fill="#090909"/>
<path d="M128.812 36.7668C129.753 37.3218 130.708 37.8279 131.608 38.4374C131.817 38.5885 131.968 39.1333 131.859 39.3803C131.342 40.61 130.715 41.8088 130.127 43.0057C129.816 43.6453 129.463 43.6784 129.063 43.0771C127.91 41.3918 126.757 39.7065 125.569 38.0512C125.362 37.7549 124.952 37.6135 124.666 37.3613C124.497 37.2082 124.398 36.9954 124.264 36.8124C124.456 36.6944 124.66 36.4872 124.857 36.4897C126.162 36.5518 127.456 36.6507 128.831 36.7457L128.812 36.7668Z" fill="#090909"/>
<path d="M113.199 144.064C112.303 145.889 111.445 147.723 110.483 149.502C110.316 149.812 109.712 149.986 109.291 150.027C108.706 150.087 108.088 149.887 107.497 149.92C106.548 149.957 106.428 149.488 106.601 148.73C106.828 147.736 107.033 146.723 107.283 145.735C107.345 145.515 107.466 145.179 107.641 145.122C109.349 144.544 111.003 143.739 112.862 143.758C112.979 143.857 113.093 143.969 113.211 144.068L113.199 144.064Z" fill="#090909"/>
<path d="M108.299 142.954C108.793 141.665 109.124 140.343 109.784 139.219C110.566 137.892 112.125 137.801 113.482 137.441C113.712 137.374 113.971 137.394 114.219 137.358C115.257 137.239 115.557 137.535 115.27 138.512C114.993 139.452 114.651 140.387 114.288 141.303C114.185 141.578 113.943 141.92 113.697 141.997C112.138 142.418 110.559 142.768 108.977 143.131C108.837 143.157 108.658 143.041 108.315 142.945L108.299 142.954Z" fill="#090909"/>
<path d="M95.0923 132.742C94.9582 133.22 94.8608 133.708 94.6811 134.16C94.5878 134.398 94.3881 134.686 94.163 134.781C92.5785 135.434 90.9819 136.083 89.3656 136.661C88.4231 137.004 88.2193 136.788 88.3493 135.807C88.4168 135.284 88.5559 134.741 88.4905 134.22C88.3149 132.915 89.1486 132.488 90.1543 132.202C91.3625 131.854 92.5795 131.521 93.7985 131.229C94.2526 131.118 94.7457 131.151 95.2159 131.124C95.2465 131.675 95.2647 132.222 95.2953 132.773L95.0923 132.742Z" fill="#090909"/>
<path d="M36.0348 111.183C36.9214 112.358 37.6748 113.442 38.5292 114.448C39.3061 115.354 39.5248 116.129 38.6535 117.114C38.2831 117.539 38.1777 118.196 37.9793 118.762C37.7966 119.319 37.5225 119.401 37.054 119.044C34.6592 117.262 34.1284 114.019 36.0348 111.183Z" fill="#090909"/>
<path d="M53.1141 119.097C53.1088 121.329 52.2731 122.469 50.3499 123.199C49.5976 123.477 48.9163 123.973 48.1783 124.295C47.3338 124.666 46.7689 124.229 46.8748 123.334C47.035 122.057 47.6371 121.089 48.9077 120.613C50.1537 120.13 51.3944 119.619 52.6405 119.135C52.7591 119.089 52.9096 119.118 53.1229 119.112L53.1141 119.097Z" fill="#090909"/>
<path d="M46.6802 84.3728C46.1627 84.0028 45.5859 83.6558 45.0856 83.2246C44.2359 82.4837 44.2783 82.1916 45.1103 81.3939C45.542 80.9863 45.8805 80.4865 46.2823 80.044C46.8372 79.433 47.2799 79.5044 47.654 80.2439C47.984 80.905 48.3611 81.5396 48.7504 82.1777C49.4165 83.29 49.008 84.1801 47.6994 84.368C47.3954 84.4149 47.0788 84.3657 46.6802 84.3728Z" fill="#090909"/>
<path d="M52.1891 70.0164C51.2563 70.561 50.4142 71.0649 49.5457 71.5218C49.53 71.5306 49.0798 70.968 49.0486 70.6552C49.0097 70.1816 49.1 69.2947 49.252 69.2713C50.0468 69.1242 50.8792 69.1728 51.6959 69.2302C51.8254 69.2401 51.9266 69.5858 52.1891 70.0164Z" fill="#090909"/>
<path d="M73.0685 75.3745C72.6338 75.8871 72.2114 76.403 71.5594 77.1718C71.3878 76.3702 71.0328 75.6095 71.233 75.4145C71.5671 75.0721 72.2647 75.0828 72.8026 74.9562C72.8942 75.1008 72.9769 75.2298 73.0685 75.3745Z" fill="#090909"/>
<path d="M118.906 126.695C117.852 126.4 117.03 125.23 117.301 124.407C117.487 123.838 118.804 123.243 119.454 123.425C120.14 123.618 120.937 125.111 120.747 125.837C120.578 126.438 119.617 126.895 118.906 126.695Z" fill="#090909"/>
<path d="M136.77 97.0078C136.338 98.4067 135.691 98.873 134.905 98.6127C134.25 98.4024 133.85 97.2854 134.103 96.431C134.305 95.7605 135.34 95.1787 135.896 95.5992C136.374 95.9711 136.585 96.6782 136.782 97.0112L136.77 97.0078Z" fill="#090909"/>
<path d="M115.931 104.089C115.254 103.912 114.572 103.654 114.877 102.616C115.125 101.734 116.054 101.109 116.785 101.327C117.787 101.622 118.343 102.465 118.097 103.295C117.825 104.171 117.169 104.436 115.931 104.089Z" fill="#090909"/>
<path d="M71.3158 98.0031C71.0961 98.8801 70.1065 99.2501 68.8654 98.9149C67.8728 98.6363 67.4114 97.9252 67.6747 97.034C67.974 95.9679 69.1314 95.2352 70.0942 95.479C70.9554 95.7075 71.5767 96.9791 71.3192 97.9909L71.3158 98.0031Z" fill="#090909"/>
<path d="M100.921 114.099C101.91 114.39 102.494 115.466 102.189 116.412C101.951 117.165 100.831 117.432 99.4711 117.05C98.6746 116.827 98.2739 116.37 98.5406 115.467C98.9592 114.117 99.6409 113.714 100.908 114.096L100.921 114.099Z" fill="#090909"/>
<path d="M54.8582 105.348C54.669 106.022 53.139 106.717 52.3582 106.484C51.4915 106.228 51.0435 105.375 51.2946 104.48C51.5973 103.402 52.2495 103.056 53.4049 103.367C54.471 103.667 55.0955 104.503 54.8582 105.348Z" fill="#090909"/>
<path d="M89.9466 100.019C90.177 99.1984 90.9308 98.8679 91.4708 99.2046C91.9653 99.5152 92.3697 100.382 92.3551 100.999C92.3364 101.867 91.4223 102.298 90.6449 102.053C89.8675 101.808 89.637 101.122 89.9588 100.023L89.9466 100.019Z" fill="#090909"/>
<path d="M76.8573 113.07C76.0853 112.853 75.771 112.183 76.0117 111.325C76.2628 110.431 76.9151 110.085 77.7851 110.329C78.7042 110.587 79.1181 111.232 78.9121 112.06C78.6684 113.023 77.9636 113.367 76.8573 113.07Z" fill="#090909"/>
<path d="M42.9675 95.0573C42.7719 95.8485 41.968 96.3103 41.2117 96.0848C40.4186 95.8489 40.2322 95.2414 40.4141 94.4993C40.5822 93.8061 41.4679 93.288 42.1595 93.5086C42.9492 93.7566 43.0762 94.3872 42.9552 95.0539L42.9675 95.0573Z" fill="#090909"/>
<path d="M43.2858 52.6184C42.7568 52.7608 42.3345 52.9463 41.9168 52.9745C40.4136 53.0549 39.7824 54.1733 40.5195 55.5038C40.6693 55.7706 40.8 56.0585 40.9641 56.3689C40.0792 57.0724 39.1973 56.9174 38.3199 56.605C37.0941 56.1684 36.1148 54.9946 36.1085 54.0278C36.1044 52.7708 36.8463 51.776 38.2336 51.2136C40.7429 50.1861 42.0434 50.4982 43.2947 52.6341L43.2858 52.6184Z" fill="#090909"/>
<path d="M69.1381 58.857C69.8751 59.434 70.7445 59.916 71.2985 60.6267C71.8349 61.306 71.5165 61.6397 70.6463 61.7259C70.0731 61.7898 69.0739 61.9588 69.0262 62.223C68.8899 62.9912 68.9344 63.9158 69.2698 64.6049C69.8804 65.8206 69.7722 66.2529 68.4028 66.5163C66.67 66.8496 64.4915 65.7093 64.0695 64.0574C63.7491 62.8438 64.121 61.613 65.0016 60.7365C65.7516 59.9952 66.1633 58.6698 67.6031 58.8624C68.0614 58.9249 68.5041 58.9963 68.9624 59.0588L69.1415 58.8447L69.1381 58.857Z" fill="#090909"/>
</g>
<defs>
<clipPath id="clip0_4982_10256">
<rect width="144.054" height="134.508" fill="white" transform="translate(36.3477) rotate(15.6783)"/>
</clipPath>
</defs>
</svg>
