<svg width="73" height="59" viewBox="0 0 73 59" fill="none" xmlns="http://www.w3.org/2000/svg">
<path d="M68.0164 15.6749C68.0164 15.6749 71.3546 29.657 68.0164 37.5787C65.2185 44.2183 62.0383 47.8627 55.6586 51.5175C50.6209 54.4035 47.0968 55.5 41.2411 55.5C35.3855 55.5 31.6312 54.7496 26.8237 51.5175C22.5953 48.6747 20.2338 46.2785 18.5852 41.5612C17.0404 37.1409 17.2176 33.5962 18.5885 29.6137C19.8584 25.9245 21.2598 23.9617 24.7254 21.989C35.2199 16.0152 42.7248 25.6312 42.7248 25.6312M4.98365 43.3251C4.98365 43.3251 1.64544 29.343 4.98365 21.4213C7.78154 14.7817 10.9617 11.1373 17.3414 7.48251C22.3791 4.59653 25.9032 3.5 31.7589 3.5C37.6145 3.5 41.3688 4.25038 46.1763 7.48251C50.4047 10.3253 52.7662 12.7215 54.4148 17.4388C55.9596 21.8591 55.7824 25.4038 54.4115 29.3863C53.1416 33.0755 51.7402 35.0383 48.2746 37.011C37.7801 42.9848 30.2752 33.3688 30.2752 33.3688" stroke="#018ABE" stroke-width="6"/>
</svg>
