<svg width="202" height="51" viewBox="0 0 202 51" fill="none" xmlns="http://www.w3.org/2000/svg">
<path fill-rule="evenodd" clip-rule="evenodd" d="M26.7529 16.0379H35.1204V41.8928H53.4939L48.923 50.1181H26.7529V16.0379ZM28.4028 17.6888V48.4671H47.9526L50.6886 43.5438H33.4705V17.6888H28.4028Z" fill="white"/>
<path d="M56.0982 37.3822H50.9127V39.387H69.4156L70.8299 41.6275H67.0586L66.2336 43.1605H73.5405L67.0586 31.0143L63.8765 37.3822H58.4553L67.0586 20.0473L81.4366 47.9954H58.4553L57.7482 49.8822H84.6187L79.1974 39.387H81.7902V37.6181H78.1367L67.0586 16.0379L56.0982 37.3822Z" fill="white"/>
<path d="M68.3548 37.2643H65.762L67.0066 34.67L68.3548 37.2643Z" fill="#F2F2F2"/>
<path d="M0 50V16.0378H14.7706C15.5243 16.0378 16.272 16.1718 16.9788 16.4338C18.3812 16.9535 19.7363 17.6332 20.7911 18.694C22.608 20.5213 24.679 23.4255 24.7491 26.651C24.8434 30.9906 20.3886 35.7705 18.1494 37.7359L16.1459 39.6227L13.9067 41.5094L7.89615 35.8491L15.4012 28.1186C15.7276 27.7824 15.9102 27.3322 15.9102 26.8635C15.9102 26.3529 15.6936 25.8663 15.3143 25.5247L15.2771 25.4912C14.9259 25.175 14.4702 25 13.9978 25H8.72112V29.4811L6.95333 31.0142V23.5849H14.6551C15.454 23.5849 16.2153 23.9242 16.7498 24.5184C16.8966 24.6817 17.0253 24.8609 17.1232 25.0576C17.3664 25.5463 17.6779 26.2675 17.6779 26.651C17.6779 28.1088 16.5615 29.31 15.54 30.3495L10.1354 35.8491L13.9067 39.3868C16.9315 36.989 22.9813 31.0849 22.9813 26.651C22.9813 22.8221 19.4661 19.8902 16.9889 18.4779C16.2936 18.0814 15.4963 17.9245 14.696 17.9245H1.64994V48.3491H6.95333V42.217L8.95683 44.2217V50H0Z" fill="white"/>
<path d="M88.6255 16.0378H86.5042C87.2113 17.1384 88.6255 20.0472 88.6255 22.8774C88.6255 25.4595 86.8597 31.3137 85.7446 34.6187C85.5471 35.2043 85.3855 35.8 85.2699 36.4069L84.9721 37.9717L84.6185 40.5661C84.6185 42.0553 84.7814 43.5402 85.1044 44.9945L85.3256 45.9906L86.5042 49.8821H88.6255C88.3112 49.0959 87.5884 47.217 87.2113 45.9906C86.7399 44.4576 86.3863 42.217 86.3863 40.5661C86.3863 39.7977 86.6256 38.5931 86.849 37.4954C87.1182 36.1725 87.4617 34.8586 87.9003 33.5812C88.9942 30.3952 90.3933 25.6356 90.3933 22.8774C90.3933 19.4811 89.2148 16.9025 88.6255 16.0378Z" fill="white"/>
<path d="M93.8107 16.0378H91.6893C92.3964 17.1384 93.8107 20.0472 93.8107 22.8774C93.8107 25.4595 92.0448 31.3137 90.9298 34.6187C90.7322 35.2043 90.5706 35.8 90.4551 36.4069L90.1572 37.9717L89.8036 40.5661C89.8036 42.0553 89.9666 43.5402 90.2896 44.9945L90.5108 45.9906L91.6893 49.8821H93.8107C93.4964 49.0959 92.7736 47.217 92.3964 45.9906C91.925 44.4576 91.5714 42.217 91.5714 40.5661C91.5714 39.7977 91.8107 38.5931 92.0341 37.4954C92.3033 36.1725 92.6469 34.8586 93.0854 33.5812C94.1793 30.3952 95.5785 25.6356 95.5785 22.8774C95.5785 19.4811 94.3999 16.9025 93.8107 16.0378Z" fill="white"/>
<path d="M99.232 16.0378H97.1106C97.8178 17.1384 99.232 20.0472 99.232 22.8774C99.232 25.4595 97.4662 31.3137 96.3511 34.6187C96.1535 35.2043 95.992 35.8 95.8764 36.4069L95.5786 37.9717L95.225 40.5661C95.225 42.0553 95.3879 43.5402 95.7109 44.9945L95.9321 45.9906L97.1106 49.8821H99.232C98.9177 49.0959 98.1949 47.217 97.8178 45.9906C97.3464 44.4576 96.9928 42.217 96.9928 40.5661C96.9928 39.7977 97.2321 38.5931 97.4555 37.4954C97.7247 36.1725 98.0682 34.8586 98.5068 33.5812C99.6006 30.3952 101 25.6356 101 22.8774C101 19.4811 99.8213 16.9025 99.232 16.0378Z" fill="white"/>
<path d="M83.4399 8.13679C83.4399 9.55189 84.2256 10.5739 84.5006 10.967L85.9148 10.1415C85.797 9.86635 85.1841 9.31604 85.0899 8.37264C84.972 7.1934 85.2077 6.13208 85.797 4.95283C86.3862 3.77358 86.8576 3.18396 88.2719 2.35849C89.6861 1.53302 90.1624 1.65135 91.5718 1.76887C92.9811 1.88639 94.2824 2.71226 94.8717 3.30189C95.4609 3.89151 95.8145 4.48113 95.8145 5.3066C95.8145 6.03694 95.4696 6.74246 95.0143 7.31576C94.6982 7.71388 94.2639 8.07333 93.6931 8.13679C92.9903 8.21493 92.161 7.78302 91.8075 7.54717L90.7468 8.84434C91.4539 9.31604 92.4203 9.66981 92.986 9.66981C94.2824 9.66981 95.0656 9.59371 96.0502 8.60849C96.4841 8.17432 97.4644 6.7217 97.4644 5.3066C97.4644 3.89151 96.993 3.06604 95.6966 1.76887C94.0467 0.117924 91.9253 0 91.1004 0C88.979 0 88.2719 0.286388 87.3291 0.825472C87.1711 0.915765 87.0229 1.00749 86.8835 1.10038C84.7054 2.55071 83.5704 5.24324 83.4471 7.84615C83.4424 7.94499 83.4399 8.04204 83.4399 8.13679Z" fill="white"/>
<path d="M100.765 5.18868C100.765 3.77359 99.979 2.75157 99.704 2.35849L98.2898 3.18396C98.4076 3.45912 99.0205 4.00944 99.1147 4.95283C99.2326 6.13208 98.9969 7.1934 98.4076 8.37264C97.8184 9.55189 97.3469 10.1415 95.9327 10.967C94.5185 11.7925 94.0422 11.6741 92.6328 11.5566C91.2235 11.4391 89.9222 10.6132 89.3329 10.0236C88.7437 9.43396 88.3901 8.84434 88.3901 8.01887C88.3901 7.28853 88.735 6.58301 89.1902 6.00972C89.5064 5.61159 89.9407 5.25214 90.5115 5.18868C91.2143 5.11055 92.0436 5.54245 92.3971 5.7783L93.4578 4.48113C92.7507 4.00944 91.7843 3.65566 91.2186 3.65566C89.9222 3.65566 89.139 3.73176 88.1544 4.71698C87.7205 5.15116 86.7402 6.60378 86.7402 8.01887C86.7402 9.43396 87.2116 10.2594 88.508 11.5566C90.1579 13.2076 92.2793 13.3255 93.1042 13.3255C95.2256 13.3255 95.9327 13.0391 96.8755 12.5C97.0334 12.4097 97.1816 12.318 97.3211 12.2251C99.4992 10.7748 100.634 8.08224 100.758 5.47932C100.762 5.38048 100.765 5.28343 100.765 5.18868Z" fill="white"/>
<path d="M110.104 31V22.6H111.964L114.256 28.168H114.352L116.632 22.6H118.492V31H117.244V24.172H117.172L114.82 29.824H113.776L111.424 24.172H111.352V31H110.104ZM120.578 31V24.76H121.754V29.08H121.802L125.102 24.76H126.266V31H125.09V26.476H125.042L121.622 31H120.578ZM130.99 31.084C130.526 31.084 130.098 31.008 129.706 30.856C129.322 30.704 128.994 30.492 128.722 30.22C128.45 29.94 128.234 29.608 128.074 29.224C127.922 28.832 127.846 28.404 127.846 27.94V27.808C127.846 27.344 127.922 26.924 128.074 26.548C128.234 26.164 128.454 25.832 128.734 25.552C129.014 25.272 129.342 25.056 129.718 24.904C130.102 24.752 130.518 24.676 130.966 24.676H131.038C131.654 24.676 132.186 24.812 132.634 25.084C133.082 25.356 133.434 25.716 133.69 26.164L132.766 26.74C132.59 26.412 132.358 26.16 132.07 25.984C131.782 25.8 131.434 25.708 131.026 25.708H131.002C130.714 25.708 130.45 25.756 130.21 25.852C129.97 25.948 129.766 26.088 129.598 26.272C129.438 26.456 129.314 26.68 129.226 26.944C129.138 27.208 129.094 27.504 129.094 27.832V27.928C129.094 28.248 129.142 28.54 129.238 28.804C129.334 29.068 129.47 29.292 129.646 29.476C129.822 29.66 130.03 29.804 130.27 29.908C130.518 30.004 130.786 30.052 131.074 30.052H131.11C131.526 30.052 131.874 29.956 132.154 29.764C132.442 29.564 132.666 29.32 132.826 29.032L133.726 29.644C133.454 30.084 133.094 30.436 132.646 30.7C132.206 30.956 131.682 31.084 131.074 31.084H130.99ZM136.298 31V25.792H134.306V24.76H139.478V25.792H137.486V31H136.298ZM143.131 31.096C142.667 31.096 142.243 31.02 141.859 30.868C141.475 30.716 141.143 30.504 140.863 30.232C140.591 29.952 140.375 29.624 140.215 29.248C140.063 28.872 139.987 28.46 139.987 28.012V27.856C139.987 27.4 140.063 26.976 140.215 26.584C140.375 26.192 140.595 25.856 140.875 25.576C141.155 25.288 141.487 25.068 141.871 24.916C142.255 24.756 142.675 24.676 143.131 24.676H143.167C143.591 24.676 143.979 24.748 144.331 24.892C144.691 25.028 144.999 25.224 145.255 25.48C145.519 25.736 145.723 26.044 145.867 26.404C146.011 26.756 146.083 27.144 146.083 27.568V28.312H141.199C141.231 28.568 141.299 28.8 141.403 29.008C141.515 29.216 141.659 29.396 141.835 29.548C142.011 29.692 142.215 29.808 142.447 29.896C142.687 29.984 142.943 30.028 143.215 30.028H143.239C143.655 30.028 144.027 29.944 144.355 29.776C144.691 29.608 144.947 29.4 145.123 29.152L145.891 29.836C145.747 30.028 145.575 30.204 145.375 30.364C145.175 30.524 144.955 30.656 144.715 30.76C144.475 30.864 144.227 30.944 143.971 31C143.715 31.064 143.451 31.096 143.179 31.096H143.131ZM141.235 27.388H144.931C144.915 27.132 144.859 26.904 144.763 26.704C144.667 26.496 144.539 26.32 144.379 26.176C144.219 26.024 144.031 25.908 143.815 25.828C143.599 25.74 143.363 25.696 143.107 25.696C142.859 25.696 142.627 25.736 142.411 25.816C142.203 25.896 142.019 26.012 141.859 26.164C141.699 26.308 141.563 26.484 141.451 26.692C141.347 26.9 141.275 27.132 141.235 27.388ZM152.915 32.536V31H147.683V24.76H148.871V29.992H152.015V24.76H153.203V29.992H154.055V32.536H152.915ZM155.336 31V24.76H156.524V26.848H158.192C158.504 26.848 158.792 26.9 159.056 27.004C159.328 27.1 159.56 27.236 159.752 27.412C159.952 27.588 160.108 27.796 160.22 28.036C160.332 28.276 160.388 28.54 160.388 28.828V29.02C160.388 29.308 160.332 29.572 160.22 29.812C160.116 30.052 159.964 30.26 159.764 30.436C159.564 30.612 159.328 30.752 159.056 30.856C158.792 30.952 158.5 31 158.18 31H155.336ZM156.512 30.004H158.12C158.424 30.004 158.676 29.908 158.876 29.716C159.076 29.524 159.176 29.284 159.176 28.996V28.852C159.176 28.556 159.076 28.316 158.876 28.132C158.676 27.94 158.424 27.844 158.12 27.844H156.512V30.004ZM161.757 31V24.76H162.945V27.436H163.029L165.789 24.76H167.181L164.145 27.664L167.313 31H165.813L163.029 27.976H162.945V31H161.757ZM170.81 31.096C170.346 31.096 169.922 31.02 169.538 30.868C169.154 30.716 168.822 30.504 168.542 30.232C168.27 29.952 168.054 29.624 167.894 29.248C167.742 28.872 167.666 28.46 167.666 28.012V27.856C167.666 27.4 167.742 26.976 167.894 26.584C168.054 26.192 168.274 25.856 168.554 25.576C168.834 25.288 169.166 25.068 169.55 24.916C169.934 24.756 170.354 24.676 170.81 24.676H170.846C171.27 24.676 171.658 24.748 172.01 24.892C172.37 25.028 172.678 25.224 172.934 25.48C173.198 25.736 173.402 26.044 173.546 26.404C173.69 26.756 173.762 27.144 173.762 27.568V28.312H168.878C168.91 28.568 168.978 28.8 169.082 29.008C169.194 29.216 169.338 29.396 169.514 29.548C169.69 29.692 169.894 29.808 170.126 29.896C170.366 29.984 170.622 30.028 170.894 30.028H170.918C171.334 30.028 171.706 29.944 172.034 29.776C172.37 29.608 172.626 29.4 172.802 29.152L173.57 29.836C173.426 30.028 173.254 30.204 173.054 30.364C172.854 30.524 172.634 30.656 172.394 30.76C172.154 30.864 171.906 30.944 171.65 31C171.394 31.064 171.13 31.096 170.858 31.096H170.81ZM168.914 27.388H172.61C172.594 27.132 172.538 26.904 172.442 26.704C172.346 26.496 172.218 26.32 172.058 26.176C171.898 26.024 171.71 25.908 171.494 25.828C171.278 25.74 171.042 25.696 170.786 25.696C170.538 25.696 170.306 25.736 170.09 25.816C169.882 25.896 169.698 26.012 169.538 26.164C169.378 26.308 169.242 26.484 169.13 26.692C169.026 26.9 168.954 27.132 168.914 27.388Z" fill="white"/>
<path d="M112.816 48.096C112.344 48.096 111.912 48.016 111.52 47.856C111.128 47.696 110.788 47.48 110.5 47.208C110.22 46.928 110 46.596 109.84 46.212C109.68 45.828 109.6 45.404 109.6 44.94V44.82C109.6 44.356 109.68 43.932 109.84 43.548C110 43.164 110.22 42.836 110.5 42.564C110.788 42.284 111.128 42.064 111.52 41.904C111.912 41.744 112.344 41.664 112.816 41.664H112.888C113.352 41.664 113.78 41.744 114.172 41.904C114.572 42.064 114.912 42.284 115.192 42.564C115.48 42.836 115.7 43.164 115.852 43.548C116.012 43.932 116.092 44.356 116.092 44.82V44.94C116.092 45.404 116.012 45.828 115.852 46.212C115.7 46.596 115.48 46.928 115.192 47.208C114.912 47.48 114.572 47.696 114.172 47.856C113.78 48.016 113.352 48.096 112.888 48.096H112.816ZM112.828 47.064H112.864C113.16 47.064 113.428 47.012 113.668 46.908C113.916 46.804 114.124 46.66 114.292 46.476C114.468 46.284 114.604 46.056 114.7 45.792C114.804 45.528 114.856 45.24 114.856 44.928V44.832C114.856 44.52 114.804 44.232 114.7 43.968C114.604 43.704 114.468 43.48 114.292 43.296C114.124 43.104 113.916 42.956 113.668 42.852C113.428 42.748 113.16 42.696 112.864 42.696H112.828C112.54 42.696 112.272 42.748 112.024 42.852C111.784 42.956 111.576 43.104 111.4 43.296C111.224 43.48 111.088 43.704 110.992 43.968C110.896 44.232 110.848 44.52 110.848 44.832V44.928C110.848 45.24 110.896 45.528 110.992 45.792C111.088 46.056 111.224 46.284 111.4 46.476C111.576 46.66 111.784 46.804 112.024 46.908C112.272 47.012 112.54 47.064 112.828 47.064ZM120.527 48.096C120.007 48.096 119.547 48.004 119.147 47.82C118.747 47.636 118.407 47.368 118.127 47.016C117.855 46.664 117.647 46.228 117.503 45.708C117.367 45.188 117.299 44.588 117.299 43.908C117.299 43.236 117.367 42.644 117.503 42.132C117.639 41.612 117.835 41.168 118.091 40.8C118.355 40.424 118.679 40.12 119.063 39.888C119.447 39.648 119.887 39.48 120.383 39.384C120.615 39.336 120.855 39.296 121.103 39.264C121.359 39.232 121.603 39.208 121.835 39.192C122.075 39.168 122.303 39.152 122.519 39.144C122.735 39.136 122.919 39.132 123.071 39.132V40.296C122.855 40.296 122.639 40.304 122.423 40.32C122.207 40.328 121.991 40.344 121.775 40.368C121.567 40.384 121.359 40.404 121.151 40.428C120.943 40.452 120.747 40.484 120.563 40.524C120.227 40.588 119.927 40.688 119.663 40.824C119.407 40.952 119.183 41.124 118.991 41.34C118.807 41.556 118.659 41.82 118.547 42.132C118.435 42.444 118.359 42.808 118.319 43.224C118.439 43.008 118.579 42.812 118.739 42.636C118.899 42.46 119.079 42.308 119.279 42.18C119.479 42.044 119.699 41.94 119.939 41.868C120.179 41.796 120.431 41.76 120.695 41.76H120.779C121.203 41.76 121.591 41.836 121.943 41.988C122.295 42.14 122.595 42.352 122.843 42.624C123.099 42.896 123.295 43.216 123.431 43.584C123.575 43.952 123.647 44.356 123.647 44.796V45.048C123.647 45.488 123.567 45.896 123.407 46.272C123.255 46.64 123.043 46.96 122.771 47.232C122.499 47.496 122.179 47.708 121.811 47.868C121.443 48.02 121.043 48.096 120.611 48.096H120.527ZM120.515 47.052H120.575C120.847 47.052 121.095 47.004 121.319 46.908C121.543 46.804 121.739 46.664 121.907 46.488C122.075 46.312 122.203 46.1 122.291 45.852C122.387 45.604 122.435 45.336 122.435 45.048V44.784C122.435 44.496 122.391 44.228 122.303 43.98C122.215 43.732 122.087 43.52 121.919 43.344C121.759 43.16 121.567 43.02 121.343 42.924C121.119 42.82 120.867 42.768 120.587 42.768H120.551C120.279 42.768 120.023 42.824 119.783 42.936C119.551 43.04 119.351 43.184 119.183 43.368C119.015 43.552 118.883 43.768 118.787 44.016C118.691 44.264 118.643 44.536 118.643 44.832V45.06C118.643 45.348 118.691 45.616 118.787 45.864C118.883 46.104 119.011 46.312 119.171 46.488C119.339 46.664 119.539 46.804 119.771 46.908C120.003 47.004 120.251 47.052 120.515 47.052ZM124.313 42.756L125.357 39.6H126.569L125.285 42.756H124.313ZM129.608 48.084C129.136 48.084 128.704 48.008 128.312 47.856C127.928 47.704 127.596 47.492 127.316 47.22C127.036 46.94 126.816 46.608 126.656 46.224C126.504 45.832 126.428 45.404 126.428 44.94V44.808C126.428 44.344 126.504 43.924 126.656 43.548C126.816 43.164 127.036 42.832 127.316 42.552C127.604 42.272 127.94 42.056 128.324 41.904C128.708 41.752 129.128 41.676 129.584 41.676H129.656C130.272 41.676 130.804 41.812 131.252 42.084C131.708 42.356 132.064 42.716 132.32 43.164L131.396 43.74C131.22 43.412 130.984 43.16 130.688 42.984C130.392 42.8 130.036 42.708 129.62 42.708H129.608C129.304 42.708 129.032 42.756 128.792 42.852C128.552 42.948 128.348 43.088 128.18 43.272C128.012 43.456 127.884 43.68 127.796 43.944C127.708 44.208 127.664 44.504 127.664 44.832V44.928C127.664 45.248 127.712 45.54 127.808 45.804C127.912 46.068 128.052 46.292 128.228 46.476C128.404 46.66 128.616 46.804 128.864 46.908C129.112 47.004 129.384 47.052 129.68 47.052H129.716C130.14 47.052 130.496 46.956 130.784 46.764C131.072 46.564 131.296 46.32 131.456 46.032L132.356 46.644C132.084 47.084 131.724 47.436 131.276 47.7C130.828 47.956 130.3 48.084 129.692 48.084H129.608ZM127.22 45.336V44.412H130.58V45.336H127.22ZM132.875 49.536V46.992H133.403C133.643 46.8 133.819 46.28 133.931 45.432C134.043 44.576 134.099 43.352 134.099 41.76H138.779V46.992H139.607V49.536H138.467V48H134.015V49.536H132.875ZM134.615 46.992H137.591V42.768H135.239C135.215 44.04 135.147 45.02 135.035 45.708C134.931 46.396 134.791 46.824 134.615 46.992ZM140.91 48V41.76H142.062V44.232H145.278V41.76H146.466V48H145.278V45.252H142.062V48H140.91ZM150.161 48.108C149.841 48.108 149.545 48.064 149.273 47.976C149.009 47.88 148.781 47.752 148.589 47.592C148.397 47.424 148.245 47.228 148.133 47.004C148.029 46.772 147.977 46.516 147.977 46.236V46.176C147.977 45.504 148.293 45 148.925 44.664C149.557 44.32 150.505 44.148 151.769 44.148H152.309V43.8C152.309 43.456 152.185 43.188 151.937 42.996C151.689 42.804 151.341 42.708 150.893 42.708H150.869C150.533 42.708 150.177 42.764 149.801 42.876C149.433 42.988 149.101 43.148 148.805 43.356L148.289 42.456C148.681 42.2 149.097 42 149.537 41.856C149.985 41.712 150.449 41.64 150.929 41.64H150.977C151.321 41.64 151.645 41.688 151.949 41.784C152.253 41.872 152.513 42.004 152.729 42.18C152.953 42.356 153.129 42.58 153.257 42.852C153.393 43.116 153.461 43.424 153.461 43.776V46.848C153.461 47.04 153.481 47.24 153.521 47.448C153.561 47.648 153.613 47.832 153.677 48H152.501C152.461 47.912 152.429 47.8 152.405 47.664C152.381 47.52 152.361 47.38 152.345 47.244C152.041 47.524 151.705 47.74 151.337 47.892C150.969 48.036 150.577 48.108 150.161 48.108ZM150.317 47.064C150.717 47.064 151.089 46.984 151.433 46.824C151.777 46.664 152.069 46.456 152.309 46.2V45.048H151.913C150.961 45.048 150.261 45.14 149.813 45.324C149.373 45.5 149.153 45.776 149.153 46.152V46.188C149.153 46.316 149.181 46.436 149.237 46.548C149.293 46.652 149.373 46.744 149.477 46.824C149.581 46.896 149.701 46.956 149.837 47.004C149.981 47.044 150.141 47.064 150.317 47.064ZM155.418 48V41.76H156.57V44.232H159.786V41.76H160.974V48H159.786V45.252H156.57V48H155.418ZM162.953 48V41.76H164.105V44.232H167.321V41.76H168.509V48H167.321V45.252H164.105V48H162.953ZM172.3 45.756L171.604 45.612C171.172 45.468 170.824 45.248 170.56 44.952C170.296 44.648 170.164 44.284 170.164 43.86V43.668C170.164 43.388 170.216 43.132 170.32 42.9C170.432 42.668 170.584 42.468 170.776 42.3C170.976 42.132 171.208 42 171.472 41.904C171.744 41.808 172.04 41.76 172.36 41.76H175.276V48H174.124V45.756H172.3ZM172.444 44.784H174.124V42.756H172.444C172.292 42.756 172.148 42.78 172.012 42.828C171.876 42.868 171.76 42.932 171.664 43.02C171.568 43.1 171.492 43.2 171.436 43.32C171.38 43.432 171.352 43.556 171.352 43.692V43.824C171.352 43.968 171.38 44.1 171.436 44.22C171.492 44.332 171.568 44.432 171.664 44.52C171.76 44.6 171.876 44.664 172.012 44.712C172.148 44.76 172.292 44.784 172.444 44.784ZM171.46 45.396L172.588 45.6L171.208 48H169.912L171.46 45.396Z" fill="white"/>
</svg>
