<svg width="268" height="151" viewBox="0 0 268 151" fill="none" xmlns="http://www.w3.org/2000/svg">
<path d="M19.9245 105.375L25.0034 110.606V125.806H0V37.0149H40.2395C40.2395 37.0149 59.7782 37.3256 67.3913 53.3335C76.2791 72.0216 67.0985 82.9308 38.2862 104.57L22.3663 88.1172L43.2675 69.3393C43.2675 69.3393 49.5182 63.7953 40.9232 59.8609H24.9057V72.0217L19.9729 76.3582V55.2111H40.9232C40.9232 55.2111 45.3671 55.8818 48.1018 59.0562C50.8364 62.2305 51.6179 67.3718 48.053 71.2169C44.4881 75.0619 29.3013 88.3853 29.3013 88.3853L38.5795 98.1616L55.2478 84.0037C55.2478 84.0037 66.708 76.0157 65.2754 63.8549C63.8427 51.6942 54.0759 41.9179 42.3559 41.9179H5.11138V121.321H19.8269C19.8269 121.321 20.1197 105.553 19.9245 105.375ZM139.471 120.904H82.2695C82.4001 120.785 82.237 41.6196 82.237 41.6196H96.9854V107.7H146.796L139.471 120.904ZM101.999 102.99V37.0596C101.999 37.0596 77.272 37.0447 77.2237 37V126H142.108L155 102.99H101.999Z" fill="white"/>
<path d="M180.373 87.4403L184.016 94.0003L176.684 93.9585L180.373 87.4403ZM219.08 119.655H157.149L154.735 124H226.821L212.37 98.1504H219.11V93.9163H210.002L180.312 40.9362L150.637 93.9995H137.75V98.2614H186.293L189.344 103.275L180.282 103.108L177.914 107.537H197.04L180.282 77.7046L171.356 93.9163H155.874L180.464 50.4619L219.08 119.655ZM229.857 40.9922H235.017C235.017 40.9922 240.117 49.1255 239.662 57.9003C239.207 66.674 237.385 73.0255 234.107 82.8861C230.828 92.7467 227.64 105.616 235.199 123.916L230.281 124C230.281 124 224.908 111.549 225.819 100.1C226.73 88.6518 229.644 81.883 231.648 75.1143C233.651 68.3452 235.29 60.9922 234.835 56.1452C234.38 51.2987 233.166 46.8975 229.857 40.9922ZM243.336 40.9922H248.497C248.497 40.9922 253.597 49.1255 253.141 57.9003C252.686 66.674 250.864 73.0255 247.586 82.8861C244.307 92.7467 241.12 105.616 248.679 123.916L243.761 124C243.761 124 238.387 111.549 239.298 100.1C240.209 88.6518 243.123 81.883 245.127 75.1143C247.13 68.3452 248.77 60.9922 248.314 56.1452C247.859 51.2987 246.645 46.8975 243.336 40.9922ZM256.916 40.9922H262.076C262.076 40.9922 267.177 49.1255 266.721 57.9003C266.266 66.674 264.444 73.0255 261.166 82.8861C257.887 92.7467 254.7 105.616 262.259 123.916L257.34 124C257.34 124 251.967 111.549 252.878 100.1C253.789 88.6518 256.703 81.883 258.707 75.1143C260.71 68.3452 262.35 60.9922 261.894 56.1452C261.439 51.2987 260.225 46.8975 256.916 40.9922ZM222.813 27.2877C222.813 27.2877 216.042 14.1905 228.642 4.22375C242.728 -6.91827 266.772 5.89496 256.086 20.4911C249.612 29.3332 239.693 21.4934 239.693 21.4934L242.971 18.5968C242.971 18.5968 246.857 22.7196 251.593 18.4855C256.329 14.2514 252.2 6.00633 243.943 4.66881C235.685 3.33248 222.206 9.01465 226.942 25.7279L222.813 27.2877Z" fill="white"/>
<path d="M265.933 7C265.933 7 272.704 20.0682 260.104 30.0133C246.019 41.1306 221.977 28.3457 232.662 13.7818C239.136 4.9586 249.055 12.7809 249.055 12.7809L245.776 15.6716C245.776 15.6716 241.891 11.5582 237.155 15.7827C232.42 20.0075 236.548 28.2346 244.805 29.5688C253.062 30.9026 266.54 25.2329 261.804 8.55644L265.933 7ZM12.2471 148.736V139.087L7.24582 144.912L2.24446 139.087V148.737H0.75V136.456H1.59305L7.24582 143.052L12.8981 136.456H13.7412V148.737L12.2471 148.736ZM26.5238 148.736V139.139L18.7061 148.736H17.8631V136.455H19.3575V146.052L27.1939 136.456H28.0183V148.736H26.5238ZM43.1952 138.385L42.2183 139.192C41.1833 138.21 39.7464 137.613 38.1367 137.613C35.1673 137.613 32.8098 139.753 32.8098 142.596C32.8098 145.455 35.1673 147.578 38.1367 147.578C39.7464 147.578 41.1833 146.999 42.2183 145.999L43.1952 146.842C41.95 148.087 40.1482 148.859 38.1367 148.859C34.3615 148.859 31.3154 146.07 31.3154 142.596C31.3154 139.139 34.362 136.332 38.1367 136.332C40.1487 136.332 41.9504 137.122 43.1952 138.385ZM50.8227 148.736H49.3282V137.736H45.1699V136.455H54.9615V137.736H50.8227V148.736ZM66.0954 141.894V143.175H59.5233V147.456H66.5172V148.736H58.0284V136.455H66.5172V137.736H59.5233V141.894H66.0954ZM80.0839 151V148.736H69.6604V136.455H71.1544V147.455H78.2639V136.455H79.7584V147.455H81.5783V151H80.0839ZM90.1069 147.456C92.3681 147.456 93.1535 146.578 93.1535 145.035C93.1535 143.473 92.2142 142.596 90.1069 142.596H86.0448V147.456H90.1069ZM90.0874 141.315C93.0958 141.315 94.5716 142.754 94.5716 145.035C94.5716 147.298 93.2493 148.737 90.0874 148.737H84.5499V136.455H86.0448V141.315H90.0874ZM103.847 144.842C102.946 143.596 102.601 143.14 101.241 143.14H99.0563V148.736H97.5619V136.455H99.0563V141.841H101.03C102.41 141.841 102.736 141.403 103.636 140.14L106.223 136.455H107.928L104.977 140.614C104.192 141.684 103.751 142.192 103.176 142.438C103.885 142.648 104.345 143.157 105.188 144.368L108.273 148.736H106.568L103.847 144.842ZM119.388 141.894V143.175H112.816V147.456H119.81V148.736H111.321V136.455H119.81V137.736H112.816V141.894H119.388ZM135.984 142.596C135.984 145.456 138.34 147.579 141.31 147.579C144.281 147.579 146.657 145.456 146.657 142.596C146.657 139.754 144.281 137.613 141.31 137.613C138.34 137.613 135.984 139.754 135.984 142.596M148.151 142.596C148.151 146.07 145.085 148.859 141.31 148.859C137.535 148.859 134.489 146.07 134.489 142.596C134.489 139.139 137.536 136.333 141.31 136.333C145.085 136.333 148.151 139.14 148.151 142.596ZM157.274 147.456C159.516 147.456 160.301 146.578 160.301 145.035C160.301 143.473 159.362 142.596 157.274 142.596H153.134V147.456H157.274ZM157.254 141.315C160.262 141.315 161.738 142.754 161.738 145.035C161.738 147.298 160.416 148.737 157.254 148.737H151.64V136.455H160.148V137.736H153.134V141.315H157.254ZM165.016 139.929H164.019L165.169 136.455H166.741L165.016 139.929ZM169.072 143.102V141.905C169.072 138.328 171.374 135.798 174.627 135.798C177.452 135.798 179.487 137.393 179.638 140.011H177.867C177.731 138.291 176.268 137.243 174.627 137.243C172.408 137.243 170.829 139.095 170.761 141.732H176.288V143.152H170.761C170.781 145.695 172.299 147.49 174.436 147.49C176.172 147.49 177.711 146.449 177.867 144.748H179.637C179.467 147.334 177.364 148.911 174.436 148.911C171.292 148.911 169.072 146.505 169.072 143.102ZM184.654 147.456H192.242L188.448 139.017L184.654 147.456ZM194.081 151V148.737H182.814V151H181.32V147.456H183.063L188.045 136.455H188.889L193.851 147.456H195.576V151H194.081ZM206.843 148.736V143.157H199.696V148.737H198.202V136.455H199.697V141.876H206.844V136.455H208.338V148.736H206.843ZM214.74 144.192H219.415L217.078 138.982L214.74 144.192ZM212.746 148.736H211.099L216.656 136.455H217.499L223.037 148.736H221.389L219.933 145.473H214.204L212.746 148.736ZM234.458 148.736V143.157H227.311V148.737H225.816V136.455H227.311V141.876H234.458V136.455H235.953V148.736H234.458ZM248.524 148.736V143.157H241.376V148.737H239.882V136.455H241.376V141.876H248.524V136.455H250.018V148.736H248.524ZM259.025 137.736C256.706 137.736 254.772 138.719 254.772 140.877C254.772 143.069 256.707 144.017 259.025 144.017H261.957V137.736H259.025ZM261.957 148.737V145.298H259.197C257.78 145.316 257.147 145.579 256.017 147.175L254.906 148.737H253.219L254.56 146.859C255.384 145.684 256.055 145.105 256.764 144.824C254.733 144.28 253.353 142.929 253.353 140.877C253.353 138.14 255.729 136.455 259.14 136.455H263.451V148.737H261.957Z" fill="white"/>
</svg>
