<?xml version="1.0" encoding="utf-8"?>
<!-- Generator: Adobe Illustrator 23.0.4, SVG Export Plug-In . SVG Version: 6.00 Build 0)  -->
<!DOCTYPE svg PUBLIC "-//W3C//DTD SVG 1.1//EN" "http://www.w3.org/Graphics/SVG/1.1/DTD/svg11.dtd" [
	<!ENTITY ns_extend "http://ns.adobe.com/Extensibility/1.0/">
	<!ENTITY ns_ai "http://ns.adobe.com/AdobeIllustrator/10.0/">
	<!ENTITY ns_graphs "http://ns.adobe.com/Graphs/1.0/">
	<!ENTITY ns_vars "http://ns.adobe.com/Variables/1.0/">
	<!ENTITY ns_imrep "http://ns.adobe.com/ImageReplacement/1.0/">
	<!ENTITY ns_sfw "http://ns.adobe.com/SaveForWeb/1.0/">
	<!ENTITY ns_custom "http://ns.adobe.com/GenericCustomNamespace/1.0/">
	<!ENTITY ns_adobe_xpath "http://ns.adobe.com/XPath/1.0/">
]>
<svg version="1.1"
	 id="svg2" xmlns:x="&ns_extend;" xmlns:i="&ns_ai;" xmlns:graph="&ns_graphs;" xmlns:cc="http://creativecommons.org/ns#" xmlns:dc="http://purl.org/dc/elements/1.1/" xmlns:inkscape="http://www.inkscape.org/namespaces/inkscape" xmlns:rdf="http://www.w3.org/1999/02/22-rdf-syntax-ns#" xmlns:sodipodi="http://sodipodi.sourceforge.net/DTD/sodipodi-0.dtd" xmlns:svg="http://www.w3.org/2000/svg"
	 xmlns="http://www.w3.org/2000/svg" xmlns:xlink="http://www.w3.org/1999/xlink" x="0px" y="0px" viewBox="0 0 810.8 204.3"
	 style="enable-background:new 0 0 810.8 204.3;" xml:space="preserve">
<style type="text/css">
	.st0{fill:#24E39D;}
	.st1{display:none;}
	.st2{display:inline;fill:none;stroke:#868686;stroke-width:0.4;stroke-miterlimit:10;stroke-dasharray:2;}
	.st3{display:inline;fill:none;stroke:#9C9B9B;stroke-width:0.25;stroke-miterlimit:10;stroke-dasharray:2;}
	.st4{display:inline;fill:none;stroke:#868686;stroke-width:0.2;stroke-miterlimit:10;stroke-dasharray:2;}
	.st5{display:inline;}
	.st6{fill:#6F6F6E;}
	.st7{fill:none;stroke:#6F6F6E;stroke-width:0.5;stroke-miterlimit:10;}
	.st8{display:inline;fill:#D9D9D9;}
</style>
<metadata  id="metadata174">
	<rdf:RDF>
		<cc:Work  rdf:about="">
			<dc:format>image/svg+xml</dc:format>
			<dc:type  rdf:resource="http://purl.org/dc/dcmitype/StillImage"></dc:type>
			<dc:title></dc:title>
		</cc:Work>
	</rdf:RDF>
	<sfw  xmlns="&ns_sfw;">
		<slices></slices>
		<sliceSourceBounds  bottomLeftOrigin="true" height="372.2" width="962.9" x="-7.3" y="0"></sliceSourceBounds>
	</sfw>
</metadata>
<sodipodi:namedview  bordercolor="#666666" borderopacity="1" gridtolerance="10" guidetolerance="10" id="namedview170" inkscape:current-layer="svg2" inkscape:cx="167.1001" inkscape:cy="53.017888" inkscape:pageopacity="0" inkscape:pageshadow="2" inkscape:window-height="705" inkscape:window-maximized="1" inkscape:window-width="1366" inkscape:window-x="-8" inkscape:window-y="-8" inkscape:zoom="1" objecttolerance="10" pagecolor="#ffffff" showgrid="false">
	</sodipodi:namedview>
<polygon id="polygon8" class="st0" points="37.1,204.3 40.9,200.6 58.4,167.2 63.9,163.5 126.5,163.5 126.5,112.4 92.1,112.4 
	89,108.7 126.5,37.2 126.5,0 126.4,0 89.3,0 85.6,3.7 68.1,37.2 62.6,40.9 0,40.9 0,91.9 34.4,91.9 37.5,95.6 0,167.2 0,204.3 
	0,204.3 "/>
<g id="g10" transform="translate(-93.684,-96.905999)">
	<path id="path12" inkscape:connector-curvature="0" d="M293.8,209.3l-48.1,91.9h28.5l7-13.4l32.2,0l3.2,13.4h28.5l-22-91.9H293.8
		L293.8,209.3z M292.7,265.8l10.6-20.1l4.9,20.1H292.7L292.7,265.8z"/>
	<path id="path14" inkscape:connector-curvature="0" d="M428.2,242.6c0-21.1-14.3-33.3-34.3-33.3h-43.5v91.9h27.5v-26.8h6.7l5.5,0
		l13.3,26.8h28.5l-17-32.4C423.1,263.5,428.2,254.5,428.2,242.6z M390,252.3h-12.2v-18.6H390c7.4,0,10.2,3.7,10.2,9.4
		C400.2,248.6,397.4,252.3,390,252.3L390,252.3z"/>
	<polygon id="polygon16" points="485.7,278.6 485.7,233.7 509.2,233.7 521.9,209.3 432.2,209.3 432.2,233.7 458.2,233.7 
		458.2,301.2 473.8,301.2 	"/>
</g>
<g id="g18" transform="translate(-93.684,-96.905999)">
	<rect id="rect20" x="586.2" y="96.9" width="27.5" height="91.9"/>
	<path id="path22" inkscape:connector-curvature="0" d="M352.6,97l-12.3,23.6h7.6c13.5,0,22.1,8.6,22.1,22.3
		c0,13.5-8.6,22.2-22.1,22.2h-8.6v-42.6l-26.6,50.7v15.7h37c29.8,0,47.3-18,47.3-45.9C397,115.8,380.6,98.1,352.6,97z"/>
	<polygon id="polygon24" points="474.4,164.4 431.7,164.4 431.7,154.5 470.9,154.5 470.9,131.2 431.7,131.2 431.7,121.3 
		474.4,121.3 474.4,96.9 404.3,96.9 404.3,188.8 474.4,188.8 	"/>
	<polygon id="polygon26" points="523.2,152.5 509.9,96.9 481.4,96.9 503.4,188.8 532.7,188.8 580.8,96.9 552.3,96.9 	"/>
	<polygon id="polygon28" points="868.2,166.2 868.2,121.3 891.7,121.3 904.5,96.9 814.8,96.9 814.8,121.3 840.7,121.3 840.7,188.8 
		856.4,188.8 	"/>
	<path id="path30" inkscape:connector-curvature="0" d="M667.1,96.9L619,188.8h28.5l7-13.4l32.2,0l3.2,13.4l28.5,0l-22-91.9
		L667.1,96.9L667.1,96.9z M666,153.3l10.5-20.1l4.9,20.1L666,153.3L666,153.3z"/>
	<polygon id="polygon32" points="751,188.8 751,142.1 785.1,188.8 808.9,188.8 808.9,96.9 781.4,96.9 781.4,140.4 750.7,96.9 
		723.6,96.9 723.6,188.8 	"/>
</g>
<g id="Construction" transform="translate(0,-191.65601)" class="st1">
	<line id="line35" class="st2" x1="225.1" y1="340.4" x2="372.9" y2="58.3"/>
	<line id="line37" class="st2" x1="453.3" y1="340.4" x2="601.1" y2="58.3"/>
	<line id="line39" class="st2" x1="539.6" y1="340.4" x2="687.3" y2="58.6"/>
	<line id="line41" class="st2" x1="776.9" y1="340.4" x2="924.7" y2="58.3"/>
	<line id="line43" class="st2" x1="110.9" y1="342.5" x2="259.8" y2="58.3"/>
	<line id="line45" class="st2" x1="52.6" y1="342.5" x2="201.4" y2="58.3"/>
	<line id="line47" class="st3" x1="67.1" y1="188.8" x2="921.7" y2="188.8"/>
	<line id="line49" class="st3" x1="67.1" y1="96.9" x2="921.7" y2="96.9"/>
	<line id="line51" class="st3" x1="67.1" y1="301.2" x2="921.7" y2="301.2"/>
	<line id="line53" class="st3" x1="67.1" y1="209.3" x2="921.7" y2="209.3"/>
	<line id="line55" class="st4" x1="354.5" y1="340.4" x2="287.1" y2="58.3"/>
	<line id="line57" class="st4" x1="539.6" y1="340.4" x2="472.7" y2="60.1"/>
	<line id="line59" class="st4" x1="754.5" y1="340.4" x2="687.2" y2="58.3"/>
</g>
<g id="Guidelines" transform="translate(0,-191.65601)" class="st1">
	<line id="line62" class="st3" x1="27.1" y1="188.8" x2="904.5" y2="188.8"/>
	<line id="line64" class="st3" x1="27.1" y1="137.8" x2="93.7" y2="137.8"/>
	<line id="line66" class="st3" x1="220.1" y1="96.9" x2="220.1" y2="364.5"/>
	<line id="line68" class="st3" x1="245.6" y1="96.9" x2="245.6" y2="364.5"/>
	<g id="g70" class="st5">
		<path id="path72" inkscape:connector-curvature="0" class="st6" d="M-0.3,163.6l3.7,5.7H0.2l-2.2-3.4l-2.2,3.4h-3.2l3.7-5.7
			l-3.5-5.4h3.2l2,3.2l2.1-3.2h3.1C3.3,158.2-0.3,163.6-0.3,163.6z"/>
	</g>
	<g id="g74" class="st5">
		<g id="g76">
			<line id="line78" class="st7" x1="12.8" y1="139" x2="12.8" y2="187.8"/>
			<g id="g80">
				<circle id="circle82" class="st6" cx="12.8" cy="139.1" r="1.3"/>
			</g>
			<g id="g84">
				<circle id="circle86" class="st6" cx="12.8" cy="187.7" r="1.3"/>
			</g>
		</g>
	</g>
	<g id="g88" class="st5">
		<path id="path90" inkscape:connector-curvature="0" class="st6" d="M215.7,386c0-3.4,1.9-5.7,4.6-5.7s4.6,2.3,4.6,5.7
			s-1.9,5.7-4.6,5.7S215.7,389.4,215.7,386z M218.5,386c0,1.7,0.5,3.2,1.8,3.2s1.8-1.5,1.8-3.2c0-1.7-0.5-3.2-1.8-3.2
			S218.5,384.3,218.5,386z"/>
		<path id="path92" inkscape:connector-curvature="0" class="st6" d="M226.8,388.3c0.9,0,1.7,0.7,1.7,1.7c0,1-0.7,1.7-1.7,1.7
			c-0.9,0-1.7-0.7-1.7-1.7C225.2,389,225.9,388.3,226.8,388.3z"/>
		<path id="path94" inkscape:connector-curvature="0" class="st6" d="M232.1,387.1h-2.3v-6.6h6.8v2.5h-4.5v1.7
			c0.3-0.2,1-0.4,1.7-0.4c2.2,0,3.6,1.5,3.6,3.7c0,2.3-1.6,3.8-4,3.8c-2.5,0-4.1-1.5-4.2-3.7h2.8c0.1,0.8,0.6,1.3,1.4,1.3
			c0.8,0,1.3-0.6,1.3-1.4c0-0.8-0.5-1.4-1.3-1.4C232.8,386.5,232.4,386.8,232.1,387.1L232.1,387.1z"/>
		<path id="path96" inkscape:connector-curvature="0" class="st6" d="M248.5,385.9l3.7,5.7H249l-2.2-3.4l-2.2,3.4h-3.2l3.7-5.7
			l-3.5-5.4h3.2l2,3.1l2.1-3.1h3.1L248.5,385.9L248.5,385.9z"/>
	</g>
	<g id="g98" class="st5">
		<g id="g100">
			<line id="line102" class="st7" x1="221.3" y1="368.8" x2="245.1" y2="368.8"/>
			<g id="g104">
				<circle id="circle106" class="st6" cx="221.4" cy="368.8" r="1.3"/>
			</g>
			<g id="g108">
				<circle id="circle110" class="st6" cx="245.1" cy="368.8" r="1.3"/>
			</g>
		</g>
	</g>
	<g id="g112" class="st5">
		<g id="g114">
			<line id="line116" class="st7" x1="38.1" y1="47" x2="38.1" y2="95.8"/>
			<g id="g118">
				<circle id="circle120" class="st6" cx="38.1" cy="47.1" r="1.3"/>
			</g>
			<g id="g122">
				<circle id="circle124" class="st6" cx="38.1" cy="95.7" r="1.3"/>
			</g>
		</g>
	</g>
	<g id="g126" class="st5">
		<path id="path128" inkscape:connector-curvature="0" class="st6" d="M70.1,29.2l3.7,5.7h-3.2l-2.2-3.4l-2.2,3.4H63l3.7-5.7
			l-3.5-5.4h3.2l2,3.2l2.1-3.2h3.1C73.6,23.8,70.1,29.2,70.1,29.2z"/>
	</g>
	<g id="g130" class="st5">
		<path id="path132" inkscape:connector-curvature="0" class="st6" d="M26.6,70.3l3.7,5.7h-3.2l-2.2-3.4L22.7,76h-3.2l3.7-5.7
			l-3.5-5.4h3.2l2,3.2l2.1-3.2h3.1C30.1,64.9,26.6,70.3,26.6,70.3z"/>
	</g>
	<g id="g134" class="st5">
		<g id="g136">
			<line id="line138" class="st7" x1="92.5" y1="41.5" x2="43.8" y2="41.5"/>
			<g id="g140">
				<circle id="circle142" class="st6" cx="92.5" cy="41.5" r="1.3"/>
			</g>
			<g id="g144">
				<circle id="circle146" class="st6" cx="43.9" cy="41.5" r="1.3"/>
			</g>
		</g>
	</g>
	<rect id="rect148" x="16.8" y="137.9" class="st8" width="8.1" height="51"/>
	<rect id="rect150" x="93.7" y="45.9" class="st8" width="8.1" height="51"/>
	<rect id="rect152" x="896.3" y="45.9" class="st8" width="8.1" height="51"/>
	<rect id="rect154" x="93.7" y="301.2" class="st8" width="8.1" height="51"/>
	<rect id="rect156" x="896.3" y="301.2" class="st8" width="8.1" height="51"/>
	<rect id="rect158" x="42.7" y="96.9" class="st8" width="51" height="8.1"/>
	<rect id="rect160" x="42.7" y="293.1" class="st8" width="51" height="8.1"/>
	<rect id="rect162" x="904.5" y="96.9" class="st8" width="51" height="8.1"/>
	<rect id="rect164" x="904.5" y="293.1" class="st8" width="51" height="8.1"/>
	<rect id="rect166" x="93.7" y="96.9" class="st3" width="810.8" height="204.3"/>
	<rect id="rect168" x="42.7" y="45.9" class="st3" width="912.8" height="306.4"/>
</g>
</svg>
