<svg width="602" height="90" viewBox="0 0 602 90" fill="none" xmlns="http://www.w3.org/2000/svg">
<g id="Frame 2">
<g id="Group 1">
<path id="Vector" d="M121.1 52.4C122 55.9 125.2 57.9 130.1 57.9C134.3 57.9 136.8 56.5 136.8 53.5C136.8 49.1 131.3 49.4 125.7 48C119.5 46.5 111.9 43.6 111.9 34C111.9 24.7 118.9 20.1 129.1 20.1C138.4 20.1 145 23.9 147.6 32L137.2 34.8C136.1 31.5 133.5 29.7 128.9 29.7C124.7 29.7 123 31.3 123 33.7C123 37.5 127.4 38.1 133.7 39.4C140.4 40.7 147.8 43.6 147.8 53.4C147.8 62.8 141.2 67.5 130.1 67.5C122.2 67.5 113.2 65.1 110.6 55.2C110.7 55.2 121.1 52.4 121.1 52.4ZM183.3 40C181.9 36.2 180.8 33.4 180.8 33.3H180.6C180.5 33.4 179.5 36.2 178.1 39.9L174.8 49H186.6C186.6 49.1 183.3 40 183.3 40ZM171.3 59L168.6 66.6H157L174.6 21H187L204.6 66.6H192.9L190.2 59H171.3ZM239.9 40C238.5 36.2 237.4 33.4 237.4 33.3H237.2C237.1 33.4 236.1 36.2 234.7 39.9L231.4 49H243.2L239.9 40ZM227.8 59L225.1 66.6H213.6L231.2 21H243.6L261.2 66.6H249.5L246.8 59C246.7 59 227.8 59 227.8 59ZM289.2 31.2V66.6H278.3V31.2H264.4V21H303.1V31.2H289.2ZM356.1 53.1C352.7 62 344.3 67.5 334.5 67.5C320.9 67.5 310.9 57.9 310.9 43.7C310.9 29.8 320.9 20.1 334.5 20.1C345 20.1 352.6 25.9 355.7 33.2L344.9 36.1C342.6 32.5 338.9 30.3 334 30.3C326.6 30.3 321.9 35.8 321.9 43.7C321.9 51.8 326.9 57 333.9 57C339.9 57 343.6 53.9 345.4 50.1C345.4 50.2 356.1 53.1 356.1 53.1ZM396.3 48.7H378.8V66.6H367.9V21H378.8V38.2H396.3V21H407.2V66.6H396.3V48.7ZM421 66.6H432V21H421V66.6ZM485.5 40C484.1 36.2 483 33.4 483 33.3H482.8C482.7 33.4 481.7 36.2 480.3 39.9L477 49H488.8L485.5 40ZM473.4 59L470.7 66.6H459.2L476.8 21H489.2L506.8 66.6H495.1L492.4 59H473.4ZM535.8 42.8C539.8 42.8 542 40.8 542 36.9C542 33.1 539.9 30.8 535.7 30.8H528.7V42.7H535.8V42.8ZM533.6 51.5H528.7V66.5H517.8V21H535.1C546.5 21 553.2 27 553.2 36.4C553.2 42.6 550.1 47.3 544.6 49.4L555 66.6H542.1L533.6 51.5ZM587.5 31.2V66.6H576.6V31.2H562.7V21H601.4V31.2H587.5Z" fill="#020302"/>
<path id="Vector_2" d="M65.6 22.3C63.3 20.5 60.9 19 58.5 17.5C56.1 16.2 53.7 15 51.1 13.9C48.4 14.1 45.6 14.6 42.8 15.4C47.6 16.6 52.2 18.5 56.5 21C61.1 23.6 65.1 26.7 68.5 30.1C67.7 27.4 66.7 24.8 65.6 22.3Z" fill="#F05024"/>
<path id="Vector_3" d="M65.6 22.3C63.3 20.5 60.9 19 58.5 17.5C56.1 16.2 53.7 15 51.1 13.9C48.4 14.1 45.6 14.6 42.8 15.4C47.6 16.6 52.2 18.5 56.5 21C61.1 23.6 65.1 26.7 68.5 30.1C67.7 27.4 66.7 24.8 65.6 22.3Z" stroke="#F05024" stroke-width="1.4951"/>
<path id="Vector_4" d="M34.5 14C37.2 12.9 39.9 12 42.7 11.3C38.9 10.4 35 9.89999 31 9.79999C30.4 9.79999 29.9 9.79999 29.3 9.79999C27.8 11.1 26.3 12.6 25 14.2C26.9 13.9 28.9 13.7 31 13.7C32.2 13.8 33.4 13.9 34.5 14Z" fill="#F05024"/>
<path id="Vector_5" d="M34.5 14C37.2 12.9 39.9 12 42.7 11.3C38.9 10.4 35 9.89999 31 9.79999C30.4 9.79999 29.9 9.79999 29.3 9.79999C27.8 11.1 26.3 12.6 25 14.2C26.9 13.9 28.9 13.7 31 13.7C32.2 13.8 33.4 13.9 34.5 14Z" stroke="#F05024" stroke-width="1.4951"/>
<path id="Vector_6" d="M82.5 44.8C81.8 46.9 80.9 48.9 79.9 50.8C80.1 52.2 80.2 53.5 80.2 54.8C80.2 58.4 79.4 61.7 77.7 64.8C75.6 68.4 72.5 71.2001 68.5 73.1001C67.9 73.4001 67.2 73.7001 66.5 73.9001C65.4 75.8001 64.1 77.5001 62.6 79.2001C65.3 78.7001 67.8 77.8001 70.2 76.7001C74.8 74.5001 78.6 71.2 81.1 66.8C83.2 63.1 84.2 59.1001 84.2 54.9001C84.3 51.5001 83.7 48.1 82.5 44.8Z" fill="#F05024"/>
<path id="Vector_7" d="M82.5 44.8C81.8 46.9 80.9 48.9 79.9 50.8C80.1 52.2 80.2 53.5 80.2 54.8C80.2 58.4 79.4 61.7 77.7 64.8C75.6 68.4 72.5 71.2001 68.5 73.1001C67.9 73.4001 67.2 73.7001 66.5 73.9001C65.4 75.8001 64.1 77.5001 62.6 79.2001C65.3 78.7001 67.8 77.8001 70.2 76.7001C74.8 74.5001 78.6 71.2 81.1 66.8C83.2 63.1 84.2 59.1001 84.2 54.9001C84.3 51.5001 83.7 48.1 82.5 44.8Z" stroke="#F05024" stroke-width="1.4951"/>
<path id="Vector_8" d="M72 28C72.8 30.7 73.4 33.5 73.8 36.4C73.9 36.5 74 36.6 74.1 36.8C75.8 39.3 77.3 42 78.4 44.9C79.2 42.9 79.7 40.9 80 38.9C79.2 37.4 78.3 36 77.4 34.6C75.7 32.2 73.9 30 72 28Z" fill="#F05024"/>
<path id="Vector_9" d="M72 28C72.8 30.7 73.4 33.5 73.8 36.4C73.9 36.5 74 36.6 74.1 36.8C75.8 39.3 77.3 42 78.4 44.9C79.2 42.9 79.7 40.9 80 38.9C79.2 37.4 78.3 36 77.4 34.6C75.7 32.2 73.9 30 72 28Z" stroke="#F05024" stroke-width="1.4951"/>
<path id="Vector_10" d="M13.8 61.8C13 59.1 12.4 56.2 12 53.4C11.9 53.3 11.8 53.2 11.7 53C9.99999 50.5 8.49999 47.8 7.39999 44.9C6.69999 46.8 6.09999 48.8 5.79999 50.9C6.59999 52.4 7.49999 53.8 8.39999 55.2C9.99999 57.6 11.8 59.7 13.8 61.8Z" fill="#F05024"/>
<path id="Vector_11" d="M13.8 61.8C13 59.1 12.4 56.2 12 53.4C11.9 53.3 11.8 53.2 11.7 53C9.99999 50.5 8.49999 47.8 7.39999 44.9C6.69999 46.8 6.09999 48.8 5.79999 50.9C6.59999 52.4 7.49999 53.8 8.39999 55.2C9.99999 57.6 11.8 59.7 13.8 61.8Z" stroke="#F05024" stroke-width="1.4951"/>
<path id="Vector_12" d="M5.39999 35C5.39999 31.4 6.19999 28.1 7.89999 25C9.99999 21.4 13.1 18.6 17.1 16.7C17.7 16.4 18.4 16.1 19.1 15.9C20.3 14 21.6 12.2 23 10.6C20.3 11.1 17.8 12 15.4 13.1C10.8 15.3 6.99999 18.6 4.49999 23C2.39999 26.7 1.39999 30.7 1.39999 34.9C1.39999 38.2 1.99999 41.6 3.09999 44.9C3.79999 42.8 4.7 40.8 5.7 38.9C5.6 37.7 5.39999 36.3 5.39999 35Z" fill="#F05024"/>
<path id="Vector_13" d="M5.39999 35C5.39999 31.4 6.19999 28.1 7.89999 25C9.99999 21.4 13.1 18.6 17.1 16.7C17.7 16.4 18.4 16.1 19.1 15.9C20.3 14 21.6 12.2 23 10.6C20.3 11.1 17.8 12 15.4 13.1C10.8 15.3 6.99999 18.6 4.49999 23C2.39999 26.7 1.39999 30.7 1.39999 34.9C1.39999 38.2 1.99999 41.6 3.09999 44.9C3.79999 42.8 4.7 40.8 5.7 38.9C5.6 37.7 5.39999 36.3 5.39999 35Z" stroke="#F05024" stroke-width="1.4951"/>
<path id="Vector_14" d="M51.2 75.8C48.5 76.9 45.7 77.8 43 78.5C46.8 79.4 50.7 79.9 54.7 80C55.3 80 55.8 80 56.4 80C57.9 78.7 59.4 77.3 60.7 75.6C58.7 75.9 56.7 76.1 54.7 76.1C53.5 76 52.4 75.9 51.2 75.8Z" fill="#F05024"/>
<path id="Vector_15" d="M51.2 75.8C48.5 76.9 45.7 77.8 43 78.5C46.8 79.4 50.7 79.9 54.7 80C55.3 80 55.8 80 56.4 80C57.9 78.7 59.4 77.3 60.7 75.6C58.7 75.9 56.7 76.1 54.7 76.1C53.5 76 52.4 75.9 51.2 75.8Z" stroke="#F05024" stroke-width="1.4951"/>
<path id="Vector_16" d="M29.3 68.7999C24.9 66.2999 20.9 63.3 17.3 59.7C18.1 62.5 19 65.0999 20.1 67.4999C22.3 69.1999 24.7 70.7999 27.2 72.2999C29.6 73.6999 32.1 74.8999 34.6 75.8999C37.3 75.6999 40.1 75.1999 42.9 74.3999C38.2 73.1999 33.6 71.2999 29.3 68.7999Z" fill="#F05024"/>
<path id="Vector_17" d="M29.3 68.7999C24.9 66.2999 20.9 63.3 17.3 59.7C18.1 62.5 19 65.0999 20.1 67.4999C22.3 69.1999 24.7 70.7999 27.2 72.2999C29.6 73.6999 32.1 74.8999 34.6 75.8999C37.3 75.6999 40.1 75.1999 42.9 74.3999C38.2 73.1999 33.6 71.2999 29.3 68.7999Z" stroke="#F05024" stroke-width="1.4951"/>
<path id="Vector_18" d="M17.3 59.8C16 55 15.3 50 15.3 44.9C15.3 39.7 16 34.7 17.2 30.1C15.2 32.1 13.5 34.2 11.9 36.5C11.5 39.3 11.3 42.1 11.3 44.9C11.3 47.8 11.5 50.7 11.9 53.4C13.6 55.7 15.4 57.8 17.3 59.8Z" fill="#389ED8"/>
<path id="Vector_19" d="M17.3 59.8C16 55 15.3 50 15.3 44.9C15.3 39.7 16 34.7 17.2 30.1C15.2 32.1 13.5 34.2 11.9 36.5C11.5 39.3 11.3 42.1 11.3 44.9C11.3 47.8 11.5 50.7 11.9 53.4C13.6 55.7 15.4 57.8 17.3 59.8Z" stroke="#389ED8" stroke-width="1.4951"/>
<path id="Vector_20" d="M65.6 22.3C67.9 24 70 26 72 28C70.8 23.7 69 19.6 66.6 15.8C64.7 15.1 62.6 14.5 60.6 14.2C62.5 16.5 64.1 19.2 65.5 22.1L65.6 22.3Z" fill="#389ED8"/>
<path id="Vector_21" d="M65.6 22.3C67.9 24 70 26 72 28C70.8 23.7 69 19.6 66.6 15.8C64.7 15.1 62.6 14.5 60.6 14.2C62.5 16.5 64.1 19.2 65.5 22.1L65.6 22.3Z" stroke="#389ED8" stroke-width="1.4951"/>
<path id="Vector_22" d="M73.8 36.5C72.2 34.2 70.4 32.1 68.4 30.1C69.7 34.7 70.4 39.4 70.4 45.1C70.4 48.9 69.7 55.2 68.5 59.8C70.5 57.9 72.2 55.7 73.8 53.5C74.2 50.7 74.4 47.9 74.4 45.1C74.3 43.2 74.1 39.3 73.8 36.5Z" fill="#389ED8"/>
<path id="Vector_23" d="M73.8 36.5C72.2 34.2 70.4 32.1 68.4 30.1C69.7 34.7 70.4 39.4 70.4 45.1C70.4 48.9 69.7 55.2 68.5 59.8C70.5 57.9 72.2 55.7 73.8 53.5C74.2 50.7 74.4 47.9 74.4 45.1C74.3 43.2 74.1 39.3 73.8 36.5Z" stroke="#389ED8" stroke-width="1.4951"/>
<path id="Vector_24" d="M32.4 7.70001C35.7 5.70001 39.2 4.70001 42.8 4.70001C46.5 4.70001 50 5.80001 53.2 7.70001C54.2 8.30001 55.2 8.99999 56.1 9.79999C58.3 9.89999 60.5 10.1 62.6 10.5C60.4 8 58 5.89999 55.3 4.29999C51.5 1.99999 47.3 0.700012 42.8 0.700012C38.3 0.700012 34.1 1.99999 30.3 4.29999C27.6 5.89999 25.1 8.10001 22.9 10.6C25 10.2 27.2 9.89999 29.3 9.79999C30.4 9.09999 31.4 8.40001 32.4 7.70001Z" fill="#389ED8"/>
<path id="Vector_25" d="M32.5 8C35.8 6 39.3 5 42.9 5C46.6 5 50.1 6.1 53.3 8C54.3 8.6 55.3 9.29998 56.2 10.1C58.4 10.2 60.6 10.4 62.7 10.8C60.5 8.29999 58.1 6.19998 55.4 4.59998C51.6 2.29998 47.4 1 42.9 1C38.4 1 34.2 2.29998 30.4 4.59998C27.7 6.19998 25.2 8.39999 23 10.9C25.1 10.5 27.3 10.2 29.4 10.1C30.5 9.39998 31.5 8.7 32.5 8Z" stroke="#389ED8" stroke-width="1.4951"/>
<path id="Vector_26" d="M72 61.7C70 63.8 67.9 65.6999 65.6 67.3999C64.6 69.4999 63.4 71.5999 62.1 73.4999C61.6 74.0999 61.2 74.7999 60.7 75.3999C62.7 75.0999 64.7 74.4999 66.7 73.7999C67.6 72.3999 68.4 70.8 69.2 69.2C70.3 66.9 71.2 64.3 72 61.7Z" fill="#389ED8"/>
<path id="Vector_27" d="M72 61.7C70 63.8 67.9 65.6999 65.6 67.3999C64.6 69.4999 63.4 71.5999 62.1 73.4999C61.6 74.0999 61.2 74.7999 60.7 75.3999C62.7 75.0999 64.7 74.4999 66.7 73.7999C67.6 72.3999 68.4 70.8 69.2 69.2C70.3 66.9 71.2 64.3 72 61.7Z" stroke="#389ED8" stroke-width="1.4951"/>
<path id="Vector_28" d="M20.2 67.5001C17.9 65.8001 15.8 63.8 13.8 61.8C15 66.1 16.9 70.2001 19.2 74.0001C21.1 74.7001 23.1 75.2001 25.2 75.6001C23.2 73.2001 21.6 70.5001 20.3 67.7001C20.2 67.6001 20.2 67.6001 20.2 67.5001Z" fill="#389ED8"/>
<path id="Vector_29" d="M20.2 67.5001C17.9 65.8001 15.8 63.8 13.8 61.8C15 66.1 16.9 70.2001 19.2 74.0001C21.1 74.7001 23.1 75.2001 25.2 75.6001C23.2 73.2001 21.6 70.5001 20.3 67.7001C20.2 67.6001 20.2 67.6001 20.2 67.5001Z" stroke="#389ED8" stroke-width="1.4951"/>
<path id="Vector_30" d="M53.3 82.0999C50 84.0999 46.5 85.0999 42.9 85.0999C39.2 85.0999 35.7 83.9999 32.5 82.0999C31.5 81.4999 30.5 80.7999 29.6 79.9999C27.4 79.8999 25.3 79.6999 23.1 79.2999C25.3 81.7999 27.7 83.8999 30.4 85.4999C34.2 87.7999 38.4 89.0999 42.9 89.0999C47.4 89.0999 51.6 87.7999 55.4 85.4999C58.1 83.8999 60.6 81.7 62.8 79.2C60.7 79.6 58.5 79.8999 56.4 79.9999C55.3 80.6999 54.3 81.3999 53.3 82.0999Z" fill="#389ED8"/>
<path id="Vector_31" d="M53.3 82.0999C50 84.0999 46.5 85.0999 42.9 85.0999C39.2 85.0999 35.7 83.9999 32.5 82.0999C31.5 81.4999 30.5 80.7999 29.6 79.9999C27.4 79.8999 25.3 79.6999 23.1 79.2999C25.3 81.7999 27.7 83.8999 30.4 85.4999C34.2 87.7999 38.4 89.0999 42.9 89.0999C47.4 89.0999 51.6 87.7999 55.4 85.4999C58.1 83.8999 60.6 81.7 62.8 79.2C60.7 79.6 58.5 79.8999 56.4 79.9999C55.3 80.6999 54.3 81.3999 53.3 82.0999Z" stroke="#389ED8" stroke-width="1.4951"/>
<path id="Vector_32" d="M13.8 28C15.8 25.9 17.9 24 20.2 22.3C21.2 20.1 22.4 18 23.7 16.2C24.2 15.5 24.6 14.9 25.1 14.3C23.1 14.6 21.1 15.2 19.1 15.9C18.2 17.4 17.4 18.9 16.6 20.5C15.5 22.8 14.6 25.4 13.8 28Z" fill="#389ED8"/>
<path id="Vector_33" d="M13.8 28C15.8 25.9 17.9 24 20.2 22.3C21.2 20.1 22.4 18 23.7 16.2C24.2 15.5 24.6 14.9 25.1 14.3C23.1 14.6 21.1 15.2 19.1 15.9C18.2 17.4 17.4 18.9 16.6 20.5C15.5 22.8 14.6 25.4 13.8 28Z" stroke="#389ED8" stroke-width="1.4951"/>
<path id="Vector_34" d="M73.8 36.4C73.4 33.6 72.8 30.8 72 28C70 25.9 67.9 24 65.6 22.3C66.7 24.7 67.7 27.3 68.4 30.1C70.4 32.1 72.2 34.2 73.8 36.4Z" fill="#7E427D"/>
<path id="Vector_35" d="M73.8 36.4C73.4 33.6 72.8 30.8 72 28C70 25.9 67.9 24 65.6 22.3C66.7 24.7 67.7 27.3 68.4 30.1C70.4 32.1 72.2 34.2 73.8 36.4Z" stroke="#7E427D" stroke-width="1.4951"/>
<path id="Vector_36" d="M12 53.4C12.4 56.3 13 59.1 13.8 61.8C15.8 63.9 17.9 65.8 20.2 67.5C19 65 18.1 62.4 17.4 59.7C15.4 57.8 13.6 55.7 12 53.4Z" fill="#7E427D"/>
<path id="Vector_37" d="M12 53.4C12.4 56.3 13 59.1 13.8 61.8C15.8 63.9 17.9 65.8 20.2 67.5C19 65 18.1 62.4 17.4 59.7C15.4 57.8 13.6 55.7 12 53.4Z" stroke="#7E427D" stroke-width="1.4951"/>
<path id="Vector_38" d="M60.6 75.5001C59.3 77.2001 57.8 78.7001 56.3 79.9001C58.5 79.8001 60.6 79.6001 62.7 79.1001C64.1 77.5001 65.4 75.7 66.6 73.8C64.8 74.6 62.8 75.1001 60.6 75.5001Z" fill="#7E427D"/>
<path id="Vector_39" d="M60.6 75.5001C59.3 77.2001 57.8 78.7001 56.3 79.9001C58.5 79.8001 60.6 79.6001 62.7 79.1001C64.1 77.5001 65.4 75.7 66.6 73.8C64.8 74.6 62.8 75.1001 60.6 75.5001Z" stroke="#7E427D" stroke-width="1.4951"/>
<path id="Vector_40" d="M25.1 14.3C26.4 12.6 27.9 11.1 29.4 9.90002C27.2 10 25 10.2 23 10.7C21.6 12.3 20.3 14.1 19.1 16C21 15.2 23 14.7 25.1 14.3Z" fill="#7E427D"/>
<path id="Vector_41" d="M25.1 14.3C26.4 12.6 27.9 11.1 29.4 9.90002C27.2 10 25 10.2 23 10.7C21.6 12.3 20.3 14.1 19.1 16C21 15.2 23 14.7 25.1 14.3Z" stroke="#7E427D" stroke-width="1.4951"/>
<path id="Vector_42" d="M19.2 74C18.5 73.8 17.9 73.5 17.2 73.2C13.3 71.3 10.1 68.6 8.1 65C6.3 61.9 5.5 58.5 5.5 54.9C5.5 53.6 5.6 52.3 5.8 51C4.8 49.1 3.9 47.1 3.2 45C2.1 48.3 1.5 51.6 1.5 54.9C1.5 59.1 2.5 63.3 4.6 67C7.1 71.4 10.9 74.7 15.5 76.8C17.9 77.9 20.4 78.8 23 79.3C21.6 77.6 20.3 75.8 19.2 74Z" fill="#F5B918"/>
<path id="Vector_43" d="M19.2 74C18.5 73.8 17.9 73.5 17.2 73.2C13.3 71.3 10.1 68.6 8.1 65C6.3 61.9 5.5 58.5 5.5 54.9C5.5 53.6 5.6 52.3 5.8 51C4.8 49.1 3.9 47.1 3.2 45C2.1 48.3 1.5 51.6 1.5 54.9C1.5 59.1 2.5 63.3 4.6 67C7.1 71.4 10.9 74.7 15.5 76.8C17.9 77.9 20.4 78.8 23 79.3C21.6 77.6 20.3 75.8 19.2 74Z" stroke="#F5B918" stroke-width="1.4951"/>
<path id="Vector_44" d="M66.6 15.8C67.3 16.1 67.9 16.3 68.5 16.6C72.4 18.5 75.6 21.2 77.6 24.8C79.4 27.9 80.2 31.3 80.2 34.9C80.2 36.2 80.1 37.5 79.9 38.8C81 40.8 81.8 42.8 82.5 44.8C83.6 41.5 84.2 38.2 84.2 34.9C84.2 30.7 83.2 26.5 81.1 22.8C78.6 18.4 74.8 15.1 70.2 13C67.8 11.9 65.3 11 62.7 10.5C64.1 12.2 65.4 13.9 66.6 15.8Z" fill="#F5B918"/>
<path id="Vector_45" d="M66.6 15.8C67.3 16.1 67.9 16.3 68.5 16.6C72.4 18.5 75.6 21.2 77.6 24.8C79.4 27.9 80.2 31.3 80.2 34.9C80.2 36.2 80.1 37.5 79.9 38.8C81 40.8 81.8 42.8 82.5 44.8C83.6 41.5 84.2 38.2 84.2 34.9C84.2 30.7 83.2 26.5 81.1 22.8C78.6 18.4 74.8 15.1 70.2 13C67.8 11.9 65.3 11 62.7 10.5C64.1 12.2 65.4 13.9 66.6 15.8Z" stroke="#F5B918" stroke-width="1.4951"/>
<path id="Vector_46" d="M43 78.5C40.2 77.8 37.4 76.9 34.7 75.9C33.5 76 32.2 76.1 31.1 76.1C29.1 76.1 27.1 75.9 25.2 75.6C26.6 77.3 28 78.7 29.6 80C30.1 80 30.6 80 31.1 80C34.9 80 38.9 79.5 43 78.5Z" fill="#F5B918"/>
<path id="Vector_47" d="M43 78.5C40.2 77.8 37.4 76.9 34.7 75.9C33.5 76 32.2 76.1 31.1 76.1C29.1 76.1 27.1 75.9 25.2 75.6C26.6 77.3 28 78.7 29.6 80C30.1 80 30.6 80 31.1 80C34.9 80 38.9 79.5 43 78.5Z" stroke="#F5B918" stroke-width="1.4951"/>
<path id="Vector_48" d="M42.8 11.3C45.5 12 48.3 12.8 51.1 13.9C52.3 13.8 53.6 13.7 54.7 13.7C56.7 13.7 58.7 13.9 60.6 14.2C59.3 12.6 57.8 11.1 56.2 9.79999C55.7 9.79999 55.2 9.79999 54.7 9.79999C50.8 9.79999 46.8 10.3 42.8 11.3Z" fill="#F5B918"/>
<path id="Vector_49" d="M42.8 11.3C45.5 12 48.3 12.8 51.1 13.9C52.3 13.8 53.6 13.7 54.7 13.7C56.7 13.7 58.7 13.9 60.6 14.2C59.3 12.6 57.8 11.1 56.2 9.79999C55.7 9.79999 55.2 9.79999 54.7 9.79999C50.8 9.79999 46.8 10.3 42.8 11.3Z" stroke="#F5B918" stroke-width="1.4951"/>
<path id="Vector_50" d="M12 36.5C12.4 33.6 13 30.8 13.8 28.1C11.8 30.2 9.99999 32.4 8.49999 34.6C7.49999 36 6.59999 37.5 5.79999 39C6.09999 41 6.69999 43 7.49999 45C8.59999 42.1 9.99999 39.4 11.8 36.8C11.8 36.7 11.9 36.6 12 36.5Z" fill="#F5B918"/>
<path id="Vector_51" d="M12 36.5C12.4 33.6 13 30.8 13.8 28.1C11.8 30.2 9.99999 32.4 8.49999 34.6C7.49999 36 6.59999 37.5 5.79999 39C6.09999 41 6.69999 43 7.49999 45C8.59999 42.1 9.99999 39.4 11.8 36.8C11.8 36.7 11.9 36.6 12 36.5Z" stroke="#F5B918" stroke-width="1.4951"/>
<path id="Vector_52" d="M74 53C73.9 53.1 73.8 53.3 73.7 53.4C73.3 56.2 72.7 59.1 71.9 61.8C73.9 59.7 75.7 57.5 77.2 55.3C78.2 53.9 79.1 52.4 79.9 50.9C79.6 48.9 79 46.8 78.2 44.9C77.2 47.7 75.8 50.4 74 53Z" fill="#F5B918"/>
<path id="Vector_53" d="M74 53C73.9 53.1 73.8 53.3 73.7 53.4C73.3 56.2 72.7 59.1 71.9 61.8C73.9 59.7 75.7 57.5 77.2 55.3C78.2 53.9 79.1 52.4 79.9 50.9C79.6 48.9 79 46.8 78.2 44.9C77.2 47.7 75.8 50.4 74 53Z" stroke="#F5B918" stroke-width="1.4951"/>
<path id="Vector_54" d="M58.6 72.2C61 70.8 63.4 69.1999 65.6 67.4999C66.8 64.9999 67.7 62.4 68.4 59.7C64.9 63.2 60.9 66.2999 56.6 68.7999C52.3 71.2999 47.7 73.1999 43 74.3999C45.8 75.0999 48.6 75.5999 51.3 75.7999C53.7 74.7999 56.1 73.6 58.6 72.2Z" fill="#F5B918"/>
<path id="Vector_55" d="M58.6 72.2C61 70.8 63.4 69.1999 65.6 67.4999C66.8 64.9999 67.7 62.4 68.4 59.7C64.9 63.2 60.9 66.2999 56.6 68.7999C52.3 71.2999 47.7 73.1999 43 74.3999C45.8 75.0999 48.6 75.5999 51.3 75.7999C53.7 74.7999 56.1 73.6 58.6 72.2Z" stroke="#F5B918" stroke-width="1.4951"/>
<path id="Vector_56" d="M29.2 21C33.5 18.5 38.1 16.6 42.8 15.4C40.1 14.7 37.3 14.2 34.5 14C32 15 29.6 16.2 27.1 17.6C24.7 19 22.3 20.6 20.1 22.3C18.9 24.8 18 27.4 17.3 30.1C20.8 26.6 24.8 23.5 29.2 21Z" fill="#F5B918"/>
<path id="Vector_57" d="M29.2 21C33.5 18.5 38.1 16.6 42.8 15.4C40.1 14.7 37.3 14.2 34.5 14C32 15 29.6 16.2 27.1 17.6C24.7 19 22.3 20.6 20.1 22.3C18.9 24.8 18 27.4 17.3 30.1C20.8 26.6 24.8 23.5 29.2 21Z" stroke="#F5B918" stroke-width="1.4951"/>
<path id="Vector_58" d="M51 13.9C48.3 12.8 45.6 11.9 42.7 11.3C40 12 37.2 12.9 34.5 14C37.2 14.2 40 14.7 42.8 15.4C45.6 14.7 48.4 14.2 51 13.9Z" fill="#E9831C"/>
<path id="Vector_59" d="M51 13.9C48.3 12.8 45.6 11.9 42.7 11.3C40 12 37.2 12.9 34.5 14C37.2 14.2 40 14.7 42.8 15.4C45.6 14.7 48.4 14.2 51 13.9Z" stroke="#E9831C" stroke-width="1.4951"/>
<path id="Vector_60" d="M78.3 44.8C79.1 46.8 79.6 48.8 80 50.8C81 48.8 81.9 46.8 82.6 44.8C81.9 42.7 81 40.7 80 38.8C79.6 40.8 79.1 42.8 78.3 44.8Z" fill="#E9831C"/>
<path id="Vector_61" d="M78.3 44.8C79.1 46.8 79.6 48.8 80 50.8C81 48.8 81.9 46.8 82.6 44.8C81.9 42.7 81 40.7 80 38.8C79.6 40.8 79.1 42.8 78.3 44.8Z" stroke="#E9831C" stroke-width="1.4951"/>
<path id="Vector_62" d="M34.7 75.9C37.5 77 40.2 77.9 43 78.5C45.7 77.8 48.5 76.9 51.2 75.8C48.4 75.6 45.7 75.1 43 74.4C40.2 75.1 37.5 75.6 34.7 75.9Z" fill="#E9831C"/>
<path id="Vector_63" d="M34.7 75.9C37.5 77 40.2 77.9 43 78.5C45.7 77.8 48.5 76.9 51.2 75.8C48.4 75.6 45.7 75.1 43 74.4C40.2 75.1 37.5 75.6 34.7 75.9Z" stroke="#E9831C" stroke-width="1.4951"/>
<path id="Vector_64" d="M7.40001 45C6.60001 43.1 6.10001 41.1 5.70001 39C4.70001 40.9 3.80001 42.9 3.10001 45C3.80001 47 4.70001 49 5.70001 51C6.10001 49 6.70001 47 7.40001 45Z" fill="#E9831C"/>
<path id="Vector_65" d="M7.40001 45C6.60001 43.1 6.10001 41.1 5.70001 39C4.70001 40.9 3.80001 42.9 3.10001 45C3.80001 47 4.70001 49 5.70001 51C6.10001 49 6.70001 47 7.40001 45Z" stroke="#E9831C" stroke-width="1.4951"/>
<path id="Vector_66" d="M17.3 30.1C18.1 27.3 19 24.7 20.1 22.3C17.8 24 15.7 26 13.7 28C12.9 30.8 12.3 33.6 11.9 36.4C13.6 34.2 15.4 32.1 17.3 30.1Z" fill="#00863E"/>
<path id="Vector_67" d="M17.3 30.1C18.1 27.3 19 24.7 20.1 22.3C17.8 24 15.7 26 13.7 28C12.9 30.8 12.3 33.6 11.9 36.4C13.6 34.2 15.4 32.1 17.3 30.1Z" stroke="#00863E" stroke-width="1.4951"/>
<path id="Vector_68" d="M60.6 14.2C62.7 14.5 64.7 15.1 66.6 15.8C66.2 15.2 65.8 14.5 65.4 13.9C64.6 12.7 63.7 11.6 62.7 10.5C60.6 10.1 58.4 9.79999 56.2 9.79999C57.8 11.1 59.2 12.5 60.6 14.2Z" fill="#00863E"/>
<path id="Vector_69" d="M60.6 14.2C62.7 14.5 64.7 15.1 66.6 15.8C66.2 15.2 65.8 14.5 65.4 13.9C64.6 12.7 63.7 11.6 62.7 10.5C60.6 10.1 58.4 9.79999 56.2 9.79999C57.8 11.1 59.2 12.5 60.6 14.2Z" stroke="#00863E" stroke-width="1.4951"/>
<path id="Vector_70" d="M25.2 75.6C23.1 75.3 21.1 74.7 19.2 74C20.3 75.9 21.6 77.6 23.1 79.2C25.2 79.6 27.4 79.9 29.6 79.9C27.9 78.7 26.5 77.2 25.2 75.6Z" fill="#00863E"/>
<path id="Vector_71" d="M25.2 75.6C23.1 75.3 21.1 74.7 19.2 74C20.3 75.9 21.6 77.6 23.1 79.2C25.2 79.6 27.4 79.9 29.6 79.9C27.9 78.7 26.5 77.2 25.2 75.6Z" stroke="#00863E" stroke-width="1.4951"/>
<path id="Vector_72" d="M68.4 59.7C67.6 62.5 66.7 65.1 65.6 67.5C67.9 65.7 70.1 63.8 72 61.8C72.8 59 73.4 56.2 73.8 53.4C72.2 55.6 70.4 57.7 68.4 59.7Z" fill="#00863E"/>
<path id="Vector_73" d="M68.4 59.7C67.6 62.5 66.7 65.1 65.6 67.5C67.9 65.7 70.1 63.8 72 61.8C72.8 59 73.4 56.2 73.8 53.4C72.2 55.6 70.4 57.7 68.4 59.7Z" stroke="#00863E" stroke-width="1.4951"/>
</g>
</g>
</svg>
