<svg width="235" height="64" viewBox="0 0 235 64" fill="none" xmlns="http://www.w3.org/2000/svg">
<path fill-rule="evenodd" clip-rule="evenodd" d="M0 39.706C0 39.1018 1.01042 38.7008 1.01042 38.7008L8.85938 33.2685C8.85938 33.2685 9.05729 32.8622 9.26042 33.0654C9.45833 33.0654 9.66146 33.2685 9.66146 33.2685L10.4688 34.2737C10.4688 34.2737 10.4688 34.2737 10.4688 34.4716C10.4688 34.6747 10.2656 34.6747 10.2656 34.6747L9.05729 35.68C9.05729 35.68 8.85938 35.8831 8.85938 36.2841C8.85938 36.6904 9.05729 36.8883 9.05729 36.8883L19.5208 46.3466L17.9115 37.2893L14.8958 34.2737C14.8958 34.2737 14.0885 33.6695 13.8906 33.4664C12.8802 33.4664 12.0781 33.6695 12.0781 33.6695C12.0781 33.6695 11.6771 33.8727 11.474 33.8727C11.2708 33.6695 11.0729 33.4664 11.0729 33.4664L10.6667 32.8622C10.6667 32.8622 10.4688 32.6643 10.4688 32.2581C10.6667 32.0602 10.8698 31.857 10.8698 31.857L19.1198 26.8258C19.1198 26.8258 19.724 26.4247 19.9271 26.6279C20.125 26.6279 20.3281 26.8258 20.3281 26.8258L20.9323 27.6331C20.9323 27.6331 21.1302 27.831 21.1302 28.0341L20.9323 28.2372L19.5208 29.4456C19.5208 29.4456 19.3229 29.6435 19.3229 30.0445C19.3229 30.4508 19.724 30.6487 19.724 30.6487L30.1875 40.107L27.974 29.6435C27.974 29.6435 27.776 27.831 26.9688 27.0289C26.1667 26.2216 25.1563 26.2216 24.9583 26.4247C24.7552 26.4247 23.75 26.8258 23.75 26.8258C23.75 26.8258 23.349 27.0289 23.1458 26.8258C22.9427 26.8258 22.7448 26.6279 22.7448 26.6279L22.3385 26.0237C22.3385 26.0237 22.1406 25.8206 22.1406 25.2164C22.3385 25.0133 22.9427 24.6122 22.9427 24.6122L29.7865 20.9925C29.7865 20.9925 30.3906 20.5914 30.5885 20.7893C30.9948 20.7893 31.1927 21.3935 31.1927 21.3935C31.1927 21.3935 31.3958 21.7945 31.3958 21.9977C31.3958 22.3987 31.1927 22.6018 31.1927 22.6018C31.1927 22.6018 29.9896 23.8102 29.7865 24.8154C29.5833 25.8206 30.1875 28.2372 30.1875 28.2372L34.4167 48.357C34.4167 48.357 34.4167 48.5602 34.4167 48.7633C34.4167 48.9612 34.0104 49.1643 34.0104 49.1643L33.0052 49.9664C33.0052 49.9664 32.6042 50.1695 32.2031 49.9664C32 49.9664 31.599 49.5654 31.599 49.5654L20.9323 39.9091L23.5469 54.9977C23.5469 54.9977 23.5469 55.2008 23.5469 55.4039C23.5469 55.6018 23.1458 55.805 23.1458 55.805L22.3385 56.4091C22.3385 56.4091 22.1406 56.4091 21.9375 56.4091C21.7344 56.4091 21.3333 56.206 21.3333 56.206L4.83333 40.9143C4.83333 40.9143 4.02604 40.107 3.22396 40.3102C2.61979 40.3102 1.8125 40.7112 1.8125 40.7112C1.8125 40.7112 1.41146 40.9143 1.20833 40.7112C0.807292 40.7112 0.807293 40.7112 0.807293 40.7112C0.807293 40.7112 0.203125 40.107 0 39.706ZM32.2031 20.3883L32.6042 20.7893C32.6042 20.7893 32.6042 20.9925 32.8021 20.9925C33.2083 20.9925 33.8125 20.5914 33.8125 20.5914C33.8125 20.5914 34.0104 20.5914 34.4167 20.3883C34.8177 20.3883 35.0208 20.9925 35.0208 20.9925L39.6458 31.456C39.6458 31.456 39.6458 31.857 39.6458 32.0602C39.6458 32.4612 39.0417 32.6643 39.0417 32.6643L38.4375 33.0654C38.4375 33.0654 38.2396 33.2685 38.2396 33.4664C38.0365 33.6695 38.2396 33.8727 38.2396 33.8727L38.4375 34.2737C38.4375 34.2737 38.6406 34.4716 38.8438 34.4716C39.0417 34.4716 39.2448 34.2737 39.2448 34.2737L45.2813 31.456C45.2813 31.456 45.6823 31.2529 45.6823 31.055C45.6823 30.8518 45.6823 30.8518 45.6823 30.8518L45.4844 30.4508C45.4844 30.4508 45.2813 30.2477 45.0781 30.2477C44.8802 30.0445 44.474 30.2477 44.474 30.2477L44.0729 30.4508C44.0729 30.4508 43.6719 30.6487 43.4688 30.6487C43.0677 30.6487 42.8646 30.0445 42.8646 30.0445L38.4375 19.9872C38.4375 19.9872 38.2396 19.581 38.2396 19.18C38.2396 18.7789 38.8438 18.3727 38.8438 18.3727L39.4427 17.9716L39.6458 17.7737C39.6458 17.5706 39.6458 17.3674 39.6458 17.3674L39.2448 16.7633C39.2448 16.7633 39.2448 16.7633 39.0417 16.7633C38.8438 16.5654 38.6406 16.7633 38.6406 16.7633L32.6042 19.581L32.2031 19.7841V20.3883ZM41.0573 16.1591L41.4583 16.7633C41.4583 16.7633 41.4583 16.9664 41.6615 16.9664C41.8594 16.9664 41.8594 16.9664 41.8594 16.9664C41.8594 16.9664 42.2656 16.7633 43.0677 16.9664C44.0729 17.1695 44.276 18.3727 44.276 18.3727L47.4948 26.4247C47.4948 26.4247 47.8958 27.6331 47.6979 28.2372C47.4948 28.8414 47.0938 29.0393 47.0938 29.0393L46.6927 29.4456C46.6927 29.4456 46.4896 29.6435 46.4896 29.8466C46.2865 29.8466 46.4896 30.0445 46.4896 30.0445L46.6927 30.6487C46.6927 30.6487 46.8906 30.6487 47.0938 30.8518C47.2917 30.8518 47.4948 30.6487 47.4948 30.6487L51.9219 28.8414C51.9219 28.8414 52.125 28.8414 52.3229 28.6383C52.3229 28.4352 52.3229 28.2372 52.3229 28.2372L52.125 27.831L51.9219 27.6331C51.7188 27.6331 51.3177 27.6331 51.3177 27.6331C51.3177 27.6331 50.7135 27.831 50.1094 27.6331C49.3073 27.2268 48.9063 26.0237 48.9063 26.0237L46.0885 18.5758L57.9583 26.0237C57.9583 26.0237 58.1615 26.2216 58.3594 26.2216C58.5625 26.4247 58.7656 26.2216 58.7656 26.2216L59.3698 26.0237C59.3698 26.0237 59.7708 25.8206 59.7708 25.6175C59.7708 25.4195 59.5677 25.2164 59.5677 25.2164L55.5417 14.3518C55.5417 14.3518 55.1406 13.5445 55.3438 12.5393C55.3438 11.9352 55.9479 11.5341 55.9479 11.5341C55.9479 11.5341 56.1458 11.331 56.349 11.331C56.349 11.1279 56.349 10.9299 56.349 10.9299L55.9479 10.1227H55.7448C55.5417 10.1227 55.1406 10.1227 55.1406 10.1227L51.3177 11.732C51.3177 11.732 51.1146 11.9352 50.9167 12.1383C50.7135 12.3362 50.9167 12.5393 50.9167 12.5393L51.1146 13.1435C51.1146 13.1435 51.3177 13.1435 51.5208 13.1435H51.7188C51.7188 13.1435 52.526 12.9404 53.1302 13.3414C53.7344 13.5445 54.1354 14.7529 54.1354 14.7529L56.349 20.5914L46.4896 14.3518C46.4896 14.3518 45.8854 14.1487 45.6823 13.9456C45.4844 13.9456 44.8802 14.1487 44.8802 14.1487L41.4583 15.5602C41.4583 15.5602 41.0573 15.7581 41.0573 15.9612V16.1591ZM61.7813 24.6122C61.7813 25.0133 61.9844 25.0133 62.3854 25.0133C62.7865 25.0133 63.1927 24.2112 63.3906 24.0081C63.5938 23.8102 63.5938 23.8102 63.7969 23.607C64.1979 23.607 65.2031 24.2112 67.8177 23.8102C70.4375 23.4039 72.0469 20.7893 72.25 18.5758C72.25 16.3622 71.2396 14.956 69.8333 14.1487C68.0208 12.9404 65.2031 13.5445 63.9948 13.5445C62.7865 13.5445 60.776 13.3414 60.776 11.5341C60.776 9.92474 62.3854 9.11745 63.7969 9.11745C65.0052 8.91432 65.8073 9.51849 66.2083 9.92474C66.8125 10.1227 68.224 11.9352 68.4219 12.1383C68.625 12.5393 69.026 12.7372 69.4323 12.5393C70.0313 12.1383 69.8333 11.5341 69.8333 11.5341L68.224 6.70078C68.224 6.70078 68.224 6.50287 68.0208 6.29974C67.8177 6.29974 67.6198 6.70078 67.4167 6.90391C67.4167 7.50807 66.8125 7.7112 66.8125 7.90912C66.6146 7.90912 66.4115 7.7112 66.2083 7.7112C65.8073 7.7112 64.1979 6.90391 61.5833 7.90912C59.1667 9.11745 58.3594 11.732 58.5625 13.3414C58.7656 14.7529 59.7708 16.7633 61.7813 17.5706C63.7969 18.1747 65.8073 17.7737 66.4115 17.7737C67.0156 17.5706 69.6302 17.5706 69.8333 19.7841C70.0313 21.9977 66.8125 23.0029 64.8021 21.9977C62.5885 20.7893 62.1875 19.7841 61.9844 19.581C61.7813 19.581 61.5833 18.5758 60.5781 18.7789C59.7708 18.9768 60.375 19.9872 60.375 19.9872C60.375 19.9872 61.5833 24.4143 61.7813 24.6122ZM72.651 13.7477C73.4531 18.7789 77.8802 21.1904 81.9063 20.5914C85.5313 19.7841 88.9479 15.9612 87.5417 10.3258C86.1302 4.69037 81.5052 3.08099 78.4844 3.88828C75.6667 4.48724 71.6458 7.50807 72.651 13.7477ZM78.6875 5.29453C80.901 4.69037 82.7135 6.70078 83.7188 11.5341C84.724 16.7633 83.3125 18.7789 81.5052 19.18C79.6927 19.581 77.4792 17.5706 76.474 12.7372C75.4688 7.50807 76.875 5.69557 78.6875 5.29453ZM87.1406 2.87787L87.3385 3.48203C87.3385 3.48203 87.3385 3.68516 87.3385 3.88828C87.5417 3.88828 87.9427 3.88828 87.9427 3.88828H88.5469C88.5469 3.88828 89.151 3.88828 89.3542 4.0862C89.5521 4.0862 89.5521 5.09141 89.5521 5.09141L90.7604 15.9612C90.7604 15.9612 90.7604 16.7633 90.3594 16.9664C90.3594 17.1695 89.3542 17.3674 89.3542 17.3674C89.3542 17.3674 89.151 17.3675 88.9479 17.5706C88.75 17.5706 88.75 17.7737 88.75 17.7737V18.3727C88.75 18.3727 88.75 18.3727 88.9479 18.5758C89.151 18.7789 89.7552 18.7789 89.7552 18.7789L95.7917 18.1747C95.7917 18.1747 96.1927 17.9716 96.3958 17.9716C96.599 17.7737 96.599 17.7737 96.599 17.7737V17.1695C96.599 17.1695 96.599 16.9664 96.3958 16.7633C96.3958 16.5654 95.7917 16.7633 95.7917 16.7633H95.3906C95.3906 16.7633 94.9896 16.7633 94.5833 16.5654C94.1823 16.3622 94.3854 15.357 94.3854 15.357C94.3854 15.357 93.9792 11.1279 93.9792 10.9299C93.9792 10.7268 94.3854 10.5237 94.3854 10.5237C94.5833 10.5237 94.5833 10.5237 95.5885 10.5237C97.401 10.5237 97.401 12.5393 97.8021 14.956C98.2083 17.1695 99.6146 18.1747 101.625 17.7737C103.844 17.3675 104.042 15.1539 104.245 14.5497C104.245 14.1487 104.245 13.7477 103.641 13.5445C103.036 13.3414 103.036 14.3518 102.833 14.956C102.635 15.5602 102.432 15.5602 102.031 15.5602C101.625 15.357 101.625 13.5445 101.427 12.5393C101.224 11.331 100.823 10.3258 99.4167 9.51849C99.4167 9.51849 101.625 8.11224 101.828 5.69557C101.828 4.0862 100.62 2.67995 99.4167 2.2737C97.6042 1.47162 94.1823 1.87266 94.1823 1.87266L88.1458 2.47682C88.1458 2.47682 87.3385 2.47682 87.3385 2.67995L87.1406 2.87787ZM93.375 3.48203C93.5781 3.28412 94.5833 3.28412 94.5833 3.28412C94.5833 3.28412 96.1927 3.08099 97 3.68516C97.8021 4.28932 98.0052 5.29453 98.0052 6.10182C98.0052 7.10703 98.2083 8.51328 95.3906 8.91432C94.3854 9.11745 94.1823 9.11745 94.1823 9.11745C93.7813 9.11745 93.7813 8.91433 93.7813 8.71641C93.5781 8.51328 93.1771 4.28932 93.1771 4.28932C93.1771 4.28932 93.1771 3.68516 93.375 3.48203ZM127.99 0.664325L127.792 1.26849L127.99 1.47162C127.99 1.66953 128.193 1.66953 128.193 1.66953L128.797 1.87266C128.995 1.87266 129.599 2.2737 130.005 3.08099L129.401 12.3362C129.401 12.3362 129.401 14.1487 128.391 14.7529C127.99 15.1539 127.385 15.1539 127.385 15.1539C127.385 15.1539 127.188 15.357 126.984 15.357L126.781 15.5602V16.1591C126.781 16.1591 126.984 16.3622 126.984 16.5654C127.188 16.5654 127.589 16.5654 127.589 16.5654L132.219 16.9664C132.219 16.9664 132.62 16.9664 132.62 16.7633L132.823 16.5654V15.7581C132.62 15.5602 132.417 15.5602 132.417 15.5602L131.813 15.357C131.813 15.357 131.411 15.1539 131.01 14.7529C130.807 14.1487 130.807 12.7372 130.807 12.7372L131.411 5.49766V5.29453C131.615 5.29453 131.615 5.49766 131.615 5.49766L138.854 16.9664C138.854 16.9664 139.057 17.1695 139.26 17.3674C139.458 17.5706 139.661 17.5706 139.661 17.5706H140.469C140.469 17.5706 140.667 17.3675 140.87 17.1695V16.3622L141.677 5.29453C141.677 5.29453 141.875 4.0862 142.276 3.48203C142.479 3.28412 142.88 3.08099 142.88 2.87787C143.083 2.87787 143.484 2.87787 143.688 2.87787C143.891 2.67995 143.891 2.47682 143.891 2.47682L144.089 1.87266C144.089 1.87266 143.891 1.66953 143.891 1.47162C143.688 1.26849 143.286 1.26849 143.286 1.26849L139.057 1.07057C139.057 1.07057 138.656 1.07057 138.453 1.26849V2.2737C138.453 2.2737 138.453 2.2737 138.453 2.47682C138.656 2.47682 138.854 2.47682 138.854 2.47682C138.854 2.47682 139.458 2.67995 139.865 3.08099C140.469 3.68516 140.469 4.69037 140.469 4.69037L139.865 10.5237C139.865 10.5237 139.865 10.9299 139.661 10.9299L139.26 10.5237L133.625 1.26849C133.625 1.26849 133.224 0.86745 133.224 0.664325C133.021 0.664325 132.016 0.466408 132.016 0.466408L128.797 0.263283C128.797 0.263283 128.391 0.263284 128.193 0.466408L127.99 0.664325ZM145.901 2.07578L145.698 2.87787V3.08099C145.901 3.28412 146.104 3.28412 146.104 3.28412L146.906 3.48203C146.906 3.48203 147.307 3.68516 147.51 3.88828C147.51 4.0862 147.51 4.48724 147.51 4.48724L145.5 15.9612C145.5 15.9612 145.297 16.3622 145.094 16.5654C144.896 16.7633 143.891 16.5654 143.891 16.5654H143.484C143.286 16.5654 143.083 16.7633 143.083 16.7633L142.88 17.3674L143.083 17.7737C143.286 17.9716 143.688 17.9716 143.688 17.9716L155.359 20.1852C155.359 20.1852 155.76 20.1852 156.161 20.1852C156.365 20.1852 156.568 19.18 156.568 19.18L157.573 15.357C157.573 15.357 157.776 14.7529 157.573 14.3518C157.573 14.3518 157.37 13.9456 156.766 14.1487C156.365 14.1487 155.76 15.9612 154.552 16.7633C153.146 18.1747 152.141 18.1747 150.932 17.9716C149.521 17.7737 149.12 17.3675 149.12 17.1695C148.917 16.9664 149.12 16.3622 149.12 16.3622L149.927 12.1383C149.927 12.1383 149.927 11.732 150.125 11.5341C150.328 11.5341 150.328 11.5341 150.526 11.5341C151.13 11.5341 151.734 12.1383 151.938 12.7372C152.141 13.5445 152.141 14.5497 152.339 15.1539C152.542 15.5602 153.146 15.5602 153.344 15.357C153.547 15.357 153.75 14.7529 153.75 14.7529L154.755 8.51328C154.755 8.51328 154.958 8.31537 154.755 7.90912C154.755 7.50807 154.354 7.50807 153.948 7.50807C153.547 7.30495 153.146 8.71641 152.339 9.51849C151.333 10.1227 150.932 9.92474 150.729 9.92474C150.729 9.92474 150.526 9.92474 150.526 9.72162C150.328 9.72162 150.328 9.51849 150.328 9.51849L151.13 4.89349C151.13 4.89349 151.333 4.69037 151.536 4.48724C151.734 4.48724 152.141 4.48724 152.141 4.48724C152.141 4.48724 154.552 4.69037 155.563 5.69557C156.766 7.10703 156.969 8.71641 156.969 9.11745C156.969 9.51849 156.969 9.72162 157.172 9.92474C157.172 10.1227 157.776 10.1227 157.974 10.1227C158.38 10.1227 158.38 9.11745 158.38 9.11745L158.979 5.09141C158.979 5.09141 158.979 4.69037 158.979 4.48724C158.781 4.28933 157.37 3.88828 157.37 3.88828L146.505 1.87266C146.505 1.87266 146.104 1.87266 145.901 2.07578ZM117.927 7.50807C117.927 7.50807 117.927 7.90912 117.927 8.11224C118.13 8.51328 118.531 8.51328 118.531 8.51328C118.531 8.51328 118.333 8.51328 118.938 8.51328C119.536 8.71641 119.74 9.32057 119.74 9.51849C119.74 9.92474 119.536 10.3258 119.536 10.3258L119.135 11.1279C119.135 11.1279 118.938 11.331 118.734 11.331C118.531 11.331 118.531 11.1279 118.531 11.1279C118.531 11.1279 116.318 7.90912 116.115 7.50807C116.115 7.30495 116.115 7.10703 116.318 7.10703C120.745 5.09141 119.135 2.07578 118.938 1.66953C118.333 0.664325 116.318 -0.741925 113.5 0.466408C109.88 2.2737 112.094 7.50807 112.094 7.50807C112.094 7.50807 107.667 9.51849 108.672 13.3414C109.276 16.1591 111.286 16.9664 113.302 16.9664C115.917 16.9664 117.125 15.5602 117.526 15.5602C118.734 16.3622 119.74 16.5654 120.141 16.5654C120.745 16.5654 121.552 16.7633 122.755 15.5602C123.964 14.5497 124.167 13.1435 124.167 12.9404C124.167 12.5393 123.964 12.5393 123.964 12.5393C123.964 12.5393 123.766 12.3362 123.359 12.3362C123.161 12.3362 122.958 13.3414 122.755 13.5445C122.557 13.9456 122.156 14.3518 121.349 14.1487C120.542 13.9456 119.943 12.9404 119.943 12.9404V12.7372C119.943 12.5393 120.141 12.5393 120.141 12.5393L121.349 9.92474C121.349 9.92474 121.75 8.91433 122.156 8.71641C122.354 8.51328 122.958 8.31537 122.958 8.31537C122.958 8.31537 123.161 8.31537 123.359 8.31537C123.563 8.11224 123.563 7.90912 123.563 7.90912V7.50807C123.563 7.50807 123.563 7.30495 123.359 7.10703C123.161 7.10703 122.755 7.10703 122.755 7.10703H118.531C118.531 7.10703 118.333 7.10703 118.13 7.30495L117.927 7.50807ZM115.714 1.47162C116.719 1.47162 117.323 2.2737 117.323 3.48203C117.125 5.49766 115.714 5.8987 115.516 5.8987C115.313 5.8987 115.313 5.69557 115.313 5.69557C114.505 4.69037 114.307 3.68516 114.307 3.08099C114.307 1.47162 115.313 1.47162 115.714 1.47162ZM116.115 14.3518C116.115 14.5497 115.714 14.956 114.911 14.956C113.5 14.956 111.891 12.5393 111.891 10.9299C111.693 9.72162 112.495 9.11745 112.495 9.11745L112.698 8.91432C112.698 8.91432 112.495 8.71641 112.896 9.11745C113.302 9.72162 116.115 14.1487 116.115 14.1487V14.3518ZM160.589 4.89349C160.589 4.89349 160.391 5.29453 160.391 5.69557C160.391 5.8987 160.589 6.10182 160.589 6.10182C160.589 6.10182 161.193 6.29974 161.396 6.70078C161.797 7.10703 161.797 8.31537 161.797 8.31537L162.604 21.3935V21.7945C162.802 21.9977 162.802 21.9977 162.802 21.9977L163.609 22.2008C163.609 22.2008 163.813 22.2008 164.01 22.2008L164.214 21.7945L168.844 14.956C168.844 14.956 169.042 14.7529 169.245 14.7529V14.956L169.849 23.4039V23.607C170.047 23.8102 170.25 23.8102 170.25 23.8102L170.854 24.0081H171.255C171.458 24.0081 171.661 23.607 171.661 23.607L177.896 13.5445C177.896 13.5445 178.703 12.3362 179.307 11.9352C179.911 11.331 180.516 11.331 180.516 11.331C180.516 11.331 180.917 11.5341 181.12 11.331C181.318 11.1279 181.521 10.5237 181.521 10.5237C181.521 10.5237 181.521 10.3258 181.521 10.1227C181.318 10.1227 180.917 9.92474 180.917 9.92474L176.688 8.91432C176.688 8.91432 176.286 8.71641 176.083 8.91432C175.885 8.91432 175.682 9.11745 175.682 9.11745V9.92474C175.885 10.1227 176.083 10.1227 176.083 10.1227L176.688 10.3258C176.891 10.5237 177.292 10.9299 177.292 11.5341C177.094 12.3362 176.49 13.1435 176.49 13.1435L173.672 17.7737L173.271 18.1747C173.068 18.1747 172.865 17.3674 172.865 17.3674L172.667 10.1227C172.667 10.1227 172.667 9.72162 172.667 9.51849C172.865 9.51849 173.068 9.51849 173.068 9.51849H173.672C173.672 9.51849 173.87 9.51849 173.87 9.32057C174.073 9.32057 174.073 9.32057 174.073 9.32057L174.276 8.51328C174.276 8.51328 174.276 8.51328 174.276 8.31537C174.073 8.11224 173.672 8.11224 173.672 8.11224L168.641 6.70078C168.641 6.70078 168.24 6.70078 168.036 6.70078L167.833 6.90391L167.635 7.50807C167.635 7.50807 167.432 7.7112 167.833 7.90912L168.24 8.11224C168.24 8.11224 168.24 8.11224 168.641 8.51328C168.844 8.71641 169.042 9.32057 169.042 9.32057V11.9352L166.224 16.1591C166.224 16.1591 166.224 16.1591 166.026 16.1591C165.823 16.1591 165.823 15.9612 165.823 15.9612L165.422 8.31537C165.422 8.31537 165.422 7.90912 165.62 7.7112C165.62 7.50807 165.823 7.50807 165.823 7.50807H166.625C166.828 7.50807 166.828 7.50807 166.828 7.50807L167.031 6.90391V6.50287C167.031 6.29974 166.625 6.10182 166.625 6.10182L161.396 4.89349C161.396 4.89349 160.995 4.69037 160.792 4.69037C160.589 4.89349 160.589 4.89349 160.589 4.89349ZM194.198 23.0029C191.781 27.43 193.797 32.2581 197.417 34.0706C200.635 35.8831 205.87 35.0758 208.286 29.8466C210.698 24.4143 207.682 19.9872 204.865 18.7789C202.245 17.5706 197.219 17.3675 194.198 23.0029ZM204.26 19.9872C206.271 20.7893 206.474 24.0081 204.26 28.4352C201.844 33.2685 199.833 33.8727 198.021 32.8622C196.411 32.0602 195.604 29.0393 197.823 24.6122C200.438 19.9872 202.448 19.18 204.26 19.9872ZM182.526 11.1279C182.526 11.1279 181.12 14.5497 180.917 15.357C180.516 16.3622 180.917 16.5654 181.12 16.5654C181.318 16.7633 181.521 16.7633 181.922 15.9612C183.938 12.7372 186.349 13.1435 186.75 13.3414C187.156 13.5445 186.953 14.1487 186.953 14.1487L182.927 25.2164C182.927 25.2164 182.729 25.8206 182.323 25.8206C182.125 26.0237 181.719 25.8206 181.719 25.8206L180.917 25.6175H180.714C180.516 25.6175 180.313 25.8206 180.313 25.8206L180.109 26.4247V26.6279C180.313 26.8258 180.516 26.8258 180.516 26.8258L186.953 29.2425L187.354 29.4456C187.557 29.4456 187.755 29.2425 187.755 29.2425L187.958 28.8414C187.958 28.8414 187.958 28.6383 187.958 28.4352C187.755 28.2372 187.557 28.0341 187.557 28.0341L186.552 27.6331C186.552 27.6331 186.146 27.43 186.146 27.0289C186.146 26.8258 186.349 26.4247 186.349 26.4247L190.375 15.357C190.375 15.1539 190.573 14.7529 191.38 15.1539C193.193 15.7581 192.99 18.9768 192.99 19.18C192.99 19.3831 192.792 20.3883 192.792 20.7893C192.99 21.3935 193.391 21.3935 193.594 21.3935C193.995 21.3935 194.401 20.3883 194.401 20.3883L195.604 16.1591C195.604 16.1591 195.604 15.7581 195.604 15.5602C195.406 15.1539 195.203 15.1539 195.203 15.1539L183.531 10.7268C183.531 10.7268 183.333 10.5237 183.13 10.5237C182.729 10.7268 182.526 11.1279 182.526 11.1279ZM219.354 55.6018C219.354 55.6018 227.802 40.3102 228.813 38.4977C229.818 36.6904 230.823 36.6904 231.224 36.6904C231.828 36.6904 232.432 36.6904 232.432 36.6904C232.432 36.8883 232.833 36.8883 233.24 36.8883C233.438 36.6904 233.641 36.6904 233.641 36.6904L234.245 35.68C234.245 35.68 234.448 35.482 234.245 35.0758C234.245 34.8779 233.641 34.6747 233.641 34.6747L227 31.055C227 31.055 226.797 30.8518 226.599 30.8518C226.193 30.8518 225.995 31.055 225.995 31.055L225.589 32.0602L225.391 32.4612C225.391 32.6643 225.792 32.8622 225.792 32.8622L226.599 33.4664C226.599 33.4664 227.198 33.8727 227.401 35.0758C227.604 36.2841 226.599 37.4925 226.599 37.4925L221.766 46.1435C221.766 46.1435 221.568 46.3466 221.365 46.3466V45.9456L218.948 27.6331C218.948 27.6331 218.948 27.0289 218.75 26.6279C218.547 26.4247 217.745 25.8206 217.745 25.8206C217.745 25.8206 212.109 22.6018 212.109 22.7997C212.109 22.7997 211.703 22.3987 211.302 22.6018H211.104L210.5 23.607C210.5 23.607 210.297 23.8102 210.5 24.2112C210.5 24.6122 211.302 24.8154 211.703 25.4195C212.307 26.0237 212.51 27.2268 212.51 27.43C212.51 27.831 212.109 28.4352 212.109 28.4352L205.063 41.5185C205.063 41.5185 204.26 42.9247 203.255 43.732C202.651 44.1331 201.24 44.1331 201.036 44.1331C200.635 43.93 200.234 43.732 199.833 43.732C199.63 43.732 199.432 43.93 199.432 43.93L199.026 44.9404C199.026 44.9404 198.828 45.1383 199.026 45.3414C199.026 45.7425 199.63 45.9456 199.63 45.9456L206.474 49.9664C206.474 49.9664 206.875 49.9664 207.078 49.9664C207.276 49.9664 207.479 49.7685 207.479 49.7685L208.083 48.7633C208.083 48.7633 208.083 48.7633 208.083 48.357C208.083 48.1591 207.682 48.1591 207.479 47.956C206.672 47.3518 206.271 46.3466 206.068 45.3414C206.068 44.7372 206.474 43.732 206.474 43.732L212.714 32.2581L213.115 31.857C213.313 31.857 213.516 32.2581 213.516 32.2581L216.333 54.5966C216.333 54.5966 216.536 54.9977 216.536 55.2008C216.734 55.4039 216.938 55.6018 216.938 55.6018L217.943 56.206C217.943 56.206 218.344 56.4091 218.75 56.4091C218.948 56.206 219.354 55.6018 219.354 55.6018Z" fill="#231F20"/>
<path fill-rule="evenodd" clip-rule="evenodd" d="M71.8437 52.1852H34.0104C49.1041 42.9247 68.2239 37.2893 71.8437 36.2841V37.6956C49.3073 44.7372 40.0468 50.7737 40.0468 50.7737H71.8437V52.1852Z" fill="#231F20"/>
<path fill-rule="evenodd" clip-rule="evenodd" d="M166.026 52.1852H206.474C191.177 42.9248 172.266 37.2893 165.823 35.4821V37.0914C190.979 44.7373 200.437 50.7737 200.437 50.7737H166.026V52.1852Z" fill="#231F20"/>
<path fill-rule="evenodd" clip-rule="evenodd" d="M125.979 42.1226V27.6331C125.172 26.8258 124.771 24.6122 124.974 24.6122C125.172 24.4143 130.604 24.0081 131.615 24.2112C132.823 24.2112 133.625 24.8153 134.026 24.8153C134.432 24.8153 138.052 25.0133 139.458 25.4195C140.667 25.8206 140.87 25.2164 141.271 25.6174C141.474 26.0237 141.875 28.2372 141.474 29.0393C141.073 29.8466 139.865 30.0445 138.052 30.0445C136.036 29.8466 134.63 29.4456 134.63 31.456C134.63 31.456 137.047 30.2476 140.469 30.2476C142.479 30.2476 145.5 29.8466 145.698 29.0393C146.104 28.2372 146.104 27.0289 146.104 27.0289C146.104 26.8258 146.302 27.0289 146.505 27.2268C146.906 27.6331 147.307 28.2372 147.109 29.4456C146.703 30.4508 145.297 32.0601 142.479 32.0601C141.677 32.0601 141.677 32.2581 141.474 32.4612C141.474 32.6643 141.474 34.0706 139.26 34.6747C138.453 34.8778 138.656 35.2789 138.656 35.482C138.656 35.6799 141.271 45.9456 141.271 45.9456C142.682 45.7424 149.724 41.9195 151.536 41.1174C152.141 40.9143 155.156 41.3153 155.964 41.3153C156.766 41.3153 157.776 41.1174 158.177 41.1174C158.578 41.3153 159.385 41.7164 159.583 41.9195C159.786 42.1226 160.995 42.3206 160.995 43.1278C160.995 43.9299 160.792 43.9299 160.792 43.9299C161.599 45.5445 160.391 46.9508 160.391 46.9508C160.391 48.5601 158.979 50.1695 157.573 49.7685C156.568 49.5653 157.776 48.7633 157.776 48.7633C154.552 49.3674 154.354 47.956 154.354 47.956C153.146 47.5549 152.339 47.1539 152.339 47.1539C149.323 48.357 144.896 52.7841 144.896 52.7841C146.703 53.3883 151.13 52.1851 151.536 52.3831C151.937 52.5862 155.562 54.1956 156.161 54.1956C156.766 54.3987 158.578 54.5966 158.578 54.7997C158.781 54.9976 159.786 56.206 159.99 56.4091C160.187 56.6122 159.786 57.8153 159.786 57.8153C160.187 59.4299 158.38 60.8362 158.38 60.8362C157.974 62.6487 156.365 63.0497 155.562 62.8466C154.755 62.8466 155.562 62.2424 155.359 62.0445C155.156 61.8414 154.151 62.0445 153.344 61.4403C152.339 60.6331 152.141 59.831 152.141 59.831C150.932 59.831 150.729 58.4195 150.729 58.4195C149.927 58.4195 149.323 58.6226 149.323 58.6226C145.901 59.2268 141.474 60.8362 141.474 60.8362C141.474 60.8362 138.656 61.8414 136.443 61.8414C134.026 61.8414 132.62 61.4403 132.62 61.4403C125.375 63.6539 122.354 63.2528 122.354 63.2528C122.354 63.2528 115.917 63.4508 110.078 60.4351C106.057 58.0185 100.021 53.5914 100.021 53.5914C100.62 63.4508 91.1614 63.6539 90.3594 63.6539C79.2916 62.8466 79.2916 51.7789 79.2916 51.7789C79.4896 45.3414 85.9323 41.7164 85.9323 41.7164C83.9219 40.3101 82.3073 40.5133 80.6979 40.3101C79.0885 39.9091 76.2708 39.5028 75.6666 39.1018C75.4687 38.8987 79.0885 35.8831 82.3073 36.2841C82.5104 36.2841 80.5 33.8726 81.3021 33.2685C81.7031 32.8622 84.3229 33.0653 84.7239 33.2685C85.125 33.6695 84.3229 32.0601 85.9323 29.8466C86.9375 28.6383 89.151 26.8258 89.3541 26.8258C89.7552 26.8258 88.3489 32.2581 88.3489 33.0653C88.3489 33.8726 88.3489 36.0862 89.9583 37.8935C91.5677 39.706 92.1719 40.5133 92.5729 40.5133C92.9739 40.5133 95.1875 40.107 95.9948 40.3101C96.5989 40.5133 92.1719 34.0706 92.1719 24.0081C92.1719 24.0081 93.5781 24.4143 95.1875 24.4143C96.1927 24.2112 114.307 24.4143 114.307 24.4143C124.568 24.2112 124.568 33.0653 124.568 34.2737C124.568 36.2841 122.557 37.8935 122.557 38.0966C122.557 38.0966 123.161 40.9143 125.573 42.3206C126.177 42.7268 125.979 42.1226 125.979 42.1226ZM90.9635 54.1956C92.1719 54.1956 92.776 52.9872 92.776 52.3831C92.776 51.7789 92.3698 50.3726 92.3698 50.3726C92.3698 50.3726 89.7552 50.5706 89.7552 52.3831C89.7552 54.1956 90.7604 54.1956 90.9635 54.1956ZM90.3594 61.6435C94.1823 61.6435 98.0052 59.6278 98.0052 54.5966C98.0052 52.3831 97.2031 51.581 97.2031 51.581C94.3854 49.7685 92.9739 50.3726 92.9739 50.3726C93.375 51.3778 93.375 52.1851 93.375 52.5862C93.375 52.9872 92.5729 54.9976 90.7604 54.9976C88.75 54.9976 88.5469 53.1903 88.5469 52.1851C88.5469 51.1747 90.1562 49.3674 92.776 49.3674C95.3906 49.3674 99.6146 51.7789 102.229 53.9924C105.047 56.4091 111.693 61.2372 117.526 61.6435C123.359 62.0445 121.75 62.2424 124.974 61.8414C127.99 61.6435 130.604 61.0393 130.604 61.0393C128.594 61.0393 128.391 60.232 127.99 59.2268C127.589 58.0185 127.385 56.8101 127.187 56.4091C126.984 56.206 127.589 56.4091 127.99 57.0133C128.193 57.6174 128.797 59.831 129.198 60.0289C129.802 60.4351 130.807 60.0289 131.411 60.232C132.016 60.232 134.833 60.8362 136.036 60.8362C138.453 60.8362 141.875 59.831 144.693 58.8258C147.307 58.0185 149.323 57.6174 150.328 57.6174C150.729 57.6174 151.13 57.8153 151.536 58.6226C151.734 58.8258 152.141 58.4195 151.937 58.0185C151.937 58.0185 152.339 57.8153 152.542 58.2216C152.943 58.6226 152.943 59.0237 152.943 59.4299C152.943 60.0289 152.745 60.4351 153.344 60.6331C153.948 61.0393 155.359 61.6435 156.161 60.6331C156.969 59.831 156.766 59.0237 156.766 59.0237C154.354 58.0185 153.146 56.8101 153.146 56.6122C152.943 56.4091 152.542 54.9976 152.943 55.2008C153.344 55.4039 153.344 55.6018 153.547 55.8049C153.75 56.0081 155.156 57.2112 155.76 57.6174C156.161 57.8153 157.172 58.8258 157.37 58.8258C157.573 58.6226 158.578 57.6174 158.38 57.2112C157.974 56.8101 157.573 57.0133 157.172 56.8101C156.969 56.8101 153.547 55.4039 153.344 54.9976C153.146 54.7997 152.943 53.5914 152.542 53.3883C152.141 53.1903 151.937 52.9872 151.13 52.9872C150.125 52.9872 145.901 53.7945 143.083 53.7945C140.266 53.7945 137.448 53.7945 137.245 53.5914C137.047 53.3883 137.245 52.5862 137.448 52.3831C137.651 52.1851 137.849 53.1903 137.849 53.1903C138.052 53.1903 140.87 53.5914 140.469 52.1851C140.469 52.1851 140.062 52.5862 139.057 52.5862C138.052 52.5862 137.448 51.581 137.448 51.581C135.234 54.3987 133.422 51.581 133.422 51.581C131.01 54.1956 129.401 51.1747 129.401 51.1747C127.385 53.9924 125.375 50.5706 125.375 50.5706C120.948 54.1956 118.13 54.1956 115.109 54.1956C111.891 54.3987 106.057 52.7841 102.432 49.5653C100.62 47.956 99.4166 46.3466 98.2083 44.5341C97.2031 42.7268 96.5989 41.5185 96.5989 41.5185C91.7656 40.7112 92.3698 41.1174 90.9635 41.1174C89.5521 41.3153 79.8958 42.3206 79.8958 51.982C79.8958 60.4351 88.1458 63.0497 90.5573 62.6487C92.3698 62.6487 100.62 61.2372 98.4062 52.5862C98.4062 52.5862 100.021 61.6435 90.3594 62.0445C86.1302 62.4456 80.5 58.2216 80.5 51.1747C80.5 50.9768 80.6979 50.5706 80.6979 51.1747C80.6979 51.982 81.3021 61.6435 90.3594 61.6435ZM156.365 61.8414C156.161 62.2424 155.964 62.6487 156.766 62.4456C157.37 62.0445 157.776 60.4351 157.573 60.4351C157.172 60.4351 156.568 61.4403 156.365 61.8414ZM158.979 57.4143C159.182 57.6174 159.385 56.8101 159.182 56.8101C158.979 56.6122 158.781 57.2112 158.979 57.4143ZM157.974 59.831C157.974 60.0289 158.38 60.232 158.578 59.831C158.979 59.6278 159.182 58.4195 158.979 58.4195C158.578 58.6226 157.974 59.6278 157.974 59.831ZM158.177 56.6122C158.38 56.4091 158.578 55.2008 158.38 55.2008C156.969 55.2008 153.948 54.1956 153.75 53.9924C153.75 53.7945 153.75 53.9924 153.948 54.1956C154.151 54.3987 154.552 54.5966 154.958 54.7997C155.562 55.4039 156.766 56.4091 157.776 56.4091C157.974 56.6122 158.177 56.6122 158.177 56.6122ZM141.677 48.357C141.677 48.7633 141.677 51.982 141.677 52.1851C141.677 52.1851 141.677 52.3831 141.875 52.3831C142.078 52.3831 144.292 50.7737 144.693 50.3726C145.297 49.9664 148.719 47.3518 149.927 46.5497C150.526 46.3466 151.333 45.9456 151.734 45.9456C152.339 45.9456 152.141 46.1435 151.937 46.3466C151.937 46.3466 151.333 46.3466 150.932 46.5497C150.526 46.7476 149.927 47.1539 149.724 47.3518C148.516 47.956 145.901 50.1695 144.693 50.9768C143.687 51.7789 142.479 52.7841 142.682 52.7841C143.083 52.9872 144.896 51.3778 146.302 50.1695C147.714 48.9612 150.328 47.1539 151.333 46.7476C151.937 46.7476 152.542 46.7476 152.745 46.7476C153.146 46.7476 153.547 46.9508 153.75 46.9508C153.948 46.9508 154.151 46.5497 154.151 46.5497C154.354 46.3466 154.552 46.3466 154.755 46.5497C155.156 46.7476 155.156 47.1539 155.359 47.3518C155.359 47.5549 154.552 48.1591 156.161 48.1591C157.974 48.1591 158.578 46.5497 158.578 46.3466C158.578 46.1435 158.38 45.7424 158.177 45.5445C158.177 45.5445 157.172 45.5445 156.365 45.5445C155.562 45.5445 155.359 45.3414 154.552 45.1383C153.948 44.7372 154.151 43.9299 154.151 43.9299C154.151 43.732 154.552 43.9299 154.958 44.3362C155.562 44.7372 156.568 44.7372 157.37 44.7372C158.38 44.9403 157.974 45.1383 158.38 45.1383C158.781 45.1383 158.979 44.9403 158.979 44.3362C158.979 43.732 158.781 43.5289 158.38 43.5289C157.776 43.5289 157.573 43.732 156.568 43.732C156.365 43.732 154.958 43.5289 154.354 43.3258C153.75 43.3258 153.75 43.1278 153.547 42.5237C153.344 41.9195 153.344 41.9195 153.948 42.3206C154.552 42.7268 156.969 42.9247 157.776 42.9247C158.38 43.1278 158.781 42.5237 158.781 42.5237C158.781 42.3206 158.38 41.7164 157.974 41.7164C157.573 41.7164 156.969 41.7164 155.964 41.7164C154.958 41.7164 154.958 41.7164 154.151 41.7164C153.344 41.7164 151.937 41.7164 151.734 41.7164C151.536 41.7164 151.333 41.7164 151.13 41.9195C151.13 41.9195 148.917 42.9247 147.307 43.732C145.5 44.7372 142.276 46.1435 142.078 46.1435C141.875 46.3466 141.677 46.3466 141.474 46.5497C141.474 46.7476 141.677 47.956 141.677 48.357ZM158.781 47.7581C158.781 47.7581 158.38 48.9612 158.781 48.5601C159.786 47.956 159.786 46.9508 159.385 46.9508C159.182 46.9508 158.979 47.5549 158.781 47.7581ZM159.385 45.7424C159.182 46.1435 159.583 46.3466 159.786 46.3466C159.99 46.3466 160.187 46.1435 160.391 45.5445C160.391 45.1383 160.187 44.3362 159.99 44.3362C159.583 44.7372 159.786 45.3414 159.385 45.7424ZM160.187 43.732C160.391 43.1278 160.187 42.7268 159.99 42.9247C159.583 43.3258 160.187 44.1331 160.187 43.732ZM87.9427 51.982C87.9427 51.982 88.1458 48.7633 92.9739 48.5601C97 48.5601 103.437 54.1956 105.854 55.8049C108.271 57.4143 114.307 62.8466 127.187 60.8362C113.5 62.2424 108.271 57.0133 105.854 55.4039C103.437 53.7945 97 48.1591 92.9739 48.1591C88.1458 48.357 87.9427 51.982 87.9427 51.982ZM111.693 28.0341H113.703C113.703 28.0341 117.323 28.2372 117.323 27.6331C117.323 26.8258 115.917 26.8258 115.917 26.8258H113.703C113.703 26.8258 112.896 26.6278 113.099 26.6278C113.5 26.6278 113.901 26.4247 113.901 26.4247C113.901 26.4247 116.115 26.4247 116.318 26.4247C116.521 26.4247 116.521 26.2216 116.521 26.2216C116.521 26.2216 116.521 25.4195 116.521 25.2164C116.521 25.0133 115.917 25.0133 115.917 25.0133C115.917 25.0133 113.302 25.0133 112.495 25.0133C111.49 25.0133 109.474 25.6174 109.474 26.6278C109.474 27.6331 111.693 28.0341 111.693 28.0341ZM112.094 31.2528H114.307C114.307 31.2528 117.125 31.456 117.323 31.0549C117.323 30.2476 116.318 30.2476 116.318 30.2476H114.307C114.307 30.2476 113.302 30.0445 113.5 30.0445C113.901 30.0445 114.307 29.8466 114.307 29.8466C114.307 29.8466 116.521 29.8466 116.719 29.8466C116.922 29.8466 116.922 29.4456 116.922 29.4456C116.922 29.4456 117.323 29.0393 117.323 28.8414C117.323 28.6383 116.318 28.4351 116.318 28.4351C116.318 28.4351 113.901 28.6383 112.896 28.6383C111.891 28.6383 109.88 29.0393 109.88 30.0445C109.88 30.8518 112.094 31.2528 112.094 31.2528ZM114.307 37.8935H115.917C115.917 37.8935 118.734 38.0966 118.937 37.4924C118.937 36.6903 117.927 36.6903 117.927 36.6903H115.917C115.917 36.6903 114.911 36.4872 115.312 36.4872C115.516 36.4872 115.917 36.4872 115.917 36.4872C115.917 36.4872 117.125 36.4872 117.526 36.4872C117.729 36.4872 118.333 36.2841 118.333 36.2841C118.333 36.2841 118.734 35.8831 118.734 35.6799C118.734 35.482 117.729 35.2789 117.729 35.2789C117.729 35.2789 115.516 35.2789 114.505 35.2789C113.5 35.2789 111.49 35.482 111.49 36.4872C111.49 37.4924 114.307 37.8935 114.307 37.8935ZM112.896 34.6747H114.708C114.708 34.6747 117.927 34.6747 117.927 34.4716C117.927 33.6695 116.922 33.4664 116.922 33.4664H114.708C114.708 33.4664 113.703 33.2685 114.104 33.2685C114.307 33.2685 114.708 33.0653 114.708 33.0653C114.708 33.0653 116.922 33.0653 117.125 33.0653C117.323 33.0653 117.526 32.8622 117.526 32.8622C117.526 32.8622 117.927 32.4612 117.927 32.0601C117.927 31.857 116.719 31.857 116.719 31.857C116.719 31.857 114.307 31.857 113.302 31.857C112.292 31.857 110.682 32.2581 110.682 33.2685C110.682 34.2737 112.896 34.6747 112.896 34.6747ZM115.714 40.9143H117.125C117.125 40.9143 119.74 41.1174 119.74 40.5133C119.943 39.9091 118.531 39.9091 118.531 39.9091H117.125C117.125 39.9091 116.318 39.706 116.521 39.706C116.922 39.706 117.323 39.5028 117.323 39.5028C117.323 39.5028 117.927 39.5028 118.333 39.5028C118.531 39.5028 119.135 39.3049 119.135 39.3049C119.135 39.3049 119.536 39.1018 119.536 38.7008C119.536 38.4976 119.135 38.2945 119.135 38.2945C119.135 38.2945 116.719 38.2945 115.917 38.2945C114.911 38.2945 112.896 38.4976 112.896 39.5028C112.896 40.5133 115.714 40.9143 115.714 40.9143ZM117.323 44.1331H118.937C118.937 44.1331 121.349 44.3362 121.552 43.732C121.552 43.1278 120.141 43.1278 120.141 43.1278H118.937C118.937 43.1278 117.927 42.9247 118.333 42.9247C118.531 42.9247 118.937 42.7268 118.937 42.7268C118.937 42.7268 119.74 42.7268 119.943 42.7268C120.141 42.7268 120.542 42.5237 120.542 42.5237C120.542 42.5237 120.948 42.3206 120.948 41.9195C120.948 41.7164 120.542 41.5185 120.542 41.5185C120.542 41.5185 118.531 41.5185 117.526 41.5185C116.521 41.5185 114.505 41.7164 114.505 42.7268C114.505 43.732 117.323 44.1331 117.323 44.1331ZM122.557 50.1695H123.964C123.964 50.1695 125.172 50.1695 125.172 49.5653C125.375 48.7633 124.37 49.1643 124.37 49.1643H123.766C123.766 49.1643 122.755 48.9612 122.958 48.9612C123.359 48.9612 123.766 48.7633 123.766 48.7633C123.766 48.7633 124.568 48.7633 124.771 48.7633C124.974 48.7633 125.375 48.5601 125.375 48.5601C125.375 48.5601 125.776 48.357 125.776 47.956C125.776 47.7581 125.172 47.7581 125.172 47.7581C125.172 47.7581 123.161 47.7581 122.156 47.7581C121.349 47.7581 119.536 47.7581 119.536 48.5601C119.536 49.5653 122.557 50.1695 122.557 50.1695ZM119.536 47.3518H121.146C121.146 47.3518 123.766 47.5549 123.766 46.9508C123.964 46.1435 122.557 46.1435 122.557 46.1435H121.146C121.146 46.1435 120.344 45.9456 120.542 45.9456C120.745 45.9456 121.349 45.7424 121.349 45.7424C121.349 45.7424 121.953 45.7424 122.156 45.7424C122.557 45.7424 122.958 45.7424 122.958 45.7424C122.958 45.7424 123.359 45.3414 123.359 45.1383C123.359 44.9403 122.755 44.7372 122.755 44.7372C122.755 44.7372 120.745 44.7372 119.74 44.7372C118.937 44.7372 116.521 44.9403 116.521 45.9456C116.521 46.9508 119.536 47.3518 119.536 47.3518ZM93.375 25.4195C93.375 25.4195 92.776 25.6174 92.776 26.0237C92.776 26.6278 92.9739 28.2372 95.5885 28.2372C98.4062 28.2372 108.469 28.2372 108.469 28.2372C108.469 28.2372 109.073 28.2372 109.276 28.0341C109.474 27.831 109.073 27.0289 108.068 27.0289C107.062 27.0289 97.8021 27.0289 97.8021 27.0289V26.8258L107.062 26.4247C107.062 26.4247 108.87 26.6278 109.073 25.6174C109.073 25.0133 108.469 25.2164 108.068 25.2164C107.464 25.2164 99.6146 25.2164 99.6146 25.2164C99.6146 25.2164 93.5781 25.4195 93.375 25.4195ZM95.3906 28.8414C94.1823 28.6383 93.375 28.4351 93.375 28.4351C93.375 28.8414 93.375 31.456 96.1927 31.456C98.8125 31.456 108.87 31.456 108.87 31.456C108.87 31.456 109.677 31.6539 109.88 31.456C110.078 31.2528 109.474 30.4508 108.469 30.4508C107.464 30.4508 98.2083 30.4508 98.2083 30.4508L98.4062 30.2476L107.667 29.8466C107.667 29.8466 109.276 30.0445 109.474 28.8414C109.677 28.6383 108.87 28.6383 108.271 28.6383C107.667 28.6383 102.229 28.6383 102.229 28.6383L95.3906 28.8414ZM96.7969 32.0601C95.1875 32.0601 94.1823 31.6539 94.1823 31.6539C94.1823 32.0601 94.3854 34.8778 97 34.8778C99.8177 34.8778 109.88 34.8778 109.88 34.8778C109.88 34.8778 110.484 34.8778 110.682 34.6747C110.885 34.6747 110.281 33.6695 109.276 33.6695C108.271 33.6695 100.219 33.4664 100.219 33.4664L100.021 33.2685L108.87 33.0653C108.87 33.0653 110.078 33.2685 110.484 32.2581C110.484 32.0601 109.677 32.0601 109.073 32.0601C108.672 32.0601 103.036 32.0601 103.036 32.0601H96.7969ZM97.6041 35.2789C96.1927 35.2789 94.9896 34.8778 94.9896 34.8778C94.9896 35.482 95.3906 38.0966 98.0052 38.0966C100.823 38.0966 110.885 38.0966 110.885 38.0966C110.885 38.0966 111.49 38.0966 111.693 37.8935C111.891 37.6956 111.089 36.6903 110.078 36.6903C109.073 36.6903 100.422 36.8883 100.422 36.8883L100.219 36.6903L109.88 36.2841C109.88 36.2841 111.089 36.4872 111.49 35.482C111.49 35.2789 110.281 35.2789 109.88 35.2789C109.276 35.2789 104.042 35.2789 104.042 35.2789H97.6041ZM99.0104 38.4976C97.6041 38.4976 96.1927 38.0966 96.1927 38.0966C96.1927 38.7008 96.7969 41.3153 99.4166 41.3153C102.229 41.3153 112.094 41.3153 112.094 41.3153C112.094 41.3153 112.896 41.3153 113.099 41.1174C113.302 40.9143 112.495 39.9091 111.49 39.9091C110.484 39.9091 101.224 39.9091 101.224 39.9091H101.026L111.089 39.5028C111.089 39.5028 112.292 39.706 112.698 38.7008C112.698 38.4976 111.693 38.4976 111.089 38.4976C110.682 38.4976 105.453 38.4976 105.453 38.4976H99.0104ZM100.62 41.9195C99.2135 41.7164 97.8021 41.7164 97.8021 41.7164C97.8021 42.1226 98.8125 44.5341 101.427 44.5341C104.245 44.7372 113.703 44.5341 113.703 44.5341C113.703 44.5341 114.505 44.3362 114.708 44.3362C114.911 44.1331 114.104 43.1278 113.099 43.1278C112.094 43.1278 102.833 43.3258 102.833 43.3258L102.635 43.1278L112.698 42.7268C112.698 42.7268 113.901 43.1278 114.307 41.9195C114.307 41.7164 113.302 41.7164 112.698 41.7164C112.094 41.7164 107.062 41.7164 107.062 41.7164L100.62 41.9195ZM102.432 45.1383C101.026 45.1383 99.6146 44.7372 99.6146 44.7372C99.6146 45.3414 100.62 47.3518 103.24 47.3518C106.057 47.5549 115.516 47.5549 115.516 47.5549C115.516 47.5549 116.719 47.3518 116.922 47.1539C116.922 46.9508 115.917 46.3466 114.911 46.3466C113.901 46.3466 104.443 46.3466 104.443 46.3466L104.245 46.1435L114.505 45.9456C114.505 45.9456 115.516 46.3466 115.917 45.1383C116.115 45.1383 115.109 45.1383 114.505 45.1383C114.104 45.1383 108.87 45.1383 108.87 45.1383H102.432ZM105.25 47.956C103.844 47.956 102.229 47.7581 102.229 47.7581C102.229 48.357 104.245 50.3726 107.667 50.5706C110.484 50.5706 118.333 50.3726 118.333 50.3726C118.333 50.3726 120.141 50.1695 120.344 49.9664C120.344 49.7685 118.937 49.1643 117.927 49.1643C116.922 49.1643 107.26 49.1643 107.26 49.1643H107.062L117.729 48.5601C117.729 48.5601 118.531 48.7633 118.734 48.1591C118.734 47.956 117.927 47.956 117.323 47.956C116.922 47.956 111.693 47.956 111.693 47.956H105.25ZM109.073 50.9768C107.667 50.9768 106.057 50.9768 106.057 50.9768C106.057 51.3778 111.286 53.5914 115.714 53.3883C117.927 53.3883 119.339 53.1903 119.943 52.9872C120.542 52.5862 121.552 52.1851 120.542 52.1851C119.536 52.1851 111.089 52.1851 111.089 52.1851H110.885L121.552 51.7789C121.552 51.7789 122.354 51.982 122.557 51.1747C122.755 50.9768 121.75 50.9768 121.349 50.9768C120.745 50.9768 115.516 50.9768 115.516 50.9768H109.073ZM119.536 28.4351C119.536 28.6383 117.729 29.2424 117.729 29.8466C117.927 30.4508 119.74 31.2528 119.74 31.456C119.74 31.6539 118.13 32.2581 118.13 33.0653C118.333 33.8726 120.344 34.6747 120.344 34.8778C120.344 35.0758 118.734 35.6799 118.937 36.4872C119.135 37.0914 120.948 37.4924 120.948 37.8935C121.146 38.0966 119.943 38.7008 120.141 39.5028C120.344 40.5133 122.354 40.7112 122.557 41.1174C122.755 41.3153 121.349 42.1226 121.552 42.7268C121.953 43.3258 124.568 44.1331 124.771 44.1331C124.974 44.3362 124.974 44.5341 124.771 44.7372C124.568 44.7372 123.766 45.3414 123.766 45.7424C123.964 46.1435 125.172 46.7476 125.573 46.7476C125.979 46.7476 126.177 46.5497 126.177 46.5497V44.5341C126.177 44.5341 126.177 43.9299 125.776 43.732C122.156 41.5185 121.552 37.6956 121.552 37.6956C121.552 37.6956 123.766 35.0758 123.562 33.2685C122.755 26.2216 117.729 25.2164 117.729 25.4195C116.719 26.6278 119.536 28.2372 119.536 28.4351ZM141.875 31.2528C143.286 31.2528 144.49 31.2528 145.5 30.6487C146.505 30.2476 146.505 29.0393 146.505 29.0393C146.505 29.0393 145.5 30.8518 142.276 30.6487C140.266 30.4508 137.651 31.2528 137.651 31.2528C138.656 31.2528 140.266 31.2528 141.875 31.2528ZM79.2916 38.2945C79.0885 38.4976 80.5 37.8935 81.5052 37.8935C82.3073 37.8935 84.3229 38.0966 84.5208 37.8935C84.5208 37.6956 83.3125 37.4924 82.3073 37.4924C81.3021 37.4924 80.2969 37.4924 79.2916 38.2945ZM130.604 59.6278C130.807 59.831 133.224 60.232 136.036 60.232C138.854 60.232 141.875 59.2268 142.88 58.8258C144.089 58.4195 148.312 57.4143 148.917 57.2112C149.724 57.0133 149.724 56.8101 149.323 56.8101C148.719 56.8101 146.104 57.6174 144.693 58.0185C139.661 59.6278 137.651 59.831 136.036 59.831C134.63 59.831 130.604 59.4299 130.604 59.4299C130.604 59.4299 130.406 59.6278 130.604 59.6278ZM127.187 26.6278C127.385 26.8258 127.792 26.6278 127.792 27.4299C127.792 28.4351 128.995 31.2528 130.005 32.4612C130.807 33.8726 134.026 33.8726 137.245 33.8726C140.667 33.6695 140.667 33.4664 140.87 32.8622C141.073 32.0601 138.453 32.4612 138.453 32.4612C138.453 32.4612 136.036 32.4612 135.437 32.4612C134.833 32.4612 133.625 32.4612 133.828 31.456C134.229 28.8414 135.839 29.2424 135.839 29.2424L136.24 28.6383H136.443L136.641 28.8414L136.844 29.2424H137.849L138.052 29.4456H138.656L139.057 28.8414H139.26L139.458 29.4456H140.062L140.266 28.6383H140.469L140.87 29.0393L141.073 28.6383C141.073 28.6383 141.073 27.6331 141.073 27.2268C140.87 27.0289 140.667 26.6278 140.266 26.4247C139.865 26.2216 139.057 26.0237 138.453 25.8206C137.849 25.6174 134.833 25.4195 134.229 25.4195C133.625 25.2164 132.62 24.8153 132.016 24.6122C131.615 24.6122 130.005 24.8153 129.198 24.8153C128.391 24.8153 125.776 24.8153 125.776 25.0133C125.573 25.8206 126.984 26.6278 127.187 26.6278ZM138.052 29.0393V28.6383L137.651 28.8414V29.0393H138.052ZM138.255 28.2372L138.453 28.4351L138.854 28.2372L138.453 28.0341L138.255 28.2372ZM136.844 28.2372L137.245 28.4351L137.448 28.2372L137.245 28.0341H136.844V28.2372ZM139.865 28.2372H139.661L139.458 28.4351H139.865V28.2372ZM131.411 27.0289C131.615 27.0289 132.219 27.831 132.823 27.831C133.625 27.831 134.229 27.0289 134.432 27.0289L135.234 26.8258C135.234 26.6278 134.63 26.4247 134.229 26.2216C133.828 26.2216 133.422 26.2216 133.224 26.2216C133.021 26.2216 132.417 26.0237 132.417 26.0237C132.417 26.0237 131.411 26.0237 131.214 26.0237C130.807 26.0237 130.604 26.2216 130.604 26.4247C130.604 27.0289 131.214 26.8258 131.411 27.0289ZM132.62 27.2268H133.021V27.0289H132.823L132.62 27.2268ZM126.984 29.0393V30.6487C126.984 30.6487 127.187 31.6539 128.193 31.6539C128.594 31.6539 128.594 31.456 128.391 31.2528C128.391 31.2528 127.99 30.8518 127.792 30.6487C127.792 30.4508 127.792 30.2476 127.792 30.2476C127.792 30.2476 127.589 30.2476 127.385 30.4508L127.187 30.0445V29.0393H126.984ZM126.984 32.4612V35.482C126.984 35.482 126.984 36.8883 128.594 36.6903C130.005 36.6903 129.802 35.6799 129.802 35.6799H130.005C130.005 35.6799 130.005 37.0914 131.615 37.0914C133.021 37.0914 132.823 36.0862 132.823 36.0862H133.224C133.224 36.0862 133.224 37.2893 134.833 37.2893C135.839 37.4924 135.839 36.0862 135.839 36.0862H136.036L136.443 36.6903C136.443 36.6903 136.443 37.4924 137.448 37.4924C138.453 37.4924 138.255 36.8883 138.255 36.8883V36.2841C138.255 36.2841 138.255 36.2841 138.052 36.2841C137.849 36.2841 137.448 36.6903 137.245 36.6903C137.047 36.6903 137.245 36.2841 137.047 36.2841C136.844 36.2841 136.844 36.4872 136.641 36.4872C136.641 36.4872 136.24 36.2841 136.24 35.0758H135.839C135.839 35.0758 135.635 34.6747 135.635 35.482C135.635 36.2841 135.437 36.0862 135.437 36.0862L134.833 35.6799C134.833 35.6799 134.833 36.6903 134.63 36.6903C134.432 36.6903 134.229 35.8831 134.229 35.8831C134.229 35.8831 134.229 35.6799 134.026 35.8831C134.026 35.8831 133.828 36.0862 133.625 36.0862C133.422 36.0862 133.625 34.8778 133.021 34.8778H132.823L132.62 35.2789V35.8831C132.62 35.8831 132.62 36.0862 132.417 36.0862C132.016 36.0862 132.016 35.6799 132.016 35.6799C132.016 35.6799 131.812 36.2841 131.615 36.2841C131.411 36.2841 131.411 35.8831 131.411 35.8831L131.214 35.2789C131.01 35.2789 131.01 35.482 131.01 35.482H130.807L130.604 35.0758C130.604 35.0758 130.406 34.8778 130.406 34.2737C130.406 33.6695 129.401 33.0653 129.401 33.0653V34.6747C129.401 34.6747 129.198 35.0758 128.995 35.0758C128.797 35.0758 128.797 34.6747 128.797 34.6747H128.594C128.594 34.6747 128.594 35.6799 128.391 35.6799C127.99 35.6799 127.99 34.8778 127.99 34.8778L127.792 34.6747C127.792 34.6747 127.792 35.0758 127.589 35.0758C127.385 35.0758 127.187 34.2737 127.187 34.2737V32.4612H126.984ZM126.984 37.4924V39.9091C126.984 39.9091 126.984 41.3153 128.391 41.3153C129.802 41.3153 129.802 40.107 129.802 40.107H130.005C130.005 40.107 130.005 41.5185 131.812 41.3153C133.224 41.3153 133.021 40.5133 133.021 40.5133L133.422 40.3101C133.422 40.3101 133.625 41.5185 135.234 41.7164C136.24 41.7164 136.443 40.3101 136.443 40.3101L136.844 40.5133L137.047 41.1174C137.047 41.1174 137.047 41.5185 138.052 41.5185C139.057 41.5185 139.057 41.1174 139.057 41.1174V40.107C139.057 40.107 138.656 40.107 138.453 40.107C138.255 40.107 138.255 40.7112 138.255 40.7112C138.052 40.7112 137.849 40.107 137.651 40.107C137.448 40.107 137.448 40.3101 137.245 40.3101C137.245 40.3101 136.844 39.706 136.844 38.4976C136.844 38.2945 136.036 37.8935 136.036 37.8935C136.036 37.8935 135.839 37.8935 136.036 38.4976C136.036 39.3049 136.036 40.107 136.036 40.107H135.437C135.437 40.107 135.437 40.9143 135.234 40.9143C134.833 40.9143 134.63 39.5028 134.63 39.5028V39.3049C134.432 39.5028 134.432 40.3101 134.229 40.3101C133.828 40.3101 133.828 37.4924 133.224 37.4924L132.62 38.0966L132.823 39.1018V39.9091C132.823 39.9091 132.823 40.107 132.62 40.107C132.219 39.9091 132.219 39.5028 132.219 39.5028H132.016C132.016 39.5028 132.016 40.7112 131.812 40.7112C131.615 40.7112 131.615 40.3101 131.615 40.3101C131.615 40.3101 131.411 39.706 131.214 39.706V39.9091H130.807V39.5028C130.807 39.5028 130.604 38.7008 130.604 37.8935C130.604 37.2893 129.599 36.8883 129.401 37.4924C129.401 37.6956 129.401 39.3049 129.401 39.3049C129.401 39.3049 129.401 39.706 129.198 39.706C128.995 39.706 128.995 39.5028 128.995 39.5028H128.594C128.594 39.5028 128.594 40.5133 128.391 40.5133C127.99 40.5133 128.193 38.4976 128.193 38.4976L127.792 38.7008C127.792 38.7008 127.792 39.5028 127.589 39.5028C127.187 39.5028 127.385 38.7008 127.385 38.7008L127.187 37.4924H126.984ZM127.187 42.3206V44.5341C127.187 44.5341 126.984 45.7424 128.594 45.7424C130.005 45.7424 129.802 44.5341 129.802 44.5341H130.203C130.203 44.5341 130.005 46.3466 131.812 46.3466C133.422 46.1435 133.625 44.9403 133.625 44.9403H133.828C133.828 44.9403 133.828 46.5497 135.437 46.5497C137.047 46.5497 137.047 44.9403 137.047 44.9403L137.448 45.1383L137.651 45.7424C137.651 45.7424 137.849 46.1435 138.854 46.1435C139.865 46.1435 140.062 45.5445 140.062 45.5445L139.865 44.1331C139.865 44.1331 139.661 44.3362 139.458 44.3362C139.26 44.3362 139.057 44.1331 139.057 44.1331C138.854 44.1331 139.057 45.3414 138.854 45.3414C138.453 45.3414 138.453 44.3362 138.255 44.3362C138.255 44.3362 138.453 43.3258 138.255 43.3258C138.052 43.3258 138.255 44.7372 137.849 44.5341C137.651 44.5341 137.651 43.5289 137.651 43.1278C137.651 42.7268 136.844 42.1226 136.641 42.1226C136.443 42.1226 136.24 42.1226 136.24 43.1278C136.24 43.9299 136.443 44.7372 136.443 44.7372H135.839C135.839 44.7372 135.635 45.3414 135.437 45.3414C135.234 45.3414 135.031 44.3362 135.031 44.3362C135.031 44.3362 135.031 44.1331 134.833 44.3362L134.63 44.5341C134.026 44.7372 134.432 41.9195 133.828 41.9195L133.224 41.7164L132.823 42.3206V44.3362C132.823 44.3362 133.021 44.7372 132.62 44.5341C132.219 44.5341 132.417 43.1278 132.417 43.1278H132.219C132.219 43.1278 132.219 45.3414 131.812 45.3414C131.615 45.3414 131.615 44.7372 131.615 44.7372C131.615 44.7372 131.615 43.732 131.411 43.732L131.214 44.3362H130.807V44.1331C130.807 44.1331 130.807 43.1278 130.807 42.5237C130.807 41.9195 129.802 41.1174 129.401 42.1226C129.401 42.3206 129.401 43.732 129.401 43.732C129.401 43.732 129.198 44.1331 128.995 44.1331C128.797 44.1331 128.797 42.7268 128.797 42.7268H128.594C128.594 42.7268 128.594 44.7372 128.193 44.7372C127.792 44.7372 127.99 43.732 127.99 43.732H127.792C127.792 43.732 127.792 43.9299 127.385 43.9299C127.187 43.9299 127.385 43.3258 127.385 43.3258V42.3206H127.187ZM126.781 48.1591L125.979 49.7685C125.979 49.7685 125.979 51.1747 127.589 51.1747C129.401 51.1747 129.599 49.3674 129.599 49.3674L129.802 49.5653C129.802 49.5653 129.802 51.581 131.812 51.581C133.422 51.581 133.625 49.9664 133.625 49.9664H133.828C133.828 49.9664 133.828 51.982 135.437 51.7789C137.651 51.7789 137.448 49.9664 137.448 49.9664H137.651L137.849 50.7737C137.849 50.7737 138.453 51.581 139.458 51.581C140.469 51.581 140.87 50.5706 140.87 50.5706C140.87 50.5706 140.667 47.956 140.469 47.956C140.266 47.956 140.469 49.3674 140.266 49.3674C139.865 49.3674 139.661 47.956 139.661 47.956C139.458 47.956 139.458 50.3726 139.458 50.3726C138.854 50.3726 139.057 48.9612 138.854 48.9612C138.656 48.9612 139.057 47.956 138.656 47.956C138.453 47.956 138.656 49.3674 138.255 49.3674C137.849 49.3674 138.052 47.5549 138.052 47.3518C138.052 46.9508 137.448 46.3466 137.245 46.3466C137.047 46.3466 136.641 46.9508 136.641 47.956C136.641 48.7633 136.641 49.5653 136.641 49.5653H136.036C136.036 49.5653 135.839 50.3726 135.635 50.3726C135.437 50.3726 135.234 48.1591 135.234 48.1591C135.234 48.1591 135.234 47.956 135.031 48.1591C134.833 48.1591 135.234 49.7685 134.63 49.7685C134.229 49.7685 134.63 46.7476 133.828 46.7476H133.422L133.021 47.3518V48.1591L132.823 48.9612C132.823 48.9612 132.823 49.3674 132.62 49.3674C132.219 49.1643 132.219 48.357 132.219 48.357C132.219 48.357 132.219 50.3726 131.812 50.3726C131.615 50.3726 131.615 49.5653 131.615 49.5653L131.411 47.956C131.214 47.956 131.01 48.9612 131.01 48.9612H130.807L130.604 48.357C130.604 48.357 130.807 47.5549 130.604 46.9508C130.604 46.1435 129.599 45.9456 129.401 46.7476C129.198 46.9508 129.198 48.1591 129.198 48.1591C129.198 48.1591 128.797 48.9612 128.594 48.9612C128.391 48.9612 128.594 47.3518 128.594 47.3518H128.391C128.391 47.3518 128.193 49.5653 127.792 49.5653C127.589 49.5653 127.792 47.3518 127.792 47.3518L127.385 47.5549C127.385 47.5549 127.589 48.7633 127.187 48.7633C126.984 48.7633 126.984 48.357 126.984 48.357V48.1591H126.781ZM89.5521 40.7112C89.5521 40.7112 89.7552 40.7112 89.5521 40.5133C89.3541 40.3101 87.5416 38.2945 86.9375 36.4872C86.3333 34.4716 87.1406 30.6487 87.3385 30.4508C87.3385 30.0445 87.5416 30.2476 87.5416 30.4508C86.3333 36.8883 88.5469 38.7008 90.1562 40.3101C90.1562 40.3101 90.1562 40.3101 90.7604 40.3101C90.7604 40.3101 87.7448 37.8935 87.5416 34.6747C87.5416 32.6643 88.5469 28.0341 88.5469 28.0341C83.9219 31.2528 85.9323 34.8778 85.9323 34.8778C86.1302 35.0758 86.1302 35.2789 85.9323 35.2789C85.7291 35.2789 84.7239 34.6747 83.9219 34.2737C82.9114 33.8726 81.9062 33.6695 81.9062 33.8726C81.7031 34.8778 83.7187 36.8883 83.9219 37.0914C84.1198 37.2893 84.1198 37.2893 83.9219 37.2893C83.1146 37.4924 82.7135 37.2893 80.6979 37.2893C79.0885 37.4924 77.0781 38.4976 77.276 38.7008C77.8802 39.3049 81.9062 39.706 83.5156 39.9091C85.125 40.3101 86.7344 41.5185 86.7344 41.5185C86.7344 41.5185 87.5416 41.1174 89.5521 40.7112Z" fill="#231F20"/>
</svg>
