<svg width="257" height="129" viewBox="0 0 257 129" fill="white" xmlns="http://www.w3.org/2000/svg">
<path fill-rule="evenodd" clip-rule="evenodd" d="M68.0741 41.057H89.3658V107.246H136.118L124.487 128.302H68.0741V41.057ZM72.2725 45.2834V124.076H122.018L128.98 111.472H85.1674V45.2834H72.2725Z"/>
<path d="M142.745 95.6985H129.55V100.831H176.632L180.23 106.566H170.634L168.535 110.491H187.128L170.634 79.3966L162.537 95.6985H148.743L170.634 51.3212L207.22 122.868H148.743L146.943 127.699H215.317L201.522 100.831H208.12V96.3023H198.823L170.634 41.057L142.745 95.6985Z"/>
<path d="M173.933 95.3966H167.335L170.502 88.7551L173.933 95.3966Z"/>
<path d="M0 128V41.0566H37.5845C39.5024 41.0566 41.405 41.3999 43.2034 42.0705C46.772 43.401 50.22 45.1409 52.904 47.8567C57.5273 52.5347 62.7972 59.9692 62.9755 68.2264C63.2154 79.3359 51.8798 91.5724 46.182 96.6038L41.084 101.434L35.3862 106.264L20.0922 91.7736L39.1893 71.9835C40.0197 71.1229 40.4842 69.9704 40.4842 68.7706C40.4842 67.4634 39.9331 66.2177 38.968 65.3432L38.8734 65.2576C37.9798 64.448 36.8202 64 35.6181 64H22.1914V75.4717L17.6931 79.3963V60.3774H37.2906C39.3235 60.3774 41.2608 61.246 42.6207 62.767C42.9944 63.1851 43.3218 63.6439 43.5709 64.1474C44.1897 65.3984 44.9825 67.2447 44.9825 68.2264C44.9825 71.9586 42.1417 75.0336 39.5423 77.6947L25.79 91.7736L35.3862 100.83C43.0832 94.6918 58.4772 79.5774 58.4772 68.2264C58.4772 58.4246 49.5326 50.9189 43.2293 47.3033C41.4598 46.2884 39.4312 45.8868 37.3947 45.8868H4.19837V123.774H17.6931V108.076L22.7911 113.208V128H0Z"/>
<path d="M225.512 41.0566H220.115C221.914 43.8743 225.512 51.3208 225.512 58.5661C225.512 65.1764 221.019 80.1632 218.182 88.6238C217.679 90.123 217.268 91.648 216.974 93.2018L216.216 97.2076L215.316 103.849C215.316 107.662 215.731 111.463 216.553 115.186L217.116 117.736L220.115 127.698H225.512C224.713 125.686 222.873 120.876 221.914 117.736C220.714 113.811 219.815 108.076 219.815 103.849C219.815 101.882 220.424 98.7984 220.992 95.9882C221.677 92.6015 222.551 89.2379 223.667 85.9678C226.45 77.8118 230.011 65.627 230.011 58.5661C230.011 49.8717 227.012 43.2705 225.512 41.0566Z"/>
<path d="M238.706 41.0566H233.308C235.108 43.8743 238.706 51.3208 238.706 58.5661C238.706 65.1764 234.213 80.1632 231.376 88.6238C230.873 90.123 230.462 91.648 230.168 93.2018L229.41 97.2076L228.51 103.849C228.51 107.662 228.925 111.463 229.747 115.186L230.31 117.736L233.308 127.698H238.706C237.907 125.686 236.067 120.876 235.108 117.736C233.908 113.811 233.009 108.076 233.009 103.849C233.009 101.882 233.617 98.7984 234.186 95.9882C234.871 92.6015 235.745 89.2379 236.861 85.9678C239.644 77.8118 243.205 65.627 243.205 58.5661C243.205 49.8717 240.206 43.2705 238.706 41.0566Z"/>
<path d="M252.501 41.0566H247.103C248.903 43.8743 252.501 51.3208 252.501 58.5661C252.501 65.1764 248.008 80.1632 245.171 88.6238C244.668 90.123 244.257 91.648 243.963 93.2018L243.205 97.2076L242.305 103.849C242.305 107.662 242.72 111.463 243.542 115.186L244.104 117.736L247.103 127.698H252.501C251.702 125.686 249.862 120.876 248.903 117.736C247.703 113.811 246.803 108.076 246.803 103.849C246.803 101.882 247.412 98.7984 247.981 95.9882C248.666 92.6015 249.54 89.2379 250.656 85.9678C253.439 77.8118 256.999 65.627 256.999 58.5661C256.999 49.8717 254.001 43.2705 252.501 41.0566Z"/>
<path d="M212.317 20.8302C212.317 24.4528 214.317 27.0692 215.016 28.0755L218.615 25.9623C218.315 25.2579 216.756 23.8491 216.516 21.434C216.216 18.4151 216.816 15.6981 218.315 12.6792C219.814 9.66038 221.014 8.15094 224.613 6.03774C228.211 3.92453 229.423 4.22746 233.009 4.5283C236.596 4.82915 239.907 6.9434 241.406 8.45283C242.906 9.96226 243.805 11.4717 243.805 13.5849C243.805 15.4546 242.927 17.2607 241.769 18.7283C240.965 19.7475 239.86 20.6677 238.407 20.8302C236.619 21.0302 234.509 19.9245 233.609 19.3208L230.91 22.6415C232.709 23.8491 235.169 24.7547 236.608 24.7547C239.907 24.7547 241.899 24.5599 244.405 22.0377C245.509 20.9263 248.004 17.2075 248.004 13.5849C248.004 9.96226 246.804 7.84906 243.505 4.5283C239.307 0.301887 233.909 0 231.81 0C226.412 0 224.613 0.733154 222.214 2.11321C221.812 2.34436 221.435 2.57918 221.08 2.81697C215.538 6.52982 212.649 13.4227 212.336 20.0862C212.324 20.3392 212.317 20.5876 212.317 20.8302Z"/>
<path d="M256.401 13.283C256.401 9.66038 254.402 7.04403 253.702 6.03774L250.104 8.15095C250.404 8.85535 251.963 10.2642 252.203 12.6793C252.503 15.6981 251.903 18.4151 250.404 21.434C248.904 24.4528 247.705 25.9623 244.106 28.0755C240.507 30.1887 239.295 29.8858 235.709 29.5849C232.123 29.2841 228.812 27.1698 227.313 25.6604C225.813 24.1509 224.913 22.6415 224.913 20.5283C224.913 18.6586 225.791 16.8525 226.949 15.3849C227.754 14.3657 228.859 13.4455 230.311 13.283C232.1 13.083 234.21 14.1887 235.109 14.7925L237.808 11.4717C236.009 10.2642 233.55 9.3585 232.111 9.3585C228.812 9.3585 226.819 9.55331 224.314 12.0755C223.21 13.187 220.715 16.9057 220.715 20.5283C220.715 24.1509 221.915 26.2642 225.213 29.5849C229.412 33.8113 234.81 34.1132 236.909 34.1132C242.307 34.1132 244.106 33.3801 246.505 32C246.907 31.7689 247.284 31.534 247.639 31.2962C253.181 27.5834 256.069 20.6905 256.383 14.0271C256.395 13.774 256.401 13.5256 256.401 13.283Z"/>
</svg>
